<?xml version="1.0" standalone="no"?>
<!DOCTYPE svg PUBLIC "-//W3C//DTD SVG 1.1//EN" "http://www.w3.org/Graphics/SVG/1.1/DTD/svg11.dtd" >
<svg xmlns="http://www.w3.org/2000/svg">
<metadata></metadata>
<defs>
<font id="itc_american_typewriterRg" horiz-adv-x="1351" >
<font-face units-per-em="2048" ascent="1638" descent="-410" />
<missing-glyph horiz-adv-x="491" />
<glyph unicode="&#xfb01;" horiz-adv-x="1556" d="M35 911q0 61 23.5 92t88.5 31q53 0 66.5 7.5t15.5 39.5q6 80 30 144.5t97 111.5q41 25 92.5 43.5t105.5 30.5t108.5 17.5t101.5 5.5q102 0 194.5 -16.5t161 -48.5t109.5 -77t41 -100q0 -29 -16.5 -51.5t-40 -38t-52 -22.5t-53.5 -7q-31 0 -61.5 7t-55 23.5t-40 42 t-11.5 60.5q-39 16 -82 21.5t-86 5.5q-39 0 -82 -4t-80 -21q-33 -14 -45 -35.5t-12 -56.5q0 -29 5 -53.5t34 -34.5q14 -6 39.5 -10t53.5 -6t54.5 -3t42.5 -1q96 0 176 4t146 10q63 4 106 8t60 4q41 0 52 -22.5t11 -85.5v-559q0 -47 3 -76t8.5 -44.5t11.5 -19.5t12 -4 q10 0 31 8q18 6 37 7q51 0 70.5 -35t19.5 -82q0 -59 -28 -100t-93 -41q-66 0 -128.5 10t-125.5 10q-59 0 -116.5 -10t-112.5 -10q-66 0 -93.5 40.5t-27.5 100.5q0 47 19.5 82t70.5 35q10 0 18.5 -2.5t18.5 -4.5q8 -2 15 -5t15 -3q23 0 30 33t7 111v356q0 35 -22.5 53.5 t-40.5 26.5q-20 6 -48 10t-57.5 6t-58.5 3t-51 1q-27 0 -73 -5t-69 -19q-10 -8 -16 -19.5t-6 -50.5v-362q0 -92 7 -118t30 -26q10 0 17 2t16 6q8 2 16 4.5t18 2.5q51 0 71 -35t20 -82q0 -59 -28 -100t-93 -41q-66 0 -128.5 10t-125.5 10q-59 0 -115.5 -9t-107.5 -11 q-59 0 -86 40.5t-27 100.5q0 47 19.5 82t70.5 35q10 0 19.5 -2.5t17.5 -4.5q10 -4 17 -6t14 -2q25 0 30.5 34t5.5 110v381q0 41 -9 52t-56 11q-70 0 -100.5 20.5t-30.5 79.5z" />
<glyph unicode="&#xfb02;" horiz-adv-x="1556" d="M35 121q0 47 19.5 82t70.5 35q10 0 19.5 -2.5t17.5 -4.5q10 -4 17 -6t14 -2q25 0 30.5 34t5.5 110v399q2 29 -4 41t-37 12h-34q-117 -4 -117 111q0 68 27.5 94.5t91.5 26.5q31 0 46 2t23 9t9.5 23.5t3.5 47.5q4 78 39.5 134t91 93t123 55.5t137.5 18.5q33 0 87 -4.5 t115.5 -10.5t125 -10t116.5 -4q45 0 89 3t87 3q45 0 58.5 -23.5t13.5 -93.5v-927q0 -47 3 -76t8 -44.5t11.5 -19.5t12.5 -4q10 0 30 8q18 6 37 7q51 0 70.5 -35t19.5 -82q0 -59 -27.5 -100t-92.5 -41q-66 0 -128.5 10t-125.5 10q-59 0 -116.5 -10t-113.5 -10 q-66 0 -93.5 40.5t-27.5 100.5q0 47 19.5 82t71.5 35q10 0 18 -2.5t18 -4.5q8 -2 15.5 -5t15.5 -3q23 0 30 33t7 111v682q0 39 -9 73.5t-39 59t-84 39t-142 14.5q-37 0 -67 -3t-49.5 -14.5t-29.5 -36t-10 -67.5q0 -39 9 -51t30 -12h53q66 0 94.5 -22.5t28.5 -90.5 q0 -72 -30.5 -94.5t-96.5 -22.5q-31 0 -49.5 -1t-27.5 -9t-11 -25.5t-2 -48.5v-370q0 -92 7 -118t30 -26q10 0 17 2t16 6q8 2 16 4.5t18 2.5q51 0 70.5 -35t19.5 -82q0 -59 -27.5 -100t-92.5 -41q-66 0 -128.5 10t-125.5 10q-59 0 -115.5 -9t-108.5 -11q-59 0 -85.5 40.5 t-26.5 100.5z" />
<glyph horiz-adv-x="0" />
<glyph unicode="&#xd;" horiz-adv-x="491" />
<glyph horiz-adv-x="0" />
<glyph horiz-adv-x="0" />
<glyph unicode=" "  horiz-adv-x="491" />
<glyph unicode="&#x09;" horiz-adv-x="491" />
<glyph unicode="&#xa0;" horiz-adv-x="491" />
<glyph unicode="!" horiz-adv-x="778" d="M184 1282q0 45 18.5 74.5t49.5 46t68.5 24t76.5 7.5q35 0 72 -6.5t66.5 -22.5t49 -44t19.5 -71l-8 -106l-59 -631q-4 -47 -11.5 -73.5t-24 -39t-45 -14.5t-73.5 -2q-43 0 -71.5 3t-45 15.5t-25 39t-10.5 73.5zM193 152q0 84 57 142t141 58t142.5 -58t58.5 -142 t-58.5 -141.5t-142.5 -57.5t-141 57.5t-57 141.5z" />
<glyph unicode="&#x22;" horiz-adv-x="1146" d="M199 1315.5v32.5q0 27 12 43t30.5 25t42 13.5t48.5 4.5t48 -4.5t41.5 -13.5t31 -25.5t12.5 -42.5v-32t-2 -32l-39 -379q-6 -55 -22.5 -66.5t-69.5 -9.5q-53 -2 -69.5 9.5t-22.5 66.5l-39 379q-2 16 -2 31.5zM657 1315.5v32.5q0 27 12.5 43t31 25t42 13.5t48.5 4.5 t48 -4.5t41.5 -13.5t31 -25.5t12.5 -42.5v-32t-2 -32l-39 -379q-6 -55 -22.5 -66.5t-69.5 -9.5q-53 -2 -69.5 9.5t-23.5 66.5l-39 379q-2 16 -2 31.5z" />
<glyph unicode="#" d="M47 446v189h291l35 174h-254v188h284l76 418h223l-73 -418h219l74 418h231l-78 -418h232v-188h-265l-30 -174h227v-189h-260l-82 -446h-227l78 446h-218l-81 -446h-226l80 446h-256zM563 635h219l33 174h-221z" />
<glyph unicode="$" d="M109 319q0 45 12 86t36.5 72t60.5 49.5t85 18.5q68 0 119 -48t51 -118q0 -33 -15.5 -58.5t-15.5 -48.5q0 -25 43 -51t150 -26q47 0 95 12t88 36.5t65.5 63.5t25.5 92q0 51 -22.5 82t-58 48.5t-77.5 25.5t-81 14q-88 16 -178.5 46t-165.5 77q-86 53 -126 132t-40 180 q0 102 33.5 179t94 129t141.5 81.5t175 40.5l-6 159q-2 41 21.5 63.5t64.5 22.5q45 0 71.5 -14t22.5 -63l-8 -168q57 0 112.5 -11.5t108.5 -38.5q78 -41 126 -95t48 -146q0 -74 -47 -123t-121 -49q-57 0 -103 33.5t-46 93.5q0 18 4 33.5t4 29.5q0 18 -25.5 41t-105.5 23 q-121 0 -182.5 -46t-61.5 -112q0 -43 33 -71.5t85 -48t119.5 -37t137.5 -40.5t137.5 -55.5t120.5 -82.5t85 -122.5t32 -177.5q0 -98 -38 -180t-101.5 -143.5t-147.5 -101.5t-176 -54l8 -172q2 -47 -21.5 -67.5t-66.5 -20.5q-51 0 -70.5 21.5t-17.5 56.5l8 182 q-78 -4 -166 18.5t-161.5 70.5t-122.5 117.5t-49 159.5z" />
<glyph unicode="%" horiz-adv-x="1966" d="M74 989q0 86 18.5 166t60.5 142.5t110.5 99.5t166.5 37q94 0 161.5 -36t110.5 -96.5t63.5 -138.5t20.5 -162q0 -88 -17 -169.5t-58 -146t-110 -103.5t-171 -39q-98 0 -165.5 36.5t-110.5 99t-61.5 143.5t-18.5 167zM291 987q0 -33 4 -79t18.5 -89t42 -72.5t72.5 -29.5 t73.5 29.5t43 72.5t19.5 89t5 79t-5 80t-19.5 90t-43 73t-73.5 30t-72.5 -30t-42 -73t-18.5 -90t-4 -80zM557 8q0 16 5 28.5t13 29.5l639 1288q10 20 17.5 32.5t16.5 19.5t22.5 9t38.5 2q10 0 24.5 -1t27.5 -4t22.5 -12t9.5 -24q0 -12 -9.5 -30.5t-13.5 -28.5l-631 -1276 q-10 -20 -16 -34.5t-14.5 -23t-22.5 -11.5t-39 -3h-27.5t-28.5 3t-23.5 11.5t-10.5 24.5zM1163 399q0 86 18.5 167t60.5 142.5t111 99.5t167 38q94 0 161.5 -36t110.5 -96.5t63.5 -138t20.5 -163.5q0 -88 -17.5 -170t-58.5 -146.5t-109.5 -103.5t-170.5 -39q-98 0 -166 37 t-111 99.5t-61.5 143t-18.5 166.5zM1380 399q0 -33 5.5 -80t19.5 -90t42 -72.5t73 -29.5t72.5 29.5t42 72.5t19.5 90.5t5 79.5q0 33 -5 79t-19.5 89t-42 74t-72.5 31v-2q-47 0 -74 -30t-42 -73t-19.5 -89t-4.5 -79z" />
<glyph unicode="&#x26;" horiz-adv-x="1802" d="M74 420q0 72 26.5 140.5t73.5 121.5q49 57 118.5 97t135.5 75l41 23q-41 63 -64.5 119.5t-23.5 133.5q0 80 34 137.5t88 94.5t122.5 54.5t140.5 17.5q68 0 132.5 -17.5t116.5 -53.5t83.5 -91t31.5 -131q0 -55 -20 -102.5t-53 -85.5t-76 -69.5t-86 -58.5l127 -184 q33 76 66.5 143.5t82.5 114.5q57 55 133 88t158 33q61 0 119.5 -19.5t105 -56.5t75 -89t28.5 -118q0 -45 -16.5 -85t-46 -69.5t-68.5 -47t-84 -17.5q-29 0 -57.5 10.5t-51 28.5t-37 44t-14.5 56q0 43 18.5 60.5t18.5 32.5q0 10 -6 11t-16 1q-53 0 -107.5 -85t-124.5 -276 l41 -53q27 -35 47.5 -55.5t44 -30.5t51 -14t68.5 -4q27 0 54.5 -6.5t49 -21.5t35 -42t13.5 -68q0 -47 -29 -86.5t-80 -39.5q-29 0 -59.5 10t-65.5 10t-69.5 -10t-69.5 -10q-80 0 -134.5 47t-101.5 112q-66 -100 -177 -143t-226 -43q-102 0 -195.5 32.5t-165 93t-113.5 146.5 t-42 195zM434 418q0 -88 56.5 -136.5t140.5 -48.5q125 0 192 103l-213 317q-72 -41 -124 -94t-52 -141zM692 1145q0 -41 18.5 -72.5t45.5 -60.5q41 12 68.5 46t27.5 81q0 35 -23.5 57.5t-58.5 22.5q-31 0 -54.5 -21.5t-23.5 -52.5z" />
<glyph unicode="'" horiz-adv-x="614" d="M174 1315.5v32.5q0 27 12.5 43t31 25t42 13.5t47.5 4.5q25 0 48.5 -4.5t42 -13.5t30.5 -25.5t12 -42.5v-32t-2 -32l-39 -379q-6 -55 -22.5 -66.5t-69.5 -9.5q-53 -2 -69.5 9.5t-22.5 66.5l-39 379q-2 16 -2 31.5z" />
<glyph unicode="(" horiz-adv-x="983" d="M141 520q0 170 34 319.5t132 290.5q43 61 102.5 123t118.5 107q25 18 57.5 37.5t69.5 35t74 25.5t68 10q41 0 63.5 -35.5t22.5 -72.5q0 -55 -33 -89t-74 -65q-43 -31 -74.5 -60.5t-56 -61t-45 -69.5t-39.5 -87q-76 -195 -76 -408q0 -98 15.5 -193.5t50.5 -187.5 q20 -53 40.5 -95t46.5 -78t59.5 -67.5t78.5 -64.5q41 -31 74 -63.5t33 -89.5q0 -35 -22.5 -72t-63.5 -37t-88 15.5t-92.5 40t-85 54t-70.5 56.5q-92 82 -153.5 169t-98.5 183t-52.5 202.5t-15.5 227.5z" />
<glyph unicode=")" horiz-adv-x="983" d="M100 -319q0 57 33 89.5t74 63.5q45 33 78.5 64.5t59.5 67.5t46.5 78t40.5 95q35 92 50.5 187.5t15.5 193.5q0 213 -76 408q-18 49 -39 87t-45.5 69.5t-56 61.5t-74.5 60q-41 31 -74 65t-33 89q0 37 22.5 72.5t63.5 35.5q31 0 68 -10t74 -25.5t69.5 -35t57.5 -37.5 q59 -45 118.5 -106.5t102.5 -123.5q98 -141 132 -290.5t34 -319.5q0 -121 -15.5 -227.5t-52.5 -202.5t-98.5 -183t-153.5 -169q-31 -27 -70.5 -56.5t-84.5 -54t-92.5 -40t-88.5 -15.5t-63.5 37t-22.5 72z" />
<glyph unicode="*" horiz-adv-x="819" d="M90 946q0 31 14.5 49.5t36 28.5t47 15t48.5 10q2 0 13 2t24.5 5t24.5 8t11 11q0 8 -7 10t-13 2l-41 13q-25 2 -52.5 6t-51 14t-39 28.5t-15.5 51.5q0 39 24.5 68.5t63.5 29.5q37 0 67.5 -30.5t53.5 -55.5q2 -2 9 -10t15.5 -16t16.5 -15.5t12 -7.5q16 0 16.5 12.5 t-3.5 22.5l-29 92q-6 16 -9 27.5t-3 30.5q0 41 23.5 63.5t64.5 22.5t68.5 -19.5t27.5 -64.5q0 -20 -4 -38t-10 -36l-17 -43q-4 -10 -10 -24.5t-6 -26.5q0 -16 14 -17q8 0 12.5 5.5t8.5 9.5l26 28q23 25 57.5 57.5t71.5 32.5q35 0 62.5 -28.5t27.5 -63.5q0 -31 -15 -49 t-37.5 -30.5t-49.5 -18.5t-51 -8q-2 0 -13.5 -1t-23.5 -4t-21.5 -7.5t-9.5 -12.5q0 -6 8.5 -10t19.5 -6t20.5 -3t13.5 -1q25 -4 52.5 -8.5t51 -14.5t39.5 -29.5t16 -50.5q0 -39 -26.5 -69.5t-67.5 -30.5t-69.5 31.5t-53.5 60.5q-10 10 -22.5 26.5t-28.5 16.5q-14 0 -15 -10 t3 -21l16 -38q10 -29 21.5 -61t11.5 -60q0 -39 -27.5 -61.5t-64.5 -22.5q-92 0 -92 94q0 29 6 51.5t16 48.5l17 58q0 16 -15 16q-6 0 -16 -10l-25 -27q-25 -29 -54.5 -60.5t-72.5 -31.5t-67.5 26.5t-24.5 67.5z" />
<glyph unicode="+" horiz-adv-x="1228" d="M104 434v238h398v391h237v-391h398v-238h-398v-405h-237v405h-398z" />
<glyph unicode="," horiz-adv-x="655" d="M113 174q0 39 15 78t41 68.5t61.5 48t78.5 18.5q57 0 103.5 -25.5t79 -66.5t49 -93.5t16.5 -105.5q0 -104 -35 -201.5t-86 -185.5q-12 -20 -35.5 -57t-52.5 -73t-60.5 -62.5t-58.5 -26.5q-41 0 -59 25.5t-18 62.5q0 39 15 68.5t36 58.5q14 20 33.5 49t37 60.5t29.5 62.5 t12 53q0 23 -14 30t-33 13q-70 18 -112.5 73.5t-42.5 127.5z" />
<glyph unicode="-" horiz-adv-x="819" d="M61 553q0 82 41 111.5t119 29.5h377q78 0 119 -29.5t41 -111.5t-41 -111.5t-119 -29.5h-377q-78 0 -119 29.5t-41 111.5z" />
<glyph unicode="." horiz-adv-x="655" d="M121 166q0 45 16.5 84t46 67.5t68.5 45t82 16.5q45 0 84 -16.5t67.5 -45t46 -67.5t17.5 -84t-17.5 -84t-46 -67.5t-67.5 -45t-84 -16.5q-43 0 -82 16.5t-68.5 45t-46 67.5t-16.5 84z" />
<glyph unicode="/" horiz-adv-x="1474" d="M119 -371q0 14 9 36t21.5 44.5t24.5 42t21 31.5q193 324 368.5 641t349.5 641q14 27 34 66.5t40.5 79.5t40 77t37.5 60q31 41 66.5 53t82.5 12q14 0 38 -1t47.5 -7t41 -17.5t17.5 -31.5q0 -16 -10.5 -39t-23.5 -47.5t-27.5 -46t-22.5 -35.5l-141 -240 q-168 -299 -333 -594t-315 -594q-29 -55 -49 -91t-43.5 -56.5t-56.5 -28.5t-84 -8q-12 0 -34.5 1t-44 6t-38 15.5t-16.5 30.5z" />
<glyph unicode="0" d="M86 692q0 141 29.5 275.5t98.5 238t180.5 166t275.5 62.5q160 0 271.5 -61.5t180 -163t100 -233.5t31.5 -271q0 -59 -6 -125t-19.5 -132.5t-33.5 -129t-51 -113.5q-78 -129 -202 -190.5t-271 -61.5q-164 0 -274.5 62.5t-180.5 166t-99.5 236.5t-29.5 274zM440 692 q0 -125 19.5 -211t52.5 -139t74 -76.5t84 -23.5q41 0 82 23.5t73.5 76.5t53 139t20.5 211q0 137 -22.5 224.5t-56.5 137.5t-74.5 69.5t-75.5 19.5q-41 0 -82 -22.5t-74 -75t-53.5 -138.5t-20.5 -215z" />
<glyph unicode="1" d="M303 135q0 23 7 47.5t20.5 44t33 32.5t46.5 13q23 0 45 -7t47 -7q31 0 41 36t10 130v537q0 53 -3 85.5t-9 50t-15.5 23.5t-23.5 6q-25 0 -47.5 -7t-44.5 -7q-27 0 -46.5 12.5t-33 33t-20.5 45t-7 46.5q0 66 37 111t106 45q47 0 95.5 -10.5t97.5 -10.5q37 0 83 10.5 t93 10.5q59 0 75.5 -29.5t16.5 -118.5v-833q0 -94 10.5 -130t40.5 -36q25 0 47.5 7t45.5 7q27 0 46 -13t32.5 -32.5t20.5 -44t7 -47.5q0 -66 -37 -110.5t-106 -44.5q-78 0 -142.5 10t-138.5 10q-78 0 -155.5 -10t-155.5 -10q-51 0 -85 45t-34 110z" />
<glyph unicode="2" d="M78 268q0 104 40 184t105.5 143.5t149.5 109.5t170 83q39 16 88 36t92 46.5t72.5 63.5t29.5 88q0 35 -16 60.5t-42 42t-57.5 24.5t-60.5 8q-41 0 -79 -8t-72 -33q20 -25 30.5 -49.5t10.5 -56.5q0 -45 -17.5 -81t-46.5 -60.5t-66.5 -38t-78.5 -13.5q-47 0 -85 18.5 t-65.5 49t-43 70.5t-15.5 85q0 109 52 184.5t133 122t178.5 67t187.5 20.5q100 0 196.5 -24t172 -75t120.5 -133t45 -196q0 -111 -47 -188t-120.5 -130t-165 -90t-179.5 -63q-43 -14 -94 -31t-97 -41.5t-79 -60t-37 -87.5l4 -4q33 53 86 84t119 31t116 -26.5t95 -59.5 q43 -33 81 -59.5t79 -26.5q18 0 33.5 10t29.5 23q-55 6 -91 44t-36 95q0 33 13.5 61.5t36 49t51 33t61.5 12.5q51 0 91 -22.5t66.5 -59.5t40 -84t13.5 -94q0 -68 -24.5 -134.5t-67.5 -119t-103.5 -84t-132.5 -31.5q-80 0 -144.5 32.5t-113.5 73.5t-88 73t-67 32 q-14 0 -19.5 -10.5t-3.5 -51.5q0 -72 -54.5 -110.5t-121.5 -38.5q-63 0 -111.5 27.5t-81 72.5t-49 101.5t-16.5 113.5z" />
<glyph unicode="3" d="M63 367q0 45 16.5 88t45.5 75.5t68.5 52t89.5 19.5q80 0 137 -54t57 -136q0 -35 -15.5 -66t-37.5 -55q41 -35 90 -47.5t102 -12.5q47 0 95.5 12.5t86.5 37t62.5 64.5t24.5 95q0 49 -24.5 85t-65.5 61q-39 23 -83 30t-89 9q-57 2 -78 24.5t-21 79.5q0 27 3 43t9.5 30.5 t16.5 28t27 31.5l32 43l191 211h-277q-72 0 -93 -12t-21 -39q0 -25 9 -53.5t9 -63.5q0 -78 -44 -126t-126 -48q-70 0 -109.5 43t-39.5 113q0 53 8 105t8 106q0 41 -8 83t-8 83q0 55 35.5 76.5t82.5 21.5h867q41 0 68.5 -5t44 -18.5t23.5 -39t7 -68.5q0 -39 -5 -66.5 t-17.5 -50t-31 -45t-42.5 -49.5l-228 -236q78 -4 140.5 -35.5t107.5 -82t68.5 -118t23.5 -142.5q0 -133 -55 -227.5t-146 -154t-205 -87t-231 -27.5q-88 0 -188 19.5t-174 66.5q-86 53 -139.5 139t-53.5 189z" />
<glyph unicode="4" d="M74 500q0 66 27.5 121t62.5 108l368 571q20 31 39 57.5t54 43.5q39 18 92 25.5t96 7.5q68 0 110 -13.5t63.5 -35t28.5 -50t7 -59.5v-633h121q59 0 95 -28.5t36 -98.5q0 -59 -28.5 -98t-94.5 -39h-129q0 -61 11 -89t42 -28q23 0 43.5 4t42.5 4q27 0 46.5 -13t32.5 -32.5 t20.5 -44t7.5 -47.5q0 -66 -37 -109.5t-107 -43.5q-66 0 -129 10t-114 10q-68 0 -134.5 -10t-132.5 -10q-92 0 -133 44t-41 109q0 23 7.5 47.5t20.5 44t32.5 32.5t46.5 13q37 0 61.5 -4t46.5 -4q53 0 54 84v33h-514q-55 0 -88 24.5t-33 96.5zM444 643h263v420h-5z" />
<glyph unicode="5" d="M88 313q0 96 57.5 162t155.5 66q78 0 136.5 -44t58.5 -128q0 -31 -10.5 -52.5t-26.5 -46.5q39 -25 76.5 -34t85.5 -9q45 0 89 12.5t78.5 38t57 63.5t22.5 87q0 55 -24.5 95t-62.5 65.5t-86 39t-97 13.5q-74 0 -142.5 -22.5t-127.5 -22.5q-45 0 -80 18.5t-59.5 45 t-37 58.5t-10.5 60l49 531q4 47 26 71.5t93 24.5h748q43 0 76.5 -12.5t33.5 -65.5q0 -25 -3 -48.5t-3 -47.5q0 -25 3 -48.5t3 -47.5q0 -104 -45 -148.5t-110 -44.5q-55 0 -88 28.5t-50 82.5q-4 10 -9 24.5t-17 18.5q-20 8 -42 8h-44h-215q-23 0 -34 -6t-15 -41l-19 -172 q63 18 128 30.5t130 12.5q98 0 187.5 -33t157 -92.5t106.5 -143.5t39 -186q0 -129 -52.5 -226t-138.5 -163t-196.5 -98.5t-227.5 -32.5q-84 0 -172 19.5t-159 60.5q-78 43 -135.5 115.5t-57.5 164.5z" />
<glyph unicode="6" d="M88 653q0 66 8 136.5t26.5 140t46.5 134t64 118.5q92 129 228.5 190.5t290.5 61.5q68 0 138.5 -16.5t129.5 -51.5t97 -90t38 -135q0 -84 -52 -134.5t-138 -50.5q-31 0 -66 8.5t-59 30.5q-18 16 -31.5 42t-13.5 50q0 18 7 36t17 34q-43 12 -84 12q-74 0 -126 -32.5 t-84.5 -85t-48 -117t-13.5 -127.5q78 51 154.5 78.5t168.5 27.5q100 0 187.5 -34.5t153 -96t103.5 -147.5t38 -189q0 -117 -46 -209t-124 -155.5t-179.5 -96t-211.5 -32.5q-154 0 -269.5 56.5t-193.5 152.5t-117 223t-39 268zM475 436q0 -47 18.5 -85t49 -65.5t71.5 -43 t86 -15.5t86 15.5t72 43t49.5 65.5t18.5 85t-18.5 86t-49.5 66.5t-72 42t-86 14.5t-86 -14.5t-71.5 -42t-49 -66.5t-18.5 -86z" />
<glyph unicode="7" d="M80 913q0 53 11 108.5t11 108.5q0 41 -11 82t-11 82q0 55 32.5 97.5t90.5 42.5q66 0 86 -41t20 -97h4q41 80 113 109t158 29q82 0 141 -21.5t129 -56.5q16 -10 49 -25.5t53 -15.5q25 0 37.5 14t24.5 33q23 33 43 52.5t65 19.5q39 0 71 -18.5t52.5 -48.5t31.5 -65.5 t11 -72.5q0 -68 -20.5 -128.5t-54 -114.5t-76.5 -104.5t-88 -99.5t-89 -99t-78 -104.5t-54.5 -115t-20.5 -129.5q0 -59 10 -114.5t10 -110.5q0 -80 -56 -118t-128 -38q-68 0 -114 29.5t-73.5 78t-39.5 106.5t-12 114q0 152 53 254t133 186q82 82 177 156.5t183 171.5l-4 4 q-66 -35 -141 -35q-61 0 -116.5 22.5t-104.5 51.5q-47 29 -88 51t-74 22q-16 0 -37.5 -13t-21.5 -54q0 -37 16 -81t16 -91q0 -78 -44 -121t-122 -43q-154 0 -153 151z" />
<glyph unicode="8" d="M76 408q0 119 64 210t175 138q-86 37 -127 109.5t-41 164.5q0 104 47.5 180t123 125t168 74t184.5 25t185 -24t168 -74t123 -125.5t48 -180.5q0 -92 -41 -164.5t-127 -109.5q109 -47 173.5 -138.5t64.5 -209.5q0 -123 -53.5 -209t-138.5 -140.5t-190.5 -80t-211.5 -25.5 t-212 25.5t-191 80t-138 140.5t-53 209zM424 426q0 -51 20.5 -88t54 -60.5t78 -35t89.5 -11.5t89 11.5t79.5 36t58 61.5t22.5 88q0 47 -21.5 84t-56 61.5t-78.5 38t-87 13.5q-45 0 -89 -12.5t-80 -37t-57.5 -62.5t-21.5 -87zM502 1038q0 -72 51 -107.5t117 -35.5 q61 0 114.5 37t53.5 106q0 35 -15.5 60.5t-41 43t-56 27t-61.5 9.5q-63 0 -112.5 -36t-49.5 -104z" />
<glyph unicode="9" d="M82 915q0 109 41 206.5t117 172.5q78 78 180 109t211 31q158 0 273.5 -57.5t191 -155t112.5 -227.5t37 -275q0 -68 -8 -138.5t-26.5 -139t-47 -133t-69.5 -118.5q-92 -121 -232.5 -179t-290.5 -58q-61 0 -138 12t-144.5 42t-113.5 81t-46 129q0 43 17.5 78t46 58.5 t66.5 35.5t79 12q31 0 63.5 -9t57.5 -25q23 -16 43 -46t20 -61q0 -20 -6 -39q33 -12 68 -12q74 0 126 25.5t86.5 69.5t53 102.5t27.5 123.5q-72 -45 -146 -71.5t-160 -26.5q-106 0 -196 36t-154.5 99.5t-101.5 152.5t-37 195zM430 934q0 -45 17.5 -85t47 -68.5t69.5 -46 t85 -17.5t84 17.5t68.5 46t47 68.5t17.5 85t-17.5 84t-47 68.5t-68.5 47t-84 17.5t-85 -17.5t-69.5 -47t-47 -68.5t-17.5 -84z" />
<glyph unicode=":" horiz-adv-x="655" d="M121 166q0 45 16.5 84t46 67.5t68.5 45t82 16.5q45 0 84 -16.5t67.5 -45t46 -67.5t17.5 -84t-17.5 -84t-46 -67.5t-67.5 -45t-84 -16.5q-43 0 -82 16.5t-68.5 45t-46 67.5t-16.5 84zM121 772q0 45 16.5 84t46 67.5t68.5 45t82 16.5q45 0 84 -16.5t67.5 -45t46 -67.5 t17.5 -84t-17.5 -84t-46 -67.5t-67.5 -45t-84 -16.5q-43 0 -82 16.5t-68.5 45t-46 67.5t-16.5 84z" />
<glyph unicode=";" horiz-adv-x="655" d="M113 174q0 39 15 78t41 68.5t61.5 48t78.5 18.5q57 0 103.5 -25.5t79 -66.5t49 -93.5t16.5 -105.5q0 -104 -35 -201.5t-86 -185.5q-12 -20 -35.5 -57t-52.5 -73t-60.5 -62.5t-58.5 -26.5q-41 0 -59 25.5t-18 62.5q0 39 15 68.5t36 58.5q14 20 33.5 49t37 60.5t29.5 62.5 t12 53q0 23 -14 30t-33 13q-70 18 -112.5 73.5t-42.5 127.5zM113 772q0 43 16 82t46 68.5t69 46t84 16.5q43 0 82 -16.5t68.5 -46t46 -68.5t16.5 -82q0 -45 -16.5 -84t-46 -68.5t-68.5 -46t-82 -16.5q-45 0 -84 16.5t-69 46t-46 68.5t-16 84z" />
<glyph unicode="&#x3c;" horiz-adv-x="1228" d="M100 449v202l1043 465v-227l-742 -342l742 -332v-227z" />
<glyph unicode="=" horiz-adv-x="1228" d="M104 236v235h1033v-235h-1033zM104 635v235h1033v-235h-1033z" />
<glyph unicode="&#x3e;" horiz-adv-x="1228" d="M98 -12v227l742 332l-742 342v227l1043 -465v-202z" />
<glyph unicode="?" d="M98 1016q0 113 55.5 192.5t141.5 130t188.5 73t198.5 22.5q90 0 188.5 -18.5t176.5 -67.5q86 -55 139 -148.5t53 -198.5q0 -76 -26.5 -150.5t-79.5 -127.5q-25 -25 -59 -45.5t-71.5 -35.5t-76.5 -26.5t-72 -19.5q-41 -8 -61.5 -19.5t-22.5 -56.5q-2 -37 -11 -56.5 t-26.5 -28.5t-43 -10t-58.5 -3q-47 -2 -84 -1t-62.5 15.5t-40 44t-14.5 86.5q0 61 15.5 103.5t45 69t72.5 43t99 28.5q37 8 74.5 20.5t66 34t47 52t18.5 77.5q0 43 -20.5 75t-53 52.5t-72.5 30.5t-77 10q-47 0 -95 -12t-83 -47q29 -23 46 -51.5t17 -65.5q0 -43 -17 -79 t-46 -62.5t-67 -42t-78 -15.5q-102 0 -163 63.5t-61 164.5zM395 152q0 84 57.5 142t141.5 58t142.5 -58t58.5 -142t-58.5 -141.5t-142.5 -57.5t-141.5 57.5t-57.5 141.5z" />
<glyph unicode="@" horiz-adv-x="1515" d="M55 678q0 158 56.5 296t157 240.5t236.5 161t296 58.5q121 0 234.5 -39t211.5 -111q111 -84 167 -192.5t56 -249.5q0 -111 -34.5 -213.5t-112.5 -179.5q-29 -31 -66.5 -62t-80.5 -56.5t-89.5 -42t-89.5 -16.5q-37 0 -64.5 14.5t-46 39t-28.5 56.5t-12 64 q-49 -68 -104.5 -114.5t-143.5 -46.5q-53 0 -103.5 23.5t-86.5 60.5q-43 47 -61.5 100t-18.5 117q0 84 35.5 167t95 149.5t139.5 107.5t168 41q66 0 112 -35t56 -96h4l29 112h237l-160 -592q-4 -10 -6 -21t-2 -24q0 -16 5.5 -28.5t23.5 -12.5q20 0 42.5 15.5t44.5 36t40 43 t29 36.5q53 74 86.5 167t33.5 186q0 94 -47 178t-118 143q-80 70 -168 100.5t-195 30.5q-131 0 -242.5 -44t-194.5 -123t-130 -188.5t-47 -242.5q0 -139 50 -249.5t138 -187.5t205 -118t252 -41q139 0 258 71t196 183h160q-45 -90 -113.5 -162.5t-152.5 -125t-179 -81 t-196 -28.5q-156 0 -294 53t-242.5 148.5t-165 229.5t-60.5 294zM565 483q0 -20 3 -41.5t11.5 -40t23.5 -31t40 -12.5q29 0 56.5 19.5t50 47.5t41 57.5t30.5 52.5q14 29 27.5 66.5t24 77.5t16.5 79t6 73q0 20 -4 45t-14.5 46.5t-28 37t-41.5 15.5q-37 0 -68.5 -28.5 t-59.5 -74t-48.5 -101.5t-35.5 -110.5t-22.5 -101.5t-7.5 -76z" />
<glyph unicode="A" horiz-adv-x="1638" d="M-10 123q0 78 31.5 113.5t68.5 35.5q16 0 33.5 -2t36.5 -2q25 0 41 16.5t27.5 39t19.5 47t14 43.5l281 770q29 78 51 122t54 66.5t82 28.5t134 6q72 0 130.5 -3t90.5 -20q20 -10 32.5 -21t22 -27.5t16.5 -40t18 -58.5l249 -838q20 -66 35 -98.5t45 -32.5q16 0 31.5 2 t30.5 2q37 0 68.5 -32.5t31.5 -116.5q0 -61 -39 -102t-100 -41q-66 0 -120 10t-124 10q-68 0 -134.5 -10t-131.5 -10q-59 0 -98 37.5t-39 95.5q0 66 28.5 102.5t71.5 36.5q8 0 17.5 -1t21.5 -1q47 0 47 43q0 10 -2 18t-4 19q-4 16 -9.5 39.5t-13.5 36.5q-10 16 -25.5 18 t-37.5 2h-45h-189h-27q-43 0 -58 -5q-19 -7 -27 -20q-4 -6 -9.5 -21t-9.5 -31.5t-7 -32t-3 -23.5q0 -39 41 -39q12 0 19.5 -1t15.5 -1q16 0 33.5 -6t33 -22.5t24.5 -43t9 -67.5q0 -57 -39 -95t-98 -38q-66 0 -120 10t-124 10q-68 0 -134 -10t-132 -10q-59 0 -98 40.5 t-39 102.5zM733 719q0 -27 78 -27h55q55 0 72.5 6.5t17.5 22.5q0 10 -3 27.5t-7 27.5l-84 379h-4l-119 -414q-2 -6 -4 -11t-2 -11z" />
<glyph unicode="B" horiz-adv-x="1556" d="M25 135q0 23 7 47.5t20.5 44t32.5 32.5t46 13q23 0 45.5 -7t46.5 -7q29 0 40 36t11 130v537q0 100 -11 132.5t-40 32.5q-25 0 -47 -7t-45 -7q-27 0 -46 12.5t-32.5 33t-20.5 45t-7 46.5q0 33 11 61.5t36.5 49t70.5 33t113 12.5q72 0 136.5 -10.5t142.5 -10.5 q68 0 123 3.5t104 7.5t93 7t85 3q80 0 154.5 -12.5t140.5 -46.5q84 -45 129 -120t45 -171q0 -117 -72.5 -194t-185.5 -93v-4q147 -35 230 -124t83 -237q0 -129 -52 -210.5t-133 -129t-179.5 -65.5t-188.5 -18q-43 0 -84 3t-86 7t-97 7t-114 3q-45 0 -81.5 -3t-69.5 -7 t-64.5 -7t-66.5 -3q-129 0 -176 45t-47 110zM653 371q0 -66 42 -92.5t163 -26.5q39 0 77 10t68.5 29.5t49 50.5t18.5 74q0 51 -26.5 87t-70.5 58.5t-100.5 32.5t-115.5 10q-37 0 -58.5 -2t-32 -10t-12.5 -25.5t-2 -50.5v-145zM653 909q0 -37 17.5 -43t81.5 -6 q129 0 198.5 36t69.5 114q0 41 -22.5 66.5t-56.5 41t-72 21.5t-70 6q-51 0 -80 -6t-43 -19.5t-18.5 -38t-4.5 -61.5v-111z" />
<glyph unicode="C" horiz-adv-x="1392" d="M61 682q0 61 7.5 129t21.5 134.5t38 130t58 114.5q78 121 207 182.5t273 61.5q104 0 191 -34t159 -112l4 4q-1 11 -1 21q-1 45 29 75q36 37 99 37q59 0 95 -35.5t36 -95.5q0 -53 -8 -103t-8 -104q0 -41 8 -82.5t8 -82.5q0 -35 -15.5 -61.5t-40 -44t-55 -27t-61.5 -9.5 q-156 0 -156 151v11q1 13 1 24q0 28 -4 48q-5 28 -34 63q-33 39 -80 51.5t-94 12.5q-72 0 -125 -24.5t-89 -78t-53 -140.5t-17 -212q0 -236 71.5 -339t223.5 -103q41 0 84 9t73 38q37 35 44 69.5t7 81.5q0 35 3.5 65t23.5 60q20 31 54 44.5t71 13.5q100 0 146.5 -63.5 t46.5 -155.5q0 -117 -50.5 -202t-131.5 -140.5t-182 -83t-204 -27.5q-141 0 -270 44t-227 150q-47 49 -80 115t-54.5 136.5t-32 143t-10.5 140.5z" />
<glyph unicode="D" horiz-adv-x="1515" d="M25 135q0 23 7 47.5t20.5 44t32.5 32.5t46 13q23 0 45.5 -7t46.5 -7q33 0 42 39t9 127v537q0 55 -4 87.5t-10 50t-15 22.5t-22 5q-25 0 -47 -7t-45 -7q-27 0 -46 12.5t-32.5 33t-20.5 45t-7 46.5q0 66 36.5 111t106.5 45q74 0 137.5 -10.5t140.5 -10.5q63 0 115.5 3.5 t98 7.5t86 7t81.5 3q143 0 260 -46t209 -163q84 -104 125 -237.5t41 -266.5q0 -127 -38 -253t-111 -230q-88 -123 -207 -176t-266 -53q-57 0 -105.5 3t-93.5 7t-89 7t-93 3q-84 0 -145.5 -10t-133.5 -10q-78 0 -116.5 45t-38.5 110zM653 330q0 -18 4.5 -36t22.5 -28 q16 -10 40.5 -14t43.5 -4q72 0 131 39t98 98q43 66 60.5 155t17.5 165q0 84 -20.5 165.5t-71.5 149.5q-39 51 -94.5 84t-120.5 33q-37 0 -59.5 -5.5t-34 -20.5t-14.5 -42t-3 -70v-669z" />
<glyph unicode="E" horiz-adv-x="1515" d="M25 135q0 70 34.5 103.5t71.5 33.5q23 0 45.5 -7t46.5 -7q37 0 44 39t7 127v537q0 90 -9 127.5t-38 37.5t-52 -7t-52 -7q-25 0 -43.5 12.5t-30.5 33t-18 45t-6 46.5q0 66 36.5 111t108.5 45q37 0 71.5 -3t71.5 -7t78 -7.5t90 -3.5q174 0 379 11t408 10q86 0 118.5 -26.5 t32.5 -78.5q0 -55 -9 -106t-9 -98t9 -92.5t9 -92.5q0 -66 -48 -105.5t-111 -39.5q-78 0 -117 45t-39 119q0 39 9 74.5t9 72.5q0 20 -6 32.5t-23.5 19t-50 8.5t-84.5 2h-155q-49 0 -79 -3t-45 -15.5t-20.5 -36t-5.5 -62.5v-109q0 -35 12.5 -48t47.5 -13q55 0 73.5 19.5 t18.5 48.5q0 16 -2 30.5t-2 28.5q0 45 29.5 66.5t70.5 21.5q115 0 115 -109q0 -47 -8.5 -95t-8.5 -95q0 -66 8.5 -131.5t8.5 -130.5q0 -57 -26.5 -89t-86.5 -32q-47 0 -75.5 28.5t-28.5 75.5q0 16 2 32t2 32q0 29 -18.5 39t-71.5 10q-43 0 -51.5 -17.5t-8.5 -74.5v-107 q0 -51 6.5 -81.5t26 -46t57 -19.5t99.5 -4h102q86 0 144.5 19.5t58.5 84.5q0 35 -7 69t-7 69q0 74 40.5 122t126.5 48q78 0 115 -51.5t37 -123.5q0 -59 -8 -120.5t-8 -120.5q0 -41 8 -81t8 -81q0 -53 -36 -79.5t-85 -26.5q-158 0 -352.5 10t-437.5 10q-84 0 -158 -10 t-154 -10q-115 0 -159.5 45t-44.5 110z" />
<glyph unicode="F" horiz-adv-x="1474" d="M25 135q0 23 7 47.5t20.5 44t32.5 32.5t46 13q23 0 45.5 -7t46.5 -7q29 0 40 35t11 131v537q0 92 -9 128.5t-42 36.5q-25 0 -47 -7t-45 -7q-27 0 -46 12.5t-32.5 33t-20.5 45t-7 46.5q0 66 42 111t140 45q82 0 151.5 -10.5t159.5 -10.5q109 0 206 3t191.5 7.5t189.5 7.5 t200 3q47 0 76.5 -20.5t29.5 -71.5q0 -49 -8 -98.5t-8 -100.5q0 -47 8 -95t8 -95q0 -72 -40 -122t-116 -50q-80 0 -117.5 48t-37.5 124q0 37 6 71.5t6 71.5q0 41 -31.5 55.5t-109.5 14.5h-166q-47 0 -77 -3.5t-46 -14.5t-22.5 -31.5t-6.5 -53.5v-100q0 -57 11.5 -71.5 t29.5 -14.5q45 0 74 9t29 52q0 18 -2 36t-2 36q0 41 26.5 60.5t85.5 19.5q57 0 82 -27.5t25 -81.5q0 -53 -8.5 -98t-8.5 -111t8.5 -123t8.5 -122q0 -49 -24.5 -83t-82.5 -34q-59 0 -83.5 31.5t-24.5 87.5v43q0 37 -26 46t-54 9q-41 0 -52.5 -16.5t-11.5 -57.5v-145 q0 -72 14.5 -96.5t39.5 -24.5t47 7t45 7q25 0 44 -13t32.5 -32.5t20.5 -44t7 -47.5q0 -66 -37 -110.5t-106 -44.5q-39 0 -71 3t-63.5 7t-66.5 7t-80 3q-78 0 -155.5 -10t-155.5 -10q-70 0 -106.5 45t-36.5 110z" />
<glyph unicode="G" horiz-adv-x="1474" d="M61 662q0 203 48.5 348t130.5 239t192.5 139.5t233.5 45.5q106 0 202.5 -32t167.5 -116q4 55 35 89t90 34t92 -33t33 -92q0 -43 -7 -86t-7 -98q0 -43 7 -79t7 -79q0 -25 -13 -49.5t-34.5 -43t-51.5 -29.5t-63 -11q-86 0 -121.5 35t-54.5 131q-16 82 -74.5 124t-138.5 42 q-125 0 -202.5 -117t-77.5 -379q0 -190 67.5 -294.5t206.5 -104.5q74 0 129 38t55 115q0 37 -17 61.5t-56 24.5q-16 0 -32.5 -3t-33.5 -3q-51 0 -75.5 43t-24.5 86q0 66 43 103t104 37q70 0 137.5 -11.5t137.5 -11.5q61 0 121.5 11.5t119.5 11.5q57 0 105.5 -39t48.5 -115 t-32 -110.5t-64 -34.5q-16 0 -34 3t-30 3t-31.5 -23.5t-19.5 -79.5q0 -66 4 -121t4 -137q0 -74 -41 -107.5t-112 -33.5q-29 0 -56.5 5t-49 18.5t-34 35t-8.5 56.5q-72 -59 -155.5 -87t-176.5 -28q-127 0 -245.5 55t-200.5 154q-41 49 -68.5 109.5t-45 126t-26 133 t-8.5 131.5z" />
<glyph unicode="H" horiz-adv-x="1720" d="M25 135q0 23 7 47.5t19 44t30.5 32.5t41.5 13q16 0 29.5 -2t25.5 -4q12 -4 24.5 -6t28.5 -2q23 0 33 37t10 129v537q0 100 -11 132.5t-32 32.5q-29 0 -54 -7t-54 -7q-23 0 -41.5 12.5t-30.5 33t-19 45t-7 46.5q0 66 33.5 111t80.5 45q76 0 146.5 -10.5t160.5 -10.5 q78 0 139.5 10.5t137.5 10.5q51 0 76.5 -45t25.5 -111t-21.5 -101.5t-41.5 -35.5q-10 0 -19.5 2t-19.5 6q-10 2 -18.5 4t-18.5 2q-6 0 -12 -5t-10.5 -22.5t-7.5 -50t-3 -87.5v-99h432v99q0 55 -3 87.5t-7 50t-10 22.5t-12 5q-10 0 -18.5 -2t-18.5 -4q-10 -4 -19.5 -6 t-19.5 -2q-20 0 -42 36t-22 101q0 66 26 111t77 45q76 0 137 -10.5t139 -10.5q90 0 161 10.5t146 10.5q47 0 81 -45t34 -111q0 -23 -7 -47t-19.5 -44.5t-31 -33t-40.5 -12.5q-29 0 -54.5 7t-54.5 7q-23 0 -33 -32.5t-10 -132.5v-537q0 -92 10.5 -129t32.5 -37q16 0 28.5 2 t25.5 6q12 2 25 4t30 2q23 0 41 -13t30.5 -32.5t19.5 -44t7 -47.5q0 -66 -32.5 -110.5t-77.5 -44.5q-78 0 -156 10t-156 10q-92 0 -156.5 -10t-123.5 -10q-47 0 -73 45t-26 110q0 66 22.5 101.5t45.5 35.5q14 0 21.5 -2t15.5 -4q10 -4 17 -6t18 -2q16 0 24 34t8 132v162 h-432v-162q0 -98 8.5 -132t24.5 -34q14 0 35 8q10 2 18.5 4t18.5 2q23 0 45 -35.5t22 -101.5t-25.5 -110.5t-72.5 -44.5q-59 0 -123.5 10t-157.5 10q-78 0 -155.5 -10t-155.5 -10q-45 0 -77.5 45t-32.5 110z" />
<glyph unicode="I" horiz-adv-x="942" d="M25 135q0 23 7 47.5t19 44t30.5 32.5t41.5 13q16 0 29.5 -2t25.5 -4q12 -4 24.5 -6t28.5 -2q23 0 33 37t10 129v537q0 100 -11 132.5t-32 32.5q-29 0 -54 -7t-54 -7q-23 0 -41.5 12.5t-30.5 33t-19 45t-7 46.5q0 66 33.5 111t80.5 45q76 0 146.5 -10.5t160.5 -10.5 q80 0 158 10.5t156 10.5q70 0 106.5 -45t36.5 -111q0 -68 -33.5 -102.5t-72.5 -34.5q-10 0 -22.5 2t-22.5 6q-10 2 -22.5 4t-24.5 2q-29 0 -40.5 -32.5t-11.5 -132.5v-537q0 -98 10.5 -132t41.5 -34q12 0 24 2t23 6q10 2 22 4t23 2q27 0 46 -13t32.5 -32.5t20.5 -44t7 -47.5 q0 -66 -37 -110.5t-106 -44.5q-78 0 -156 10t-158 10q-78 0 -155.5 -10t-155.5 -10q-45 0 -77.5 45t-32.5 110z" />
<glyph unicode="J" d="M-12 387q0 74 27.5 139.5t75.5 114.5t112.5 78t138.5 29q47 0 95 -16.5t86 -45.5t62.5 -72t24.5 -94q0 -35 -12 -67.5t-33.5 -58t-51.5 -41t-67 -15.5q-49 0 -73.5 18.5t-44.5 61.5q-10 -16 -17.5 -29.5t-7.5 -32.5q0 -37 17.5 -61.5t45 -39.5t60.5 -22.5t63 -7.5 q53 0 104.5 16.5t86.5 59.5q45 57 53 121.5t8 136.5v402q0 100 -11 132.5t-32 32.5q-29 0 -54.5 -7t-53.5 -7q-23 0 -41.5 12.5t-30.5 33t-19 45t-7 46.5q0 66 33.5 111t80.5 45q76 0 146.5 -10.5t160.5 -10.5q80 0 158 10.5t156 10.5q70 0 106.5 -45t36.5 -111 q0 -68 -33.5 -102.5t-72.5 -34.5q-10 0 -22.5 2t-22.5 6q-10 2 -22.5 4t-25.5 2q-29 0 -40 -32.5t-11 -132.5v-469q0 -66 -5 -120.5t-21.5 -102.5t-48 -92t-84.5 -87q-92 -74 -203 -105.5t-228 -31.5q-96 0 -193 26.5t-175 81t-126 135t-48 191.5z" />
<glyph unicode="K" horiz-adv-x="1679" d="M25 135q0 23 7 47.5t19 44t30.5 32.5t41.5 13q16 0 29.5 -2t25.5 -4q12 -4 24.5 -6t28.5 -2q23 0 33 37t10 129v537q0 100 -11 132.5t-32 32.5q-29 0 -54 -7t-54 -7q-23 0 -41.5 12.5t-30.5 33t-19 45t-7 46.5q0 66 33.5 111t80.5 45q76 0 146.5 -10.5t160.5 -10.5 q78 0 139.5 10.5t137.5 10.5q51 0 76.5 -45t25.5 -111t-21.5 -101.5t-41.5 -35.5q-10 0 -19.5 2t-19.5 6q-10 2 -18.5 4t-18.5 2q-6 0 -12 -5t-10.5 -22.5t-7.5 -50t-3 -87.5v-183l287 266q31 29 49.5 46.5t28.5 30t13 20.5t3 20q0 14 -5 18.5t-15 14.5q-23 18 -36 40.5 t-13 53.5q0 55 39.5 86t93.5 31q53 0 108.5 -10.5t112.5 -10.5q63 0 107 10.5t98 10.5q68 0 107.5 -39t39.5 -106q0 -63 -25.5 -105.5t-62.5 -42.5q-23 0 -41 8t-41 8q-18 0 -34.5 -10t-51.5 -39l-209 -180q-51 -45 -66.5 -62.5t-15.5 -33.5q0 -14 9.5 -31.5t37.5 -64.5 l203 -340q35 -59 59.5 -81t47.5 -22q20 0 37.5 4t33.5 4q41 0 71 -34.5t30 -114.5q0 -61 -39 -102t-101 -41q-53 0 -96 10t-108 10q-57 0 -112.5 -10t-109.5 -10q-66 0 -106.5 32.5t-40.5 85.5q0 33 12.5 52.5t27.5 33t28.5 24.5t13.5 30q0 16 -8 33.5t-17 31.5l-108 193 q-29 49 -41 68.5t-27 19.5q-10 0 -17 -6.5t-13 -12.5l-138 -141q0 -98 8.5 -132t24.5 -34q10 0 20.5 2t20.5 6t17.5 5t21.5 1q27 0 43 -42t16 -95q0 -66 -25.5 -110.5t-72.5 -44.5q-59 0 -123.5 10t-157.5 10q-78 0 -155.5 -10t-155.5 -10q-45 0 -77.5 45t-32.5 110z" />
<glyph unicode="L" horiz-adv-x="1392" d="M25 135q0 23 7 47.5t19 44t30.5 32.5t41.5 13q16 0 29.5 -2t25.5 -4q12 -4 24.5 -6t28.5 -2q23 0 33 37t10 129v537q0 100 -11 132.5t-32 32.5q-29 0 -54 -7t-54 -7q-23 0 -41.5 12.5t-30.5 33t-19 45t-7 46.5q0 66 33.5 111t80.5 45q76 0 149.5 -10.5t178.5 -10.5 q55 0 129 10.5t152 10.5q80 0 118.5 -45t38.5 -111q0 -23 -7 -47t-20.5 -44.5t-34 -33t-46.5 -12.5q-10 0 -22.5 2t-22.5 6q-10 2 -22.5 4t-24.5 2t-21.5 -4t-15.5 -20.5t-10.5 -50t-4.5 -90.5v-539q0 -55 4.5 -89t18.5 -53.5t44 -26.5t79 -7h121q76 0 117.5 22.5t41.5 81.5 q0 39 -9 76t-9 78q0 74 56.5 113.5t123.5 39.5q80 0 122 -46t42 -124q0 -53 -7 -106t-7 -107q0 -45 7 -90t7 -90q0 -68 -36 -91t-99 -23q-166 0 -370 8t-433 12q-94 0 -174 -10t-158 -10q-51 0 -80.5 45t-29.5 110z" />
<glyph unicode="M" horiz-adv-x="2170" d="M25 135q0 70 35.5 103.5t70.5 33.5q23 0 45.5 -7t46.5 -7q12 0 21.5 5t16.5 22.5t10 50.5t3 88v537q0 102 -12 133.5t-39 31.5q-25 0 -47 -7t-45 -7q-49 0 -77.5 42t-28.5 95q0 66 43 111t151 45q78 0 156 -10.5t155 -10.5q74 0 138.5 10.5t142.5 10.5q27 0 44 -5 t30.5 -22.5t24 -47.5t22.5 -79l166 -710h4l172 680q27 100 57.5 142t98.5 42q78 0 155.5 -10.5t155.5 -10.5q86 0 156.5 10.5t123.5 10.5q70 0 107 -45t37 -111q0 -23 -7.5 -47t-20.5 -44.5t-32.5 -33t-46.5 -12.5q-23 0 -45 7t-47 7q-12 0 -22.5 -5t-16.5 -22.5t-9 -50 t-3 -87.5v-537q0 -102 10 -134t41 -32q25 0 47.5 7t44.5 7q27 0 46.5 -13t32.5 -32.5t20.5 -44t7.5 -47.5q0 -66 -37 -110.5t-107 -44.5q-66 0 -121 10t-126 10q-86 0 -149.5 -10t-117.5 -10q-59 0 -85.5 45t-26.5 110q0 23 4 47.5t12 44t20.5 32.5t26.5 13q23 0 40.5 -7 t39.5 -7q16 0 22.5 36t6.5 130v706h-4l-279 -970q-23 -78 -50.5 -119t-72.5 -41h-139q-29 0 -46.5 7t-30.5 25.5t-24.5 49.5t-23.5 78l-270 970h-4v-706q0 -92 10 -129t29 -37q16 0 31.5 7t31.5 7q18 0 31.5 -13t22.5 -32.5t13.5 -44t4.5 -47.5q0 -66 -26 -110.5t-73 -44.5 q-66 0 -124 10t-123 10q-68 0 -134.5 -10t-132.5 -10q-82 0 -120.5 45t-38.5 110z" />
<glyph unicode="N" horiz-adv-x="1802" d="M25 135q0 37 10 63.5t26.5 43t35 23.5t34.5 7q23 0 45.5 -7t46.5 -7q35 0 43 39t8 127v537q0 96 -11 130.5t-40 34.5q-25 0 -47 -7t-45 -7q-41 0 -73.5 40t-32.5 97q0 66 42 111t142 45q63 0 128.5 -10.5t133.5 -10.5q57 0 120.5 10.5t127.5 10.5q51 0 74.5 -32t42.5 -73 l385 -911h4v572q0 14 1 41.5t-3 55t-15.5 48t-33.5 20.5q-25 0 -47.5 -7t-45.5 -7q-27 0 -46 12.5t-32.5 33t-20.5 45t-7 46.5q0 66 39 111t125 45q63 0 128.5 -10.5t133.5 -10.5q57 0 120.5 10.5t127.5 10.5q70 0 106.5 -45t36.5 -111q0 -59 -29.5 -98t-76.5 -39 q-23 0 -45.5 7t-47.5 7q-29 0 -40 -32.5t-11 -132.5v-809q0 -25 -2 -54.5t-12 -52.5q-14 -29 -40 -42t-54 -13h-283q-27 0 -50.5 3t-41.5 23t-35.5 55t-30.5 62l-397 879h-4v-588q0 -94 8 -130t43 -36q25 0 47.5 7t44.5 7q27 0 46.5 -13t32.5 -32.5t20.5 -44t7.5 -47.5 q0 -66 -37 -110.5t-107 -44.5q-63 0 -126.5 10t-120.5 10q-68 0 -133.5 -10t-129.5 -10q-82 0 -122.5 46t-40.5 109z" />
<glyph unicode="O" horiz-adv-x="1474" d="M61 698q0 63 8.5 131t25 134.5t44 128t66.5 114.5q88 117 227.5 172.5t282.5 55.5t276 -44t230 -159q92 -109 132 -252t40 -283q0 -66 -8.5 -134t-26 -135t-45 -130.5t-66.5 -114.5q-90 -119 -228 -174t-286 -55q-145 0 -278 44t-232 161q-43 51 -73.5 117.5t-50 137 t-29 144.5t-9.5 141zM455 694q0 -242 65.5 -344t206.5 -102t206.5 103.5t65.5 330.5q0 248 -66.5 352.5t-201.5 104.5q-55 0 -105.5 -17.5t-88 -66.5t-60 -136.5t-22.5 -224.5z" />
<glyph unicode="P" horiz-adv-x="1433" d="M25 135q0 23 7 47.5t20.5 44t32.5 32.5t46 13q23 0 45.5 -7t46.5 -7q29 0 40 35t11 131v537q0 96 -10 130.5t-41 34.5q-25 0 -47 -7t-45 -7q-27 0 -46 12.5t-32.5 33t-20.5 45t-7 46.5q0 66 43 111t153 45q72 0 139.5 -10.5t139.5 -10.5q82 0 141 3.5t102 7.5t76 7t62 3 q90 0 190 -32t172 -91q78 -66 115 -159t37 -193q0 -104 -37 -192.5t-115 -153.5q-88 -76 -185 -101.5t-210 -25.5h-105q-28 2 -46 2q-23 0 -31 -3q-14 -5 -15 -32q0 -94 11.5 -130t48.5 -36q29 0 55.5 7t54.5 7q31 0 54.5 -13t39 -32.5t23.5 -44t8 -47.5q0 -66 -44 -110.5 t-124 -44.5q-78 0 -145.5 10t-134.5 10q-78 0 -156 -10t-156 -10q-84 0 -122.5 45t-38.5 110zM653 813q0 -29 1 -45t9.5 -25.5t26 -12.5t49.5 -3q82 0 133.5 15.5t81 43t40 63.5t10.5 77q0 53 -18.5 88t-52.5 54t-82 26.5t-106 7.5q-33 0 -51 -6t-27.5 -18.5t-11.5 -31 t-2 -40.5v-193z" />
<glyph unicode="Q" horiz-adv-x="1433" d="M61 688q0 137 34 276.5t120 247.5q92 115 228.5 168.5t281.5 53.5q170 0 295 -57.5t207 -158t122 -237.5t40 -297q0 -102 -17.5 -199.5t-57.5 -184.5t-105.5 -157.5t-161.5 -119.5q16 -102 63 -103q29 0 39 20.5t19.5 44t30 44t71.5 20.5q66 0 98.5 -45t32.5 -104 q0 -68 -27.5 -116t-73 -79t-102.5 -45t-117 -14q-63 0 -135 19.5t-119 66.5q-41 41 -58 98t-28 123q-23 -2 -47 -2q-37 0 -76 4q-67 6 -136.5 28.5t-135 62.5t-119.5 104q-45 53 -76.5 118.5t-51 135t-29 142t-9.5 142.5zM455 657q0 -57 6 -123.5t26.5 -126t61.5 -103.5 t110 -56q-4 35 -19 54.5t-32.5 35.5t-31 37.5t-13.5 60.5q0 33 14.5 57.5t37 40t51 23.5t57.5 8q98 0 149.5 -61.5t59.5 -151.5q47 68 55 151t8 165q0 131 -17 221t-50 145.5t-82 80t-113 24.5q-66 0 -118 -23.5t-87.5 -80t-54 -149t-18.5 -229.5z" />
<glyph unicode="R" horiz-adv-x="1597" d="M25 135q0 23 7 47.5t20.5 44t32.5 32.5t46 13q12 0 23.5 -2t21.5 -4q12 -4 23.5 -6t23.5 -2q33 0 42 34t9 132v537q0 96 -10 130.5t-41 34.5q-25 0 -47 -7t-45 -7q-27 0 -46 12.5t-32.5 33t-20.5 45t-7 46.5q0 66 36.5 111t108.5 45t151.5 -10.5t184.5 -10.5 q68 0 124 3.5t109.5 7.5t108.5 7t117 3q92 0 170.5 -25.5t136 -71.5t90.5 -114t33 -150q0 -76 -21.5 -130t-60.5 -91t-95.5 -59.5t-123.5 -34.5v-4q131 -16 204.5 -79.5t73.5 -205.5v-90q0 -45 7 -64.5t38 -19.5q16 0 31.5 3t32.5 3q20 0 37.5 -13t30 -32.5t19.5 -44 t7 -47.5q0 -66 -37 -110.5t-106 -44.5q-33 0 -62 10t-63 10q-41 0 -73 -10t-67 -10q-57 0 -92 22.5t-54.5 58t-25.5 80.5t-6 88q0 31 2 66t2 76q0 63 -20.5 101t-55 57.5t-82 24.5t-100.5 5q-37 0 -59.5 -15.5t-22.5 -66.5v-96q4 -72 14.5 -97.5t37.5 -25.5q12 0 24 2t23 6 q10 2 22 4t23 2q27 0 46 -13t32.5 -32.5t20.5 -44t7 -47.5q0 -66 -37 -110.5t-106 -44.5q-59 0 -127 10t-154 10q-78 0 -155.5 -10t-155.5 -10q-70 0 -106.5 45t-36.5 110zM653 899q0 -45 17.5 -61.5t64.5 -16.5q80 0 131.5 14.5t82 38t41.5 53t11 58.5q0 41 -17 67.5 t-44 43t-59.5 23.5t-63.5 7q-49 0 -80.5 -3t-50 -13t-26 -28.5t-7.5 -49.5v-133z" />
<glyph unicode="S" horiz-adv-x="1269" d="M61 102q0 49 4.5 98.5t4.5 100.5q0 37 -4.5 73t-4.5 72q0 33 15.5 57.5t39 39t53.5 21.5t58 7q72 0 110 -45t50 -123q4 -23 16.5 -50t38 -52t70.5 -41t113 -16q37 0 72.5 8t63 26.5t45 47t17.5 71.5q0 82 -69 115q-45 20 -99.5 34.5t-101.5 26.5q-86 20 -160 41t-147 76 q-78 59 -115 135t-37 174q0 102 37 183.5t99.5 136.5t148.5 85t184 30q96 0 188.5 -34t149.5 -114l4 4v8q-1 57 25 85q28 30 98 30q59 0 95 -27.5t36 -89.5q0 -47 -6 -84.5t-6 -78.5q0 -31 6 -60t6 -69q0 -53 -31.5 -94.5t-113.5 -41.5q-80 0 -112 44t-44 104 q-12 61 -67.5 99t-167.5 38q-55 0 -105.5 -30.5t-50.5 -96.5q0 -25 7 -45t30.5 -37.5t67.5 -33t118 -27.5q94 -16 184.5 -46t162 -80t115.5 -127t44 -190t-40 -203t-110.5 -153.5t-165 -97t-202.5 -33.5q-201 0 -361 135q0 -57 -34.5 -87t-89.5 -30q-131 0 -132 131z" />
<glyph unicode="T" horiz-adv-x="1433" d="M16 924q0 51 5.5 102t5.5 102q0 47 -5.5 94.5t-5.5 94.5t29 67.5t76 20.5q51 0 108.5 -3t128 -7t157.5 -7.5t200 -3.5q111 0 197.5 3t157.5 7.5t127 7.5t110 3q47 0 75.5 -20.5t28.5 -67.5t-5 -94t-5 -95q0 -51 5 -102t5 -102q-4 -74 -44 -122t-118 -48q-86 0 -121.5 52 t-35.5 130q0 35 6 66.5t6 64.5q0 39 -32 55.5t-64 16.5q-59 0 -82 -34t-23 -130v-549q0 -78 12.5 -122t51.5 -44q31 0 58.5 7t55.5 7q33 0 57.5 -13t41 -32.5t24.5 -44t8 -47.5q0 -66 -46 -111.5t-132 -45.5q-78 0 -155.5 10t-163.5 10q-88 0 -166 -10t-156 -10 q-86 0 -132 46t-46 111q0 23 8 47.5t24.5 44t41 32.5t57.5 13q29 0 56.5 -7t58.5 -7q39 0 51 44t12 122v549q0 96 -22.5 130t-81.5 34q-33 0 -64.5 -16.5t-31.5 -55.5q0 -33 6 -64.5t6 -66.5q0 -78 -36 -130t-122 -52q-78 0 -118 48t-44 122z" />
<glyph unicode="U" horiz-adv-x="1679" d="M10 1251q0 66 33 110t78 44q78 0 155.5 -10.5t155.5 -10.5q74 0 138.5 10.5t142.5 10.5q47 0 72.5 -44t25.5 -110q0 -23 -4 -47t-13.5 -44.5t-22.5 -33t-32 -12.5q-10 0 -30 8q-8 2 -15.5 4t-17.5 2q-16 0 -23.5 -20.5t-10.5 -48t-3 -54v-40.5v-420q0 -45 2 -95.5 t21 -91.5q27 -59 78 -80.5t104 -21.5q70 0 111.5 18.5t64 54.5t31 90t8.5 126v420q0 98 -8.5 130.5t-28.5 32.5q-8 0 -16.5 -2t-16.5 -4q-20 -8 -31 -8q-18 0 -31.5 12.5t-22.5 33t-13 45t-4 46.5q0 63 31.5 108.5t115.5 45.5q66 0 132.5 -10.5t133.5 -10.5q63 0 121 10.5 t123 10.5q70 0 107 -44t37 -110q0 -23 -7.5 -47t-20.5 -44.5t-32.5 -33t-46.5 -12.5q-10 0 -22.5 2t-22.5 6q-10 2 -22.5 4t-24.5 2q-10 0 -19.5 -5t-16.5 -21.5t-11 -49t-4 -87.5v-451q0 -66 -3 -124t-17.5 -110.5t-45.5 -99.5t-86 -92q-94 -78 -214 -106.5t-236 -28.5 q-55 0 -113.5 5t-116 19.5t-110 37t-97.5 59.5q-53 43 -81.5 92t-41 104.5t-14.5 115.5t-2 124v455q0 88 -8 125.5t-43 37.5q-12 0 -23.5 -2t-23.5 -4q-10 -4 -21.5 -6t-23.5 -2q-27 0 -46.5 12.5t-32.5 33t-20.5 45t-7.5 46.5z" />
<glyph unicode="V" horiz-adv-x="1638" d="M-14 1247q0 68 41 113t133 45q66 0 132 -10.5t134 -10.5q51 0 114.5 10.5t129.5 10.5q70 0 106.5 -45t36.5 -113q0 -23 -7 -47t-20.5 -44.5t-33 -33t-45.5 -12.5q-8 0 -25 8q-16 8 -27 8q-31 0 -30 -32q0 -18 6 -40t10 -38l178 -662h4l191 662l11 38.5t7 39.5q0 20 -7 26 t-17 6q-6 0 -13.5 -2t-17.5 -6q-20 -8 -31 -8q-23 0 -41 12.5t-30.5 33t-19.5 45t-7 46.5q0 68 37 113t104 45q66 0 132.5 -10.5t133.5 -10.5q51 0 115 10.5t129 10.5q70 0 106.5 -45t36.5 -113q0 -23 -7 -47t-20 -44.5t-32.5 -33t-46.5 -12.5q-14 0 -35 8q-10 4 -17 6 t-18 2q-25 0 -36 -16t-19 -37l-59 -155l-234 -715q-41 -121 -79 -172t-101 -51q-35 0 -63.5 10t-59.5 10t-62.5 -10t-72.5 -10q-63 0 -107 69q-12 18 -23 44t-22.5 54.5t-21.5 55t-17 49.5l-268 833q-12 39 -55 39q-18 0 -36.5 -7t-37.5 -7q-27 0 -46 12.5t-32.5 33 t-20.5 45t-7 46.5z" />
<glyph unicode="W" horiz-adv-x="2129" d="M-10 1247q0 68 33.5 113t80.5 45q53 0 118 -10.5t132 -10.5q70 0 124 10.5t120 10.5q70 0 106.5 -45t36.5 -113q0 -23 -7 -47t-20.5 -44.5t-32.5 -33t-46 -12.5q-14 0 -26.5 7t-26.5 7q-16 0 -24.5 -11t-8.5 -28q0 -14 3 -32.5t7 -30.5l127 -678h4l133 889 q4 27 10.5 65.5t16.5 61.5q16 45 65 45q41 0 81 -10.5t81 -10.5q45 0 77 10.5t73 10.5q25 0 39 -7t24 -30q10 -25 17.5 -65.5t11.5 -69.5l135 -889h4l123 678q4 12 6 30.5t2 32.5q0 39 -35 39q-14 0 -26 -7t-25 -7q-27 0 -46 12.5t-32.5 33t-20.5 45t-7 46.5q0 68 31.5 113 t68.5 45q66 0 132.5 -10.5t133.5 -10.5q51 0 115 10.5t129 10.5q70 0 106.5 -45t36.5 -113q0 -23 -7 -47t-20.5 -44.5t-32.5 -33t-46 -12.5q-16 0 -32.5 4t-33.5 4q-33 0 -45 -33q-8 -23 -17 -59.5t-15 -60.5l-175 -781q-4 -14 -8 -35.5t-10 -44t-12 -44t-13 -33.5 q-14 -29 -34.5 -38t-51.5 -9q-41 0 -75.5 10t-73.5 10q-41 0 -81 -10t-81 -10q-45 0 -67 55q-16 41 -24.5 90t-14.5 92l-109 715h-4l-109 -715q-6 -37 -13 -85t-19 -83t-28.5 -52t-55.5 -17q-41 0 -76 10t-74 10q-41 0 -81 -10t-81 -10q-20 0 -38.5 8t-32.5 32 q-6 12 -13.5 34t-13.5 46.5t-12 47t-8 36.5l-174 781q-4 25 -12.5 59.5t-16.5 56.5q-14 37 -49 37q-16 0 -31.5 -4t-32.5 -4q-27 0 -46 12.5t-32.5 33t-20.5 45t-7 46.5z" />
<glyph unicode="X" horiz-adv-x="1556" d="M-6 135q0 23 7 47.5t20.5 44t33 32.5t45.5 13q18 0 37 -4t37 -4q33 0 57.5 31t40.5 55l238 332l-199 301q-10 14 -25.5 37.5t-34 44t-38.5 36t-41 15.5q-18 0 -37.5 -2t-42.5 -2t-41 12.5t-30.5 33t-19.5 45t-7 46.5q0 66 37 111t106 45q61 0 124 -10.5t126 -10.5 q57 0 110.5 10.5t114.5 10.5q66 0 101 -43t35 -105q0 -35 -9.5 -55t-40.5 -37q-12 -8 -28.5 -21.5t-16.5 -25.5q0 -23 10.5 -44t28.5 -56l92 -168l109 170q23 35 35 56.5t12 37.5q0 14 -14.5 22.5t-31.5 20.5t-31.5 31.5t-14.5 58.5q0 59 25.5 108.5t62.5 49.5 q61 0 123.5 -10.5t126.5 -10.5q66 0 115 10.5t110 10.5q70 0 106.5 -45t36.5 -111q0 -23 -7 -47t-20.5 -44.5t-32.5 -33t-46 -12.5q-14 0 -28.5 2t-30.5 2q-25 0 -46.5 -18.5t-56.5 -63.5l-233 -321l225 -351q35 -51 54.5 -73.5t45.5 -22.5q18 0 36 4t34 4q27 0 46 -13 t32.5 -32.5t20.5 -44t7 -47.5q0 -66 -36.5 -110.5t-106.5 -46.5q-61 0 -113.5 10t-111.5 10q-63 0 -126 -10t-124 -10q-55 0 -85 43t-30 96q0 49 17.5 71.5t37 34t37 20.5t17.5 31q0 10 -5 21.5t-20 34.5l-121 209l-108 -166q-4 -8 -13.5 -22.5t-18.5 -30t-16 -29.5t-7 -23 q0 -18 10 -25t24 -16q39 -23 53.5 -43t14.5 -67q0 -61 -30.5 -100t-96.5 -39q-61 0 -120.5 10t-104.5 10q-63 0 -126 -10t-124 -10q-57 0 -92 45t-35 110z" />
<glyph unicode="Y" horiz-adv-x="1597" d="M-12 1249q0 66 37.5 111t115.5 45q61 0 124 -10.5t126 -10.5q57 0 110.5 10.5t114.5 10.5q72 0 104 -48t32 -114q0 -41 -15.5 -59.5t-33 -28.5t-33 -18.5t-15.5 -28.5q0 -16 10.5 -41t32.5 -66l105 -204l112 204l34 59.5t14 47.5t-14.5 31t-31 18t-31 29.5t-14.5 66.5 q0 70 35 111t82 41q61 0 124 -10.5t126 -10.5t113.5 10.5t111.5 10.5q70 0 107 -45t37 -111q0 -23 -7.5 -47t-20.5 -44.5t-32.5 -33t-46.5 -12.5q-23 0 -42 5t-42 5q-16 0 -29.5 -4t-25.5 -18q-16 -20 -33.5 -48t-34.5 -51l-252 -401q-39 -61 -52 -91t-13 -56v-121 q0 -35 18.5 -54.5t51.5 -19.5q31 0 60.5 7t57.5 7q27 0 46.5 -13t32.5 -32.5t20.5 -44t7.5 -47.5q0 -66 -37 -110.5t-107 -44.5q-39 0 -71.5 3t-66.5 7t-68.5 7t-77.5 3q-78 0 -155 -10t-154 -10q-115 0 -160 45t-45 110q0 23 7 47.5t20.5 44t33 32.5t45.5 13q31 0 60.5 -7 t60.5 -7q27 0 42 17.5t15 58.5v80q0 27 -4 45t-11 36.5t-20.5 40t-31.5 52.5l-238 391q-12 20 -34.5 57t-38.5 56q-24 26 -58 26h-2q-23 0 -41 -3t-41 -3q-27 0 -46 12.5t-32.5 33t-20.5 45t-7 46.5z" />
<glyph unicode="Z" horiz-adv-x="1310" d="M31 125q0 39 16 73.5t41 69.5l664 885h-230q-80 0 -105.5 -15.5t-25.5 -70.5q0 -29 4 -55.5t4 -55.5q0 -66 -46 -106.5t-109 -40.5q-76 0 -117 40t-41 118q0 45 5 89t5 89q0 41 -5 82t-5 82q0 33 8 52t26.5 28.5t50.5 12.5t79 3h880q66 0 100 -40t34 -103 q0 -55 -29 -101.5t-61 -87.5l-639 -825h260q33 0 74.5 1t72.5 9t39 25.5t8 46.5q0 37 -5 73.5t-5 75.5q0 74 45 115t117 41t110.5 -48t38.5 -116q0 -49 -7 -98t-7 -99q0 -43 7 -86t7 -86q0 -61 -41 -86.5t-106 -25.5h-957q-68 0 -111.5 31.5t-43.5 103.5z" />
<glyph unicode="[" horiz-adv-x="983" d="M180 -211v1534q0 37 22.5 57.5t80.5 20.5h462q61 0 93 -22.5t32 -102.5q0 -47 -23.5 -85t-76.5 -38q-41 0 -80 8t-80 8t-66.5 -26.5t-25.5 -81.5v-1006q0 -57 5 -92t15.5 -54.5t29 -25.5t42.5 -6q41 0 80 8.5t80 8.5q53 0 76.5 -38t23.5 -85q0 -66 -26.5 -95.5 t-79.5 -29.5h-481q-37 0 -57.5 8t-31 24.5t-12.5 44t-2 66.5z" />
<glyph unicode="\" horiz-adv-x="1228" d="M102 1405h271l764 -1415h-271z" />
<glyph unicode="]" horiz-adv-x="983" d="M113 -229q0 47 23.5 85t76.5 38q41 0 80 -8.5t80 -8.5q25 0 43 6t28.5 25.5t15.5 54.5t5 92v1006q0 55 -25.5 81.5t-66.5 26.5t-80 -8t-80 -8q-53 0 -76.5 38t-23.5 85q0 80 31.5 102.5t93.5 22.5h462q57 0 80 -20.5t23 -57.5v-1534q0 -39 -2 -66.5t-12.5 -44t-31 -24.5 t-57.5 -8h-481q-53 0 -79.5 29.5t-26.5 95.5z" />
<glyph unicode="^" horiz-adv-x="1228" d="M106 586l392 819h245l392 -819h-261l-253 522l-254 -522h-261z" />
<glyph unicode="_" horiz-adv-x="1024" d="M0 -154h1024v-102h-1024v102z" />
<glyph unicode="`" horiz-adv-x="819" d="M100 1397q0 27 9.5 52.5t26 47t40 34.5t51.5 13q35 0 71 -15.5t67 -31.5l151 -82q18 -10 43 -22.5t45.5 -27.5t34.5 -35.5t14 -47.5q0 -39 -25.5 -80t-70.5 -41q-33 0 -77 14.5t-74 26.5l-144 58q-23 8 -51.5 19t-53 27.5t-41 38t-16.5 52.5z" />
<glyph unicode="a" horiz-adv-x="1228" d="M55 260q0 121 47.5 186.5t118 99.5t152.5 47t152.5 28.5t117.5 45t47 97.5q0 59 -44 87t-95 28q-27 0 -47.5 -8.5t-20.5 -39.5v-36q0 -35 -15 -61.5t-40 -43t-56.5 -25t-64.5 -8.5q-37 0 -71.5 13.5t-60 36t-41 55.5t-15.5 72q0 49 25.5 93t80 77.5t138 54t202.5 20.5 q39 0 83 -2t88 -9t85 -19.5t76 -30.5q82 -47 106.5 -123t24.5 -193v-385q0 -59 9.5 -77.5t25.5 -18.5q12 0 24.5 2t24.5 2q49 0 75.5 -34.5t26.5 -79.5q0 -43 -19 -73t-50 -49.5t-68 -27.5t-73 -8q-72 0 -139.5 29.5t-94.5 101.5q-72 -70 -162 -100.5t-188 -30.5 q-70 0 -135.5 18.5t-116.5 56.5t-82 96t-31 136zM393 307q0 -53 36 -74.5t81 -21.5q92 0 136 50t44 142v46q-23 -25 -72 -34t-99 -19.5t-88 -29t-38 -59.5z" />
<glyph unicode="b" horiz-adv-x="1228" d="M-29 1262q0 59 28 101t93 42q41 0 82 -10.5t82 -10.5q47 0 91 10.5t89 10.5q37 0 52.5 -25.5t15.5 -85.5v-352h4q47 68 119.5 102.5t163.5 34.5q111 0 186.5 -50t123.5 -130t68.5 -177t20.5 -192q0 -104 -25.5 -207.5t-80 -185.5t-140.5 -133t-205 -51q-102 0 -189 42 t-140 146l-4 -4l6 -51q0 -49 -35 -72.5t-80 -23.5q-82 0 -106.5 38t-24.5 111v875q0 78 -6 111.5t-31 33.5q-16 0 -31.5 -7t-36.5 -7q-51 0 -70.5 34.5t-19.5 82.5zM504 508q0 -147 51 -213t129 -66q74 0 121 68t47 215q0 53 -7 106.5t-34 98.5q-20 35 -52 60.5t-73 25.5 q-29 0 -61.5 -15.5t-59 -50.5t-44 -91t-17.5 -138z" />
<glyph unicode="c" horiz-adv-x="1105" d="M55 510q0 131 39 236.5t112 179t177 113.5t235 40q72 0 148 -17.5t138.5 -56t102.5 -98t40 -145.5q0 -82 -57.5 -131t-135.5 -49q-63 0 -113.5 30.5t-50.5 102.5q0 20 5 32.5t16 28.5q-27 20 -52.5 27.5t-60.5 7.5q-88 0 -146.5 -73t-58.5 -214q0 -49 11.5 -106.5 t39.5 -98.5q29 -41 76 -65.5t94 -24.5q70 0 102 35t56 94q27 59 53.5 81t87.5 22q66 0 113 -40t47 -112q0 -74 -39 -138.5t-96 -109.5q-72 -57 -158 -82.5t-178 -25.5q-111 0 -211 33.5t-180 111.5q-78 78 -117 190.5t-39 221.5z" />
<glyph unicode="d" horiz-adv-x="1310" d="M55 508q0 104 25.5 205.5t80 183.5t138.5 132t201 50q90 0 158.5 -41t127.5 -102v78q0 47 -3 75.5t-8 44t-12 20.5t-15 5q-18 0 -38 -6t-46 -6q-61 0 -84 35t-23 80q0 55 29.5 99t83.5 44q41 0 82 -10.5t82 -10.5q47 0 91 10.5t89 10.5q61 0 77.5 -31t16.5 -112v-891 q0 -90 10 -118t33 -28q18 0 37.5 6.5t46.5 6.5q61 0 83.5 -35t22.5 -80q0 -55 -32.5 -99t-106.5 -44q-41 0 -83 10t-83 10q-39 0 -76.5 -10t-74.5 -10q-45 0 -55 46q-8 33 -8 80q0 18 1 37h-4q-45 -98 -135 -144t-186 -46q-111 0 -194 49t-138 128t-83 178.5t-28 199.5z M393 492q0 -43 9.5 -89.5t31 -85t56 -63.5t85.5 -25q55 0 95.5 26t66 66.5t37.5 91t12 97.5q0 49 -14 103.5t-47 95.5q-27 33 -65.5 63.5t-81.5 30.5q-55 0 -90 -33t-56.5 -80t-30 -101t-8.5 -97z" />
<glyph unicode="e" horiz-adv-x="1146" d="M55 510q0 121 37 225.5t105.5 181t168 119.5t226.5 43q238 0 365.5 -131t127.5 -360q0 -35 -4 -59.5t-17 -40t-41 -22.5t-73 -7h-497q-41 0 -50.5 -8.5t-9.5 -34.5q0 -88 60.5 -146.5t150.5 -58.5q53 0 88 16.5t78 63.5q25 27 42 42t34.5 24.5t36 12.5t43.5 3 q59 0 100 -34t41 -95q0 -59 -36 -111.5t-98.5 -92.5t-147.5 -63.5t-185 -23.5q-127 0 -227.5 40t-171 113.5t-108.5 176t-38 227.5zM403 715q0 -20 20.5 -24.5t65.5 -4.5h207q35 0 43.5 9.5t8.5 25.5q0 20 -9.5 42.5t-29 41t-48 31t-67.5 12.5t-74 -13.5t-60.5 -34t-41 -43 t-15.5 -42.5z" />
<glyph unicode="f" horiz-adv-x="942" d="M14 121q0 47 19.5 82t70.5 35q10 0 19.5 -2.5t17.5 -4.5q10 -4 17.5 -6t13.5 -2q25 0 31 34t6 110v374q0 59 -11.5 69.5t-58.5 10.5q-59 0 -92 20.5t-33 88.5q0 63 26 92t89 29q29 0 45 2t24.5 9t10.5 20.5t2 35.5q2 84 38 143.5t91 98.5t127 56.5t147 17.5 q51 0 108.5 -10.5t102.5 -32.5q53 -29 88 -76t35 -107q0 -68 -42 -113.5t-111 -45.5q-51 0 -95.5 32.5t-44.5 87.5q0 16 4.5 27.5t14.5 28.5q-18 8 -41 8q-57 0 -80 -32t-23 -85q0 -49 10.5 -57t59.5 -8q92 0 118.5 -26t26.5 -85q0 -35 -6 -58.5t-24.5 -37t-52 -18.5 t-89.5 -5q-29 0 -36 -19.5t-7 -60.5v-374q0 -92 7.5 -118t29.5 -26q10 0 17.5 2t15.5 6q8 2 16.5 4.5t18.5 2.5q51 0 70.5 -35t19.5 -82q0 -59 -27.5 -100t-93.5 -41t-128 10t-126 10q-59 0 -115.5 -9t-107.5 -11q-59 0 -86 40.5t-27 100.5z" />
<glyph unicode="g" horiz-adv-x="1187" d="M20 -102q0 100 61.5 154t149.5 77v4q-78 10 -121.5 58.5t-43.5 130.5q0 92 44 138t123 81q-39 41 -57 85t-18 101q0 86 41 150.5t105.5 107.5t142 64.5t153.5 21.5q20 0 39.5 -1t40.5 -3q-1 9 -1 17q0 46 19 82q23 42 60 71t86 43t100 14q41 0 82 -11t75 -32.5 t54.5 -56.5t20.5 -80q0 -53 -36 -87t-89 -34q-59 0 -93 56q-8 12 -15 23t-23 11q-31 0 -39.5 -29.5t-3.5 -52.5q96 -29 148 -111.5t52 -180.5q0 -78 -41 -150t-104 -119t-148.5 -64.5t-162.5 -17.5q-66 0 -120.5 12.5t-113.5 39.5q-12 -10 -21.5 -23.5t-9.5 -32.5 q0 -45 42 -69.5t141 -24.5h247q123 0 202 -29.5t123 -74.5t61.5 -101.5t17.5 -107.5q0 -111 -61.5 -190t-155.5 -126q-86 -43 -194.5 -60t-205.5 -17q-41 0 -86 3t-90 11t-88 20.5t-80 28.5q-86 41 -147.5 110.5t-61.5 170.5zM352 -76q0 -23 10.5 -42t39 -34.5t79.5 -24.5 t131 -9q139 0 191.5 30.5t52.5 85.5q0 39 -38 61.5t-130 22.5q-59 0 -119.5 3t-122.5 3q-33 -10 -63.5 -33.5t-30.5 -62.5zM479 713q0 -59 40 -97t97 -38q59 0 99.5 38.5t40.5 96.5q0 59 -40.5 98t-99.5 39t-98 -39t-39 -98z" />
<glyph unicode="h" horiz-adv-x="1392" d="M14 121q0 47 19.5 82t70.5 35q10 0 18.5 -2.5t16.5 -4.5q20 -8 33 -8q23 0 31 30t8 114v651q0 80 -7 111.5t-32 31.5q-16 0 -31.5 -7t-36.5 -7q-51 0 -70.5 35t-19.5 82q0 59 28 100t91 41q41 0 82 -10.5t82 -10.5q47 0 91 10.5t89 10.5q29 0 42 -19.5t13 -78.5v-359 q39 33 74 58.5t71 41t77 23.5t96 8q82 0 143.5 -23.5t101.5 -66.5t60.5 -101.5t20.5 -127.5v-393q0 -47 2 -75t7 -43.5t11 -20.5t16 -5t17.5 2t15.5 6q10 2 17.5 4.5t17.5 2.5q51 0 70.5 -35t19.5 -82q0 -59 -27.5 -100t-93.5 -41q-61 0 -118.5 10t-116.5 10 q-53 0 -106.5 -10t-102.5 -10q-41 0 -59.5 40.5t-18.5 100.5q0 47 12.5 82t46.5 35q6 0 12.5 -2.5t10.5 -4.5q16 -8 22 -8q18 0 20.5 33t2.5 111v231q0 49 -5 86t-19.5 63.5t-41 40t-71.5 13.5q-88 0 -136.5 -64.5t-48.5 -156.5v-213q0 -47 1.5 -75t4.5 -43.5t8 -20.5t11 -5 q12 0 25 8l9 4.5t11 2.5q35 0 47.5 -35t12.5 -82q0 -59 -18.5 -100t-59.5 -41q-66 0 -128.5 10t-125.5 10q-59 0 -115.5 -10t-110.5 -10q-41 0 -65.5 40.5t-24.5 100.5z" />
<glyph unicode="i" horiz-adv-x="737" d="M14 121q0 47 19.5 82t70.5 35q10 0 18.5 -2.5t18.5 -4.5q8 -2 15.5 -5t15.5 -3q23 0 30 33t7 111v295q0 80 -7 111.5t-30 31.5q-16 0 -31.5 -7t-36.5 -7q-51 0 -70.5 34.5t-19.5 81.5q0 59 29 100.5t94 41.5q43 0 85 -10.5t83 -10.5q47 0 91 10.5t89 10.5q35 0 48.5 -25 t13.5 -80v-577q0 -47 3 -76t8 -44.5t11 -19.5t13 -4q10 0 30 8q18 6 37 7q51 0 70.5 -35t19.5 -82q0 -59 -27.5 -100t-93.5 -41t-128 10t-125 10q-59 0 -117 -10t-113 -10q-66 0 -93.5 40.5t-27.5 100.5zM172 1323q0 39 15.5 75t41 61.5t60.5 41t76 15.5q39 0 74.5 -15.5 t61 -41t41 -61.5t15.5 -75q0 -41 -15.5 -76t-41 -60.5t-61.5 -41t-74 -15.5q-41 0 -76 15.5t-60.5 41t-41 60.5t-15.5 76z" />
<glyph unicode="j" horiz-adv-x="737" d="M-207 -217q0 78 54.5 124t129.5 46q59 0 104.5 -33t45.5 -96q0 -29 -14 -51q20 -4 30 -4q37 0 66 28.5t41 61.5q19 50 19 106v5q-1 59 -1 112v580q0 80 -7 111.5t-30 31.5q-16 0 -31.5 -7t-35.5 -7q-51 0 -70.5 34.5t-19.5 81.5q0 59 28.5 100.5t94.5 41.5q43 0 85 -10.5 t83 -10.5q47 0 91 10.5t89 10.5q35 0 48 -25t13 -80v-917q0 -53 -2 -99.5t-12 -88.5t-32.5 -82t-63.5 -79q-72 -72 -162 -101.5t-191 -29.5q-82 0 -147.5 18.5t-110.5 50.5t-68.5 75t-23.5 92zM231 1323q0 39 15.5 75t41 61.5t60.5 41t76 15.5q39 0 73.5 -15.5t61.5 -41 t42 -61.5t15 -75q0 -41 -15 -76t-42 -60.5t-61.5 -41t-73.5 -15.5q-41 0 -76 15.5t-60.5 41t-41 60.5t-15.5 76z" />
<glyph unicode="k" horiz-adv-x="1392" d="M8 121q0 47 19.5 82t70.5 35q10 0 18.5 -2.5t16.5 -4.5q20 -8 33 -8q23 0 31 30t8 114v651q0 80 -7.5 111.5t-31.5 31.5q-16 0 -31.5 -7t-36.5 -7q-51 0 -70.5 35t-19.5 82q0 59 27.5 100t91.5 41q41 0 82 -10.5t82 -10.5q47 0 91 10.5t89 10.5q29 0 42 -19.5t13 -78.5 v-695l140 121q23 18 36 30.5t19 21t8 15.5t2 15q0 14 -11 25.5t-22 21.5q-23 23 -35 38t-12 50q0 53 30 76t75 23q53 0 109.5 -10.5t115.5 -10.5q63 0 125.5 10.5t128.5 10.5t93.5 -41t27.5 -101q0 -47 -19.5 -81.5t-70.5 -34.5q-23 0 -41.5 14t-44.5 14q-6 0 -12.5 -3 t-20.5 -11t-39 -25.5t-66 -44.5q-59 -41 -77.5 -64.5t-18.5 -33.5t5 -17.5t10 -13.5l24 -37l137 -219q29 -47 47.5 -72.5t30.5 -38t21.5 -15.5t21.5 -3q16 0 35.5 6t38.5 11q51 0 70.5 -35t19.5 -82q0 -59 -27.5 -100t-93.5 -41q-45 0 -89 10t-91 10q-41 0 -82 -10t-82 -10 q-78 0 -113.5 35.5t-35.5 80.5q0 39 20.5 63.5t20.5 49.5q0 12 -3.5 22.5t-12.5 24.5t-23.5 34.5t-38.5 53.5l-47 66q-18 25 -24.5 34t-16.5 9t-37 -20.5t-66 -55.5l-37 -35v-16q0 -66 8.5 -85.5t24.5 -19.5t34.5 6t39.5 11q51 0 70.5 -35t19.5 -82q0 -59 -27.5 -100 t-93.5 -41t-128 10t-126 10q-78 0 -138 -10t-114 -10q-41 0 -65.5 40.5t-24.5 100.5z" />
<glyph unicode="l" horiz-adv-x="737" d="M14 121q0 47 19.5 82t70.5 35q10 0 18.5 -2.5t18.5 -4.5q8 -2 15.5 -5t15.5 -3q23 0 30 33t7 111v651q0 74 -6 107.5t-31 33.5q-16 0 -31.5 -7t-36.5 -7q-51 0 -70.5 34.5t-19.5 82.5q0 59 28 101t93 42q41 0 82 -10.5t82 -10.5q47 0 91 10.5t89 10.5q37 0 52.5 -25.5 t15.5 -85.5v-927q0 -47 3 -76t8 -44.5t11 -19.5t13 -4q10 0 30 8q18 6 37 7q51 0 70.5 -35t19.5 -82q0 -59 -27.5 -100t-93.5 -41t-128 10t-125 10q-59 0 -117 -10t-113 -10q-66 0 -93.5 40.5t-27.5 100.5z" />
<glyph unicode="m" horiz-adv-x="2007" d="M14 121q0 47 19.5 82t70.5 35q10 0 18.5 -2.5t18.5 -4.5q8 -2 15.5 -5t15.5 -3q20 0 28.5 26.5t8.5 117.5v295q0 88 -8 115.5t-29 27.5q-16 0 -31.5 -7t-36.5 -7q-51 0 -70.5 34.5t-19.5 81.5q0 59 22.5 100.5t57.5 41.5t73 -10.5t77 -10.5q41 0 82 10.5t86 10.5 q33 0 50 -18.5t17 -69.5v-39q66 72 153 114.5t183 42.5q86 0 154.5 -43t113.5 -114q41 35 80 64.5t81 50t89 31.5t105 11q78 0 154.5 -31.5t129.5 -93.5q29 -35 45.5 -73.5t23.5 -79.5t8 -83t1 -85v-297q0 -61 9.5 -87t29.5 -26q10 0 31 8q18 6 37 7q35 0 62.5 -25t27.5 -92 q0 -59 -27.5 -100t-93.5 -41q-59 0 -113.5 10t-109.5 10q-51 0 -100.5 -10t-96.5 -10t-77.5 29.5t-30.5 111.5q0 72 19 94.5t40 22.5q8 0 14 -2.5t11 -4.5q16 -8 22 -8t11 4t8.5 19.5t4.5 43t1 77.5v260q0 157 -136 157h-2q-41 0 -81.5 -18t-61.5 -53q-23 -41 -28 -95.5 t-5 -99.5v-151q0 -45 1 -73t4.5 -43t7.5 -21.5t12 -6.5q6 0 11 2t11 6q12 6 25 7q23 0 41 -22.5t18 -94.5q0 -59 -19.5 -100t-62.5 -41q-59 0 -113 10t-110 10q-51 0 -100 -10t-96 -10q-31 0 -56.5 29.5t-25.5 111.5q0 70 18.5 93.5t40.5 23.5q8 0 14.5 -2.5t10.5 -4.5 q16 -8 22 -8q16 0 20.5 30t4.5 114v254q0 86 -32 124.5t-95 38.5q-45 0 -85 -18t-65 -55q-29 -45 -33 -93.5t-4 -99.5v-151q0 -45 1 -73t4.5 -43t8.5 -21.5t11 -6.5t11 2t12 6q12 6 24 7q23 0 41.5 -26t18.5 -91q0 -59 -19.5 -100t-62.5 -41q-66 0 -128.5 10t-125.5 10 q-59 0 -115.5 -10t-110.5 -10q-39 0 -62.5 40.5t-23.5 100.5z" />
<glyph unicode="n" horiz-adv-x="1392" d="M14 121q0 47 19.5 82t70.5 35q10 0 18.5 -2.5t18.5 -4.5q8 -2 15.5 -5t15.5 -3q20 0 28.5 26.5t8.5 117.5v295q0 88 -8 115.5t-29 27.5q-16 0 -31.5 -7t-36.5 -7q-51 0 -70.5 34.5t-19.5 81.5q0 59 22.5 100.5t57.5 41.5t75 -10.5t93 -10.5q43 0 75 10.5t71 10.5 q43 0 50 -22.5t7 -84.5v-51h4q66 84 156 136t200 52q68 0 130.5 -23.5t111.5 -70.5t78 -115.5t29 -156.5v-346q0 -92 9 -118t27 -26q10 0 31 8q18 6 37 7q51 0 70.5 -35t19.5 -82q0 -59 -27.5 -100t-93.5 -41t-128 10t-126 10q-29 0 -53.5 -3t-47 -7t-46 -7t-49.5 -3 q-35 0 -58.5 30.5t-23.5 110.5q0 70 20.5 93.5t42.5 23.5q8 0 14.5 -2.5t10.5 -4.5q16 -8 22 -8q18 0 22.5 29t4.5 115v256q0 86 -34 125.5t-93 42.5q-25 0 -58.5 -9.5t-64.5 -35t-51.5 -69.5t-20.5 -114v-196q0 -45 1 -73t4.5 -43t8.5 -21.5t11 -6.5t11 2t12 6q12 6 30 7 q23 0 41.5 -26t18.5 -91q0 -59 -19.5 -100t-62.5 -41q-72 0 -134.5 10t-125.5 10q-59 0 -115.5 -10t-110.5 -10q-39 0 -62.5 40.5t-23.5 100.5z" />
<glyph unicode="o" horiz-adv-x="1187" d="M55 516q0 131 35 235.5t104.5 177t171 111.5t234.5 39q125 0 224.5 -40t168 -111.5t104.5 -174t36 -225.5q0 -127 -33 -233.5t-98.5 -182t-165 -117.5t-234.5 -42q-268 0 -407.5 149.5t-139.5 413.5zM393 516q0 -90 18.5 -148.5t46 -93t61.5 -49t65 -14.5q53 0 97 18.5 t69 69.5q23 47 34 105.5t11 111.5q0 88 -15.5 147.5t-43 94.5t-64.5 49t-78 14q-37 0 -73 -15t-64.5 -51t-46 -94.5t-17.5 -144.5z" />
<glyph unicode="p" horiz-adv-x="1310" d="M14 -233q0 51 22.5 83.5t67.5 32.5q10 0 18.5 -2t18.5 -4q20 -8 31 -8q18 0 27.5 28.5t9.5 114.5v650q0 88 -9.5 115.5t-27.5 27.5q-16 0 -31.5 -7t-36.5 -7q-51 0 -70.5 34.5t-19.5 81.5q0 59 28 100.5t87 41.5q29 0 61.5 -10.5t67.5 -10.5t71 10.5t74 10.5 q41 0 52.5 -27t11.5 -80v-35h4q57 82 137 127t185 45q106 0 190 -37.5t145 -123.5q57 -80 83 -183.5t26 -202.5q0 -106 -24.5 -210.5t-78 -186.5t-138.5 -132t-205 -50q-41 0 -76 11t-66 28.5t-59.5 40t-59.5 45.5v-66q0 -88 8.5 -115.5t28.5 -27.5q10 0 31 8q10 2 18.5 4 t18.5 2q51 0 70.5 -34.5t19.5 -81.5q0 -59 -27.5 -100.5t-93.5 -41.5t-128 10.5t-126 10.5q-59 0 -115.5 -10.5t-109.5 -10.5q-57 0 -84 41t-27 101zM530 522q0 -145 52.5 -213.5t122.5 -68.5q37 0 71.5 15t62 49t44 87t16.5 131q0 76 -16.5 129.5t-44 87t-62.5 50t-74 16.5 q-76 0 -124 -74t-48 -209z" />
<glyph unicode="q" horiz-adv-x="1269" d="M55 514q0 135 31 240.5t86 177.5t134 109.5t175 37.5q92 0 172 -35.5t138 -111.5h4q-3 41 -3 63q0 12 1 19q2 20 16 35q18 16 55 23t62 7q33 0 66.5 -7t62.5 -23q12 -8 19 -14.5t10 -17.5t4.5 -27.5t1.5 -43.5v-934q0 -86 8 -114.5t28 -28.5q10 0 31 8q10 2 18.5 4 t18.5 2q51 0 70.5 -34.5t19.5 -81.5q0 -59 -27.5 -100.5t-93.5 -41.5t-128 10.5t-126 10.5q-59 0 -114.5 -10.5t-100.5 -10.5q-53 0 -87 36t-34 106q0 61 25 88.5t66 27.5q10 0 18 -2t18 -4q20 -8 31 -8q20 0 28.5 30.5t8.5 112.5v84q-57 -66 -126 -104.5t-155 -38.5 q-111 0 -192.5 51t-135 132t-79 180.5t-25.5 197.5zM393 520q0 -51 11.5 -101t34 -90t58.5 -64.5t85 -24.5q43 0 77.5 25.5t59 65.5t37 90t12.5 101q0 147 -57.5 217t-132.5 70q-35 0 -68 -15.5t-58.5 -49t-42 -89t-16.5 -135.5z" />
<glyph unicode="r" horiz-adv-x="1064" d="M14 121q0 47 19.5 82t70.5 35q10 0 18.5 -2.5t18.5 -4.5q8 -2 15.5 -5t15.5 -3q18 0 27.5 25.5t9.5 118.5v295q0 47 -2 75.5t-6 44t-11.5 19.5t-17.5 4q-16 0 -31.5 -7t-36.5 -7q-51 0 -70.5 34.5t-19.5 81.5q0 59 26 100.5t77 41.5q45 0 77.5 -10.5t63.5 -10.5 q35 0 67.5 10.5t67.5 10.5t49.5 -16.5t14.5 -71.5v-154h4q25 127 113 194.5t217 67.5q53 0 102 -19.5t86 -53t59.5 -81t22.5 -102.5q0 -39 -12.5 -76t-35 -64.5t-55 -44t-73.5 -16.5q-59 0 -101.5 36t-42.5 97q0 23 7.5 42.5t17.5 37.5q-10 1 -19 1q-73 0 -114 -43 q-47 -48 -70.5 -119.5t-28 -153.5t-4.5 -143q0 -90 9.5 -117t27.5 -27q10 0 31 8q18 6 37 7q51 0 70.5 -35t19.5 -82q0 -59 -25.5 -100t-76.5 -41q-84 0 -148.5 10t-128.5 10q-59 0 -116.5 -10t-112.5 -10q-51 0 -77 40.5t-26 100.5z" />
<glyph unicode="s" horiz-adv-x="1105" d="M55 63q0 31 5.5 61t5.5 62q0 31 -5.5 60.5t-5.5 60.5q0 49 40 71.5t83 22.5q57 0 87 -19.5t61 -64.5q18 -27 37.5 -51t48.5 -39q72 -34 145 -34h4q82 0 114 30.5t32 61.5q0 47 -41 67.5t-144 36.5q-80 12 -152.5 29.5t-130 51.5t-91 94.5t-33.5 158.5q0 84 29.5 149.5 t80.5 111.5t121 70.5t152 24.5q70 0 143.5 -23.5t124.5 -72.5q4 53 36 70.5t81 17.5q37 0 69.5 -13.5t32.5 -60.5q0 -29 -7 -58.5t-7 -64.5q0 -37 7 -62.5t7 -57.5q0 -31 -26.5 -58.5t-92.5 -27.5t-96.5 27.5t-55 60t-58 60.5t-107.5 28q-57 0 -85 -22.5t-28 -61.5 q0 -35 25.5 -55.5t103.5 -34.5l88 -17q78 -14 148.5 -32.5t125 -53.5t86 -94t31.5 -154q0 -86 -36.5 -154.5t-98 -115.5t-139.5 -71.5t-158 -24.5q-92 0 -179 29.5t-157 89.5v-11q0 -39 -26 -63q-30 -27 -76 -27q-47 0 -83 17.5t-36 74.5z" />
<glyph unicode="t" horiz-adv-x="901" d="M-12 934q0 49 26.5 81t75.5 32q53 0 70.5 12t17.5 63v105q0 39 6 65.5t25.5 43t55.5 23.5t95 7q78 0 101.5 -25.5t23.5 -85.5v-129q0 -59 13.5 -69t40.5 -10h176q55 0 87 -27t32 -90q0 -59 -33 -85t-105 -26h-168q-29 0 -36 -20.5t-7 -73.5v-377q0 -72 16.5 -100.5 t57.5 -28.5q72 0 72 115v69q0 51 29.5 84t84.5 33q59 0 96 -51t36 -162q0 -176 -102.5 -265t-272.5 -89q-72 0 -143.5 20.5t-122.5 73.5q-29 29 -43.5 66t-20.5 75.5t-7 79.5t-1 78v412q0 35 -9.5 49t-43.5 14h-41q-29 0 -55.5 35t-26.5 78z" />
<glyph unicode="u" d="M-39 907q0 59 29.5 100.5t101.5 41.5q49 0 92 -10.5t95 -10.5q47 0 76.5 10.5t68.5 10.5q41 0 47 -26t6 -67v-510q0 -33 3 -78.5t22 -76.5q18 -29 49 -46.5t65 -17.5q45 0 84 21.5t64 60.5q33 49 40 101.5t7 109.5v142q0 84 -7 113.5t-30 29.5q-8 0 -15 -2t-16 -4 q-10 -4 -18 -6t-18 -2q-51 0 -71 34.5t-20 81.5q0 59 29 100.5t96 41.5q51 0 90 -10.5t91 -10.5q41 0 73.5 10.5t71.5 10.5q41 0 53.5 -16.5t12.5 -51.5v-614q0 -92 10 -118t26 -26t32 7.5t36 7.5q51 0 70.5 -35t19.5 -82q0 -59 -27.5 -100t-93.5 -41q-39 0 -74.5 10 t-70.5 10t-67.5 -10t-61.5 -10q-39 0 -56.5 21.5t-17.5 45.5v82h-4q-57 -86 -156.5 -131t-203.5 -45q-160 0 -249 87t-89 243v379q0 47 -3 74.5t-7.5 43t-11.5 20.5t-15 5t-15.5 -2t-15.5 -4q-10 -4 -18.5 -6t-18.5 -2q-51 0 -70.5 34.5t-19.5 81.5z" />
<glyph unicode="v" horiz-adv-x="1392" d="M-18 905q0 59 25.5 101.5t78.5 42.5q49 0 97 -10.5t108 -10.5q63 0 125.5 10.5t128.5 10.5q57 0 82.5 -33t25.5 -90q0 -41 -17.5 -77t-64.5 -40q-23 -4 -37 -7t-14 -32q0 -18 11.5 -53t15.5 -53l135 -445h4l145 445q2 8 8.5 22t11.5 30.5t9 32t4 21.5q0 25 -21.5 31 t-46 13t-46 28.5t-21.5 81.5q0 53 26.5 89t84.5 36q45 0 94 -10.5t100 -10.5q53 0 106.5 10.5t110.5 10.5q66 0 93.5 -42t27.5 -102q0 -47 -19.5 -82t-70.5 -35q-12 0 -24.5 3.5t-22.5 3.5q-20 0 -35.5 -21.5t-38.5 -81.5l-200 -526q-12 -35 -31 -78t-47 -70 q-27 -25 -47.5 -31.5t-51.5 -6.5q-35 0 -61.5 10t-56.5 10q-31 0 -61 -10t-58 -10q-27 0 -46.5 4t-34.5 19t-29.5 44t-33.5 80l-190 526q-29 76 -44 108t-42 32q-14 0 -27.5 -2.5t-27.5 -2.5q-51 0 -70.5 35t-19.5 82z" />
<glyph unicode="w" horiz-adv-x="1884" d="M-27 907q0 59 30 100.5t103 41.5q45 0 94.5 -10.5t100.5 -10.5q53 0 106.5 10.5t110.5 10.5t86 -37t29 -90q0 -41 -19.5 -76t-62.5 -35q-29 0 -45.5 -6t-16.5 -31q0 -16 3.5 -36.5t7.5 -35.5l84 -428h4l123 598q12 55 24.5 89t36 54.5t59 28t93.5 7.5q70 0 110.5 -7.5 t64 -29t36 -61.5t24.5 -105l113 -574h4l102 449q4 12 7.5 25.5t3.5 27.5q0 23 -15.5 28t-34.5 5q-49 0 -75.5 34t-26.5 81q0 57 27.5 91t87.5 34q45 0 94 -10.5t100 -10.5q53 0 106.5 10.5t110.5 10.5q66 0 93.5 -41t27.5 -101q0 -47 -19.5 -81.5t-70.5 -34.5q-14 0 -26.5 6 t-24.5 6q-14 0 -23.5 -14.5t-25.5 -61.5l-187 -586q-6 -23 -15 -51.5t-23.5 -53t-34 -40.5t-48.5 -16t-57.5 10t-52.5 10q-31 0 -60.5 -10t-58.5 -10t-49.5 12t-33.5 31.5t-21.5 42t-12.5 45.5l-108 591h-4l-113 -514q-6 -31 -17.5 -76.5t-23.5 -74.5t-27.5 -43t-48.5 -14 q-29 0 -57.5 10t-52.5 10q-31 0 -60.5 -10t-58.5 -10q-55 0 -85 28.5t-50 106.5l-154 587q-12 47 -25.5 72t-39.5 25q-14 0 -26.5 -4t-25.5 -4q-51 0 -70.5 34.5t-19.5 81.5z" />
<glyph unicode="x" d="M29 121q0 47 16 82t61 35q16 0 33 -4.5t33 -4.5q23 0 39 19.5t39 54.5l145 227l-127 187q-29 43 -50 65.5t-42 22.5q-20 0 -34.5 -7t-30.5 -7q-39 0 -55.5 34.5t-16.5 81.5q0 59 24.5 100.5t83.5 41.5q39 0 80 -10.5t82 -10.5q47 0 92 10.5t93 10.5q49 0 77.5 -31 t28.5 -86q0 -27 -8 -42.5t-18.5 -25.5t-18.5 -18t-8 -21q0 -10 8 -28.5t18.5 -37t19.5 -34.5t13 -25l29 -53l31 53q4 8 13 22.5t18.5 30t16.5 32t7 26.5q0 14 -10.5 20.5t-23.5 15.5t-23.5 26.5t-10.5 54.5q0 57 23.5 89t60.5 32q39 0 80 -10.5t82 -10.5q47 0 92 10.5 t92 10.5q55 0 80 -41t25 -101q0 -47 -15.5 -81.5t-54.5 -34.5q-18 0 -34.5 8t-32.5 8q-18 0 -25.5 -8t-30.5 -41l-139 -215l139 -234q23 -35 39.5 -56.5t36.5 -21.5q10 0 23.5 3.5t27.5 3.5q45 0 61.5 -35t16.5 -82q0 -59 -24.5 -100t-79.5 -41q-47 0 -92.5 10t-92.5 10 q-41 0 -82 -10t-79 -10q-47 0 -77 37.5t-30 91.5q0 27 7 39t24 28q10 8 23.5 20.5t13.5 28.5q0 8 -7.5 25.5t-16.5 35t-19.5 33t-14.5 23.5l-30 53l-60 -96q-8 -14 -24.5 -40t-16.5 -42q0 -18 11.5 -25.5t23.5 -14.5t23.5 -21.5t11.5 -44.5q0 -59 -32 -95t-83 -36 q-47 0 -92 10t-92 10q-41 0 -82 -10t-80 -10q-53 0 -77.5 40.5t-24.5 100.5z" />
<glyph unicode="y" d="M-41 -195q0 76 52 126.5t128 50.5q59 0 100.5 -41t41.5 -101q0 -10 -2.5 -21.5t-4.5 -21.5q12 -8 22.5 -12t27.5 -4q27 0 55.5 18.5t53 46t39.5 59.5t15 56q0 18 -9 51t-22.5 68t-26.5 68.5t-21 52.5l-207 489q-27 66 -39 85.5t-35 19.5q-12 0 -23.5 -2t-23.5 -2 q-51 0 -70.5 34.5t-19.5 81.5q0 59 27.5 100.5t93.5 41.5q47 0 97 -10.5t103 -10.5q55 0 109.5 10.5t114.5 10.5q59 0 88.5 -33t29.5 -90q0 -51 -20.5 -67.5t-44.5 -24.5q-25 -6 -46.5 -11.5t-21.5 -34.5q0 -16 8.5 -41.5l12.5 -37.5l133 -414h4l133 395q8 20 17.5 50 t9.5 51q0 16 -17.5 23t-40.5 17t-41 30t-18 67t28.5 84t77.5 37q43 0 90.5 -10.5t94.5 -10.5q53 0 104 10.5t105 10.5q66 0 93 -41t27 -101q0 -47 -19 -81.5t-71 -34.5q-14 0 -27.5 4t-27.5 4q-16 0 -32.5 -17.5t-39.5 -81.5l-178 -487q-41 -111 -94 -228.5t-129 -215 t-178.5 -160t-239.5 -62.5q-59 0 -120.5 14.5t-111.5 46.5t-82 81t-32 116z" />
<glyph unicode="z" horiz-adv-x="1105" d="M43 113q0 45 21.5 75.5t48.5 61.5l505 551h-229q-41 0 -54 -9.5t-13 -29.5q0 -18 4 -35.5t4 -34.5q0 -41 -34 -80t-101 -39q-59 0 -91 39t-32 86q0 39 7 69t7 62q0 41 -7 70t-7 64q0 41 23.5 63.5t86.5 22.5h725q76 0 117 -32t41 -114q0 -49 -14.5 -76.5t-49.5 -64.5 l-489 -529h184q86 0 108.5 19.5t22.5 48.5q0 20 -3 39.5t-3 40.5q0 53 36 83t89 30q72 0 99.5 -40t27.5 -106q0 -33 -5 -63.5t-5 -63.5q0 -53 5 -88t5 -67q0 -41 -24.5 -58.5t-102.5 -17.5h-766q-59 0 -98 30.5t-39 92.5z" />
<glyph unicode="{" horiz-adv-x="983" d="M223 535q0 35 19.5 52t52.5 21q47 4 61.5 25.5t14.5 68.5v424q0 147 65.5 211t184.5 64h163q23 0 37.5 -8.5t21.5 -19.5t10 -23.5t3 -20.5q0 -16 -12.5 -40.5t-59.5 -31.5q-47 -6 -61 -26.5t-14 -67.5v-370q0 -53 -6.5 -97.5t-25 -77t-51 -53t-85.5 -28.5v-5 q53 -8 85.5 -28.5t51 -53t25 -76.5t6.5 -98v-393q0 -47 14 -67.5t61 -26.5t59.5 -30.5t12.5 -41.5q0 -16 -13.5 -43.5t-58.5 -27.5h-163q-119 0 -184.5 63.5t-65.5 210.5v447q0 47 -14.5 68.5t-61.5 25.5q-33 4 -52.5 21.5t-19.5 52.5z" />
<glyph unicode="|" horiz-adv-x="1228" d="M498 -512v2048h243v-2048h-243z" />
<glyph unicode="}" horiz-adv-x="983" d="M127 -283q0 16 12.5 41t59.5 31t61 26.5t14 67.5v393q0 53 6.5 97.5t25 77t51 53t85.5 28.5v5q-53 8 -85.5 28.5t-51 53t-25 76.5t-6.5 98v370q0 47 -14 67.5t-61 26.5t-59.5 31t-12.5 41q0 8 2 20.5t10 23.5t22.5 19.5t37.5 8.5h163q119 0 184.5 -63.5t65.5 -211.5v-424 q0 -47 14.5 -68.5t61.5 -25.5q33 -4 52.5 -21.5t19.5 -51.5q0 -35 -19.5 -52.5t-52.5 -21.5q-47 -4 -61.5 -25.5t-14.5 -68.5v-447q0 -147 -65.5 -210.5t-184.5 -63.5h-163q-23 0 -37.5 8t-22.5 19.5t-10 23.5t-2 20z" />
<glyph unicode="~" horiz-adv-x="1228" d="M104 494q25 43 54.5 88t66.5 81.5t83 60.5t102 24q55 0 116.5 -21.5t118.5 -46.5t107.5 -46.5t87.5 -21.5q33 0 56.5 15.5t42.5 38t34.5 49t32.5 49.5l131 -150q-27 -41 -54.5 -84t-62.5 -77.5t-78 -56t-100 -21.5q-51 0 -96.5 15.5t-92.5 33.5l-82 35q-35 14 -76.5 32.5 t-80.5 18.5q-37 0 -63.5 -16.5t-47 -41t-37 -54t-30.5 -56.5z" />
<glyph unicode="&#xa1;" horiz-adv-x="778" d="M184 -262l9 106l59 631q4 47 11 73.5t23.5 39t44 14.5t75.5 2q43 0 71.5 -3t45 -15.5t23.5 -39t11 -73.5l47 -727q0 -45 -18.5 -74.5t-49 -46t-68.5 -24t-77 -7.5q-35 0 -71.5 6.5t-66.5 23t-49.5 44t-19.5 70.5zM197 881q0 84 58 141t142 57t141.5 -57t57.5 -141 t-57.5 -142.5t-141.5 -58.5t-142 58.5t-58 142.5z" />
<glyph unicode="&#xa2;" d="M223 713q0 90 23.5 172t72 147.5t119 109.5t166.5 58l-10 100q-4 49 10 78t74 29q43 0 66.5 -15.5t19.5 -62.5l-8 -129q59 -4 118.5 -21.5t107.5 -49t78 -81t30 -118.5q0 -78 -44.5 -132.5t-125.5 -54.5q-25 0 -49.5 7.5t-46 21.5t-35 35.5t-13.5 48.5q0 20 7.5 32.5 t17.5 29.5q-18 16 -37 25t-45 9q-47 0 -81 -22.5t-55.5 -57t-32.5 -77.5t-11 -82q0 -41 10 -83t31.5 -76t55.5 -55.5t81 -21.5q53 0 76.5 27.5t42.5 62.5q18 35 42.5 62.5t79.5 27.5q66 0 110 -30.5t44 -102.5q0 -68 -32.5 -123t-84 -94t-114 -60.5t-123.5 -21.5l8 -155 q2 -25 -19.5 -47.5t-62.5 -22.5t-66.5 15.5t-23.5 54.5l8 155q-96 12 -168 55.5t-119 110t-69.5 149.5t-22.5 173z" />
<glyph unicode="&#xa3;" d="M4 262q0 70 24.5 124t64.5 91t89 56.5t99 19.5q66 0 126 -22.5t119 -53.5q2 51 -20.5 91t-42.5 81h-203q-23 0 -42 3t-32.5 13.5t-21.5 31t-8 55.5q0 76 25.5 95t78.5 19h123q-23 43 -32 95.5t-9 101.5q0 88 36 157.5t89 118.5q57 51 126 73t138 22q53 0 110.5 -17.5 t104.5 -53.5t78 -91t31 -133q0 -86 -42 -143.5t-110 -57.5q-53 0 -89 39t-36 104q0 39 15 68q-16 10 -35 17.5t-35 7.5q-43 0 -74 -34t-31 -91q0 -45 18.5 -91.5t35.5 -91.5h278q57 0 85 -23.5t28 -90.5q0 -59 -22.5 -81t-82.5 -22h-206q29 -47 38 -94t9 -100 q0 -25 -1 -48.5t-5 -46.5q23 -18 55.5 -40.5t68 -41t70.5 -32t60 -13.5t58.5 14.5t33.5 55.5q0 31 -23 31q-18 0 -35.5 -8.5t-38.5 -8.5q-45 0 -69.5 36t-24.5 89q0 41 14.5 72t37 50.5t51 28.5t57.5 9q49 0 93 -23.5t77 -63.5t51.5 -94t18.5 -116q0 -82 -28 -145.5 t-74 -107.5t-104.5 -67.5t-117.5 -23.5q-47 0 -92 13.5t-89 35t-87 47t-84 49.5q-59 -78 -150.5 -115.5t-175.5 -37.5q-57 0 -117.5 17.5t-110.5 54t-82 95t-32 142.5zM248 256q0 -33 26.5 -47t47.5 -14q33 0 76 18t61 51q-33 25 -67 40t-70 15q-23 0 -48.5 -13t-25.5 -50z " />
<glyph unicode="&#xa4;" d="M158 260l90 90q-37 66 -56.5 125.5t-19.5 136.5q0 76 18.5 140.5t57.5 128.5l-90 88l161 164l91 -91q59 35 127.5 56.5t136.5 21.5q150 0 274 -78l90 91l158 -164l-90 -88q39 -61 58.5 -127t19.5 -140q0 -70 -18.5 -138t-59.5 -126l90 -90l-158 -162l-90 90 q-61 -37 -126.5 -58t-137.5 -21q-152 0 -274 79l-91 -90zM426 614q0 -49 19.5 -95t53 -81t80 -55.5t99.5 -20.5t99 20.5t80 55.5t53.5 81t19.5 95t-19.5 95.5t-53.5 81t-80 55t-99 20.5t-99.5 -20.5t-80 -55t-53 -80.5t-19.5 -96z" />
<glyph unicode="&#xa5;" d="M-12 1249q0 66 31.5 111t97.5 45q53 0 105 -10.5t106 -10.5q51 0 95 10.5t97 10.5q55 0 87 -43t32 -107q0 -41 -12.5 -61t-40.5 -41q-16 -10 -23.5 -17.5t-7.5 -27.5q0 -23 14.5 -53.5t24.5 -50.5l90 -205l111 243q8 16 13 32t5 34q0 16 -11 24.5t-28 18.5 q-16 12 -28.5 34.5t-12.5 67.5q0 66 31 109t76 43q53 0 106 -10.5t107 -10.5q45 0 91 10.5t99 10.5q61 0 92 -45t31 -111q0 -23 -6 -47t-17.5 -44.5t-28 -33t-38.5 -12.5q-16 2 -32.5 7t-35.5 5q-35 0 -49 -15t-33 -50l-28 -53l-64 -115h215q27 0 47.5 -13.5t20.5 -50.5 q0 -35 -19.5 -48t-46.5 -13h-282l-88 -172h368q27 0 47.5 -13.5t20.5 -50.5q0 -35 -19.5 -49t-46.5 -14h-422v-98q0 -61 12.5 -86t30.5 -25q10 0 19.5 2t19.5 6q18 6 39 6q23 0 40.5 -13t28.5 -32.5t16 -44t5 -47.5q0 -66 -30.5 -110.5t-89.5 -44.5q-66 0 -128.5 10 t-115.5 10q-66 0 -131.5 -10t-130.5 -10q-47 0 -76 45t-29 110q0 23 6.5 47.5t17.5 44t27.5 32.5t38.5 13q10 0 19.5 -2t19.5 -4t19.5 -5t19.5 -3q23 0 35 27.5t12 89.5v92h-430q-27 0 -46 14.5t-19 48.5q0 35 19.5 49.5t43.5 14.5h371l-86 172h-283q-27 0 -46 13.5 t-19 47.5q0 35 19.5 49.5t43.5 14.5h217l-78 141q-16 27 -33.5 58.5t-47.5 31.5q-16 0 -33 -5t-39 -5q-23 0 -40.5 12.5t-28.5 33t-16 45t-5 46.5z" />
<glyph unicode="&#xa6;" horiz-adv-x="1228" d="M498 358h243v-716h-243v716zM498 666v716h243v-716h-243z" />
<glyph unicode="&#xa7;" d="M170 543q0 90 46 153.5t112 116.5q-18 31 -33.5 55.5t-27 50t-16.5 55.5t-5 66q0 96 34.5 170t94 123t138.5 75t169 26q66 0 134.5 -13.5t127.5 -44.5q31 -16 60.5 -40.5t54 -54.5t39 -64.5t14.5 -71.5q0 -76 -45 -129t-123 -53q-29 0 -58.5 8t-52 23.5t-37 40 t-14.5 57.5q0 25 7.5 42t21.5 37q-51 29 -104 29q-25 0 -51.5 -5t-48 -17.5t-36 -33t-14.5 -48.5q0 -23 7 -39.5t28 -30.5q12 -8 30.5 -16.5t39 -16.5t41 -15t34.5 -13q72 -27 149 -55.5t139 -71.5t103 -105.5t41 -154.5q0 -86 -42 -144.5t-107 -105.5q49 -49 73.5 -115 t24.5 -135q0 -100 -39 -176t-105.5 -126t-151.5 -75t-177 -25q-66 0 -137.5 16.5t-128.5 47.5q-66 37 -117 99.5t-51 142.5q0 78 55.5 126t128.5 48q55 0 100.5 -33t45.5 -92q0 -43 -23 -76q33 -23 63.5 -31t71.5 -8q25 0 52.5 5t48.5 20q18 14 32.5 37.5t14.5 46.5 q0 29 -14.5 48t-36 32.5t-47 21.5t-46.5 16l-98 35q-27 8 -62.5 21.5t-72.5 28t-71 29.5t-54 32q-61 45 -95 111.5t-34 142.5zM473 612q0 -31 14.5 -51t37 -33.5t49 -22.5t51.5 -18l176 -61q27 6 42 31.5t15 52.5q0 31 -18.5 52.5t-45 36.5t-56 26.5t-52.5 19.5l-160 60 q-23 -16 -38 -40t-15 -53z" />
<glyph unicode="&#xa8;" horiz-adv-x="1064" d="M141 1364q0 76 52.5 128t128.5 52t129 -52t53 -128t-53.5 -129t-128.5 -53q-76 0 -128.5 53t-52.5 129zM575 1364q0 76 53.5 128t129.5 52t129 -52t53 -128t-53 -129t-129 -53t-129.5 53t-53.5 129z" />
<glyph unicode="&#xa9;" horiz-adv-x="1515" d="M23 694q0 154 58 288t159.5 234.5t235.5 159t288 58.5t288 -58.5t235.5 -159t159.5 -234.5t58 -288t-58 -289t-159.5 -235t-235.5 -158.5t-288 -58.5t-288 58.5t-235.5 158.5t-159.5 235.5t-58 288.5zM162 694q0 -125 47 -234.5t129 -191.5t191.5 -129t234.5 -47 t234.5 47t191.5 129t129 191.5t47 234.5t-47 233.5t-129 190.5t-191.5 129t-234.5 47t-234.5 -47t-191.5 -129t-129 -190.5t-47 -233.5zM375 680q0 90 29.5 166t83 130t129 85t165.5 31q47 0 76 -4.5t72 -14.5q37 -10 73.5 -17t71.5 -24v-213h-80q-14 35 -29.5 69t-37 59.5 t-52 42t-75.5 16.5q-51 0 -93 -24t-71 -64q-31 -47 -41 -96.5t-10 -104.5q0 -59 13 -120.5t44 -112t80 -82t119 -31.5q45 0 99 25.5t79 66.5l18 26l66 -26q-20 -49 -58 -84t-84.5 -57.5t-98.5 -32.5t-103 -10q-90 0 -161 30.5t-121 83.5t-76.5 127t-26.5 160z" />
<glyph unicode="&#xaa;" horiz-adv-x="942" d="M127 649q0 25 13.5 37t31.5 17.5t35.5 5.5t25.5 2h465q6 0 23.5 -1t35 -6.5t32 -15.5t14.5 -31q0 -27 -13.5 -40t-31 -19t-34.5 -6h-26h-465h-25.5t-35.5 5t-31.5 17.5t-13.5 34.5zM141 1012q0 59 27 92t65.5 50t86 24.5t86 15.5t65.5 23.5t27 48.5t-26 47t-54 14 q-14 0 -25.5 -4t-11.5 -20v-19q0 -39 -32 -55.5t-66 -16.5q-41 0 -74 25t-33 68t27.5 67.5t67.5 38.5t84 18.5t75 4.5q45 0 101.5 -8.5t95.5 -34.5q45 -31 52 -76t7 -92v-209q4 -29 19 -29q6 0 13 1t15 1q25 0 40 -18.5t15 -42.5q0 -23 -11 -39.5t-28.5 -26.5t-38 -14 t-38.5 -4q-39 0 -77 15t-54 54q-41 -35 -92.5 -51t-104.5 -16q-80 0 -141.5 40t-61.5 128zM330 1028q0 -29 21.5 -39t43.5 -10q49 0 77 25.5t28 74.5v23q-12 -12 -41 -17.5t-57.5 -10.5t-50 -15t-21.5 -31z" />
<glyph unicode="&#xab;" horiz-adv-x="1105" d="M29 565q2 31 22.5 53.5t40.5 40.5l191 166q14 12 32.5 28.5t40 32t43 25t39.5 9.5q33 -2 54.5 -32t19.5 -61q-2 -37 -22.5 -64.5t-43.5 -55.5l-94 -115q-6 -8 -17 -23.5t-11 -25.5q-2 -10 5 -19.5t15 -17.5l51 -64q14 -16 34 -38.5t38 -47t31.5 -51t13.5 -49.5 q0 -37 -27.5 -54.5t-64.5 -15.5q-51 2 -88 35t-72 68l-125 121l-30.5 30.5t-36 40t-28.5 44t-11 40.5zM526 565q2 31 22.5 53.5t41.5 40.5l190 166q14 12 32.5 28.5t40 32t43.5 25t40 9.5q33 -2 54.5 -32t19.5 -61q-2 -37 -23.5 -64.5t-44.5 -55.5l-92 -115 q-6 -8 -18.5 -22.5t-12.5 -24.5q-2 -10 6.5 -20.5t16.5 -18.5l51 -62q14 -16 33.5 -39.5t38 -48t32 -50t13.5 -48.5q0 -37 -29 -55.5t-63 -16.5q-51 2 -88 36t-72 67l-125 121l-30.5 30.5t-36 40t-29 44t-11.5 40.5z" />
<glyph unicode="&#xac;" horiz-adv-x="1228" d="M104 635v235h1033v-596h-236v361h-797z" />
<glyph unicode="&#xad;" horiz-adv-x="819" d="M61 553q0 82 41 111.5t119 29.5h377q78 0 119 -29.5t41 -111.5t-41 -111.5t-119 -29.5h-377q-78 0 -119 29.5t-41 111.5z" />
<glyph unicode="&#xae;" horiz-adv-x="1515" d="M25 694q0 154 58 288t158.5 234.5t235.5 159t289 58.5t288 -58.5t234.5 -159t158.5 -234.5t58 -288t-58 -289t-158.5 -235t-234.5 -158.5t-288 -58.5t-289 58.5t-235.5 158.5t-158.5 235.5t-58 288.5zM164 694q0 -125 47 -234.5t129 -191.5t191.5 -129t234.5 -47 t233.5 47t190.5 129t129 191.5t47 234.5t-47 233.5t-129 190.5t-190.5 129t-233.5 47t-234.5 -47t-191.5 -129t-129 -190.5t-47 -233.5zM422 319v50h14q39 0 57.5 5t18.5 46v592q0 29 -15.5 33t-37.5 4h-33v53h328q53 0 116.5 -2t110.5 -29q47 -25 70.5 -72t23.5 -98 q0 -39 -16.5 -72.5t-43 -60.5t-61 -43t-71.5 -23v-4q37 -2 64.5 -27.5t51 -62.5t43 -79t39 -77.5t40 -59t46.5 -23.5v-50h-123q-20 0 -43.5 1.5t-39.5 13.5q-14 8 -27.5 27.5t-26 43t-21.5 45t-16 37.5q-6 12 -14 34t-19.5 45.5t-21.5 44t-18 30.5q-18 23 -38 24t-44 1h-29 v-236q0 -25 6 -43t35 -18h43v-50h-348zM686 731q25 -6 45 -6q170 0 170 166q0 70 -37 111.5t-108 41.5h-29.5t-28.5 -2q-10 -4 -11 -9t-1 -13v-289z" />
<glyph unicode="&#xaf;" horiz-adv-x="1064" d="M141 1337q0 72 37 104t105 29h522q135 0 135 -133q0 -72 -35 -103.5t-100 -31.5h-526q-137 0 -138 135z" />
<glyph unicode="&#xb0;" horiz-adv-x="819" d="M102 1126q0 63 24 118.5t65.5 97.5t98 67t120.5 25q63 0 118.5 -25t97.5 -67t66.5 -97.5t24.5 -118.5t-24.5 -119.5t-66.5 -97.5t-97.5 -65.5t-118.5 -24.5t-120 24.5t-97.5 65.5t-65.5 97.5t-25 119.5zM225 1126q0 -78 53.5 -131t131.5 -53t131 53t53 131t-53.5 131.5 t-130.5 53.5q-39 0 -73 -14.5t-58.5 -39t-39 -58.5t-14.5 -73z" />
<glyph unicode="&#xb1;" horiz-adv-x="1228" d="M104 -10v237h1033v-237h-1033zM104 588v237h398v238h237v-238h398v-237h-398v-238h-237v238h-398z" />
<glyph unicode="&#xb2;" horiz-adv-x="811" d="M16 702q0 63 26 112.5t69 87.5t97 65.5t109 50.5q25 10 58 21.5t60.5 27.5t47 37.5t19.5 52.5q0 41 -38 61.5t-77 20.5q-29 0 -52.5 -4t-45.5 -21q12 -16 19 -30.5t7 -32.5q0 -53 -41 -85t-96 -32q-59 0 -97 41t-38 94q0 66 34 111t86 72.5t115.5 40t122.5 12.5 q66 0 128.5 -14.5t111.5 -45t79 -78.5t30 -118q0 -66 -31 -113t-79 -78.5t-107.5 -53t-116.5 -38.5q-29 -8 -61.5 -18t-62.5 -24.5t-51.5 -36t-23.5 -52.5l4 -4q20 33 55 51.5t76 18.5q43 0 76 -16.5t61.5 -36t53 -36t51.5 -16.5q10 0 20.5 6.5t20.5 14.5q-37 4 -60.5 26.5 t-23.5 57.5q0 41 32.5 66.5t73.5 25.5q68 0 103 -49t35 -107q0 -41 -16.5 -81t-44 -71.5t-67.5 -51t-85 -19.5q-53 0 -94.5 20.5t-74 44t-58 44t-44.5 20.5q-8 0 -12 -3t-10 -7q4 -8 6 -14.5t2 -14.5q0 -43 -35 -66.5t-80 -23.5q-41 0 -72.5 16.5t-52 43t-31 60.5t-10.5 68z " />
<glyph unicode="&#xb3;" horiz-adv-x="811" d="M18 762q0 55 39 98t103 43q53 0 90 -32.5t37 -82.5q0 -41 -35 -71q29 -23 59.5 -30t65.5 -7q31 0 62.5 7t57 22.5t41 39t15.5 56.5q0 39 -39 74.5t-133 35.5q-37 0 -50.5 14.5t-13.5 49.5q0 14 1 25.5t7.5 22.5t17.5 24.5t32 33.5l125 125h-181h-22t-24.5 -2t-20.5 -9 t-8 -19q0 -14 6 -30.5t6 -39.5q0 -47 -28.5 -75.5t-82.5 -28.5q-45 0 -72.5 26.5t-23.5 67.5q2 31 6 62.5t4 64.5q0 25 -5 49t-5 49q0 45 32 52t85 7h522q53 2 73.5 -12t20.5 -65q0 -47 -14 -71t-49 -56l-148 -142q102 -6 162 -70.5t60 -156.5q0 -80 -36 -137.5t-94.5 -92 t-133 -51t-150.5 -16.5q-66 0 -130.5 14.5t-115.5 44t-83 76.5t-32 113z" />
<glyph unicode="&#xb4;" horiz-adv-x="819" d="M182 1282q0 27 14.5 47.5t35 35.5t44 27.5t41.5 22.5l154 82q31 16 66.5 31.5t70.5 15.5q29 0 52.5 -13t40 -34.5t25.5 -47.5t9 -52q0 -31 -16.5 -52.5t-41 -38t-53 -27.5t-51.5 -19l-143 -58q-31 -12 -75 -26.5t-76 -14.5q-45 0 -71 41t-26 80z" />
<glyph unicode="&#xb5;" d="M-39 907q0 59 29.5 100.5t101.5 41.5q49 0 92 -10.5t95 -10.5q47 0 76.5 10.5t68.5 10.5q41 0 47 -26t6 -67v-510q0 -33 3 -78.5t22 -76.5q18 -29 49 -46.5t65 -17.5q45 0 84 21.5t64 60.5q33 49 40 101.5t7 109.5v142q0 84 -7 113.5t-30 29.5q-8 0 -15 -2t-16 -4 q-10 -4 -18 -6t-18 -2q-51 0 -71 34.5t-20 81.5q0 59 29 100.5t96 41.5q51 0 90 -10.5t91 -10.5q41 0 73.5 10.5t71.5 10.5q41 0 53.5 -16.5t12.5 -51.5v-614q0 -92 10 -118t26 -26t32 7.5t36 7.5q51 0 70.5 -35t19.5 -82q0 -59 -27.5 -100t-93.5 -41q-39 0 -74.5 10 t-70.5 10t-67.5 -10t-61.5 -10q-39 0 -56.5 21.5t-17.5 45.5v82h-4q-57 -86 -156.5 -131t-203.5 -45h-39q2 -66 12 -125t10 -131q0 -45 -14 -75t-39 -46t-55.5 -23.5t-63.5 -7.5t-63.5 7.5t-55 23.5t-39 46t-14.5 75q0 84 11.5 182t11.5 227v556q0 47 -3 74.5t-7.5 43 t-11.5 20.5t-15 5t-15.5 -2t-15.5 -4q-10 -4 -18.5 -6t-18.5 -2q-51 0 -70.5 34.5t-19.5 81.5z" />
<glyph unicode="&#xb6;" horiz-adv-x="1392" d="M61 997q0 201 107.5 304.5t306.5 103.5q96 0 189.5 -10.5t189.5 -10.5q72 0 144.5 10.5t144.5 10.5q115 0 114 -119q0 -37 -18 -68.5t-59 -31.5q-16 0 -30.5 5t-29.5 5q-12 0 -19 -4t-12.5 -18.5t-7.5 -42t-2 -72.5v-1272q0 -98 -21.5 -130t-68.5 -32q-53 0 -72.5 35 t-19.5 127v1360q0 53 -9 70.5t-40 17.5q-35 0 -47.5 -18.5t-12.5 -77.5v-1352q0 -96 -19 -129t-71 -33q-51 0 -71.5 32t-20.5 130v692q0 37 -6 59.5t-20.5 33t-38 14.5t-58.5 4q-195 4 -308.5 103.5t-113.5 303.5zM403 967q0 -49 4.5 -93.5t32.5 -85.5q10 -16 26.5 -27 t39.5 -11q35 0 55.5 13t30.5 43t13 79t3 121v91t-16 89q-10 25 -32.5 44t-51.5 19q-23 0 -42.5 -12t-32.5 -43t-21.5 -86t-8.5 -141z" />
<glyph unicode="&#xb7;" horiz-adv-x="655" d="M121 553q0 45 16.5 84t46 67.5t68.5 45t82 16.5q45 0 84 -16.5t67.5 -45t46 -67.5t17.5 -84t-17.5 -84t-46 -67.5t-67.5 -45t-84 -16.5q-43 0 -82 16.5t-68.5 45t-46 67.5t-16.5 84z" />
<glyph unicode="&#xb8;" horiz-adv-x="819" d="M139 -350q0 25 16.5 44t43.5 19q33 0 85 -19.5t111 -19.5q12 0 30.5 2t36 7.5t29 15.5t11.5 29q0 16 -11.5 25t-26.5 14.5t-31.5 6.5t-29.5 1q-27 0 -52 -2t-52 -2q-59 0 -59 57q0 31 12 54.5t29 49.5l34 58h168l-47 -109q16 2 32.5 5t33.5 3q35 0 68.5 -10t59 -29.5 t41 -48t15.5 -67.5q0 -43 -22.5 -80t-55.5 -64q-45 -37 -101 -51t-114 -14q-27 0 -69.5 6t-83.5 19.5t-71 38t-30 61.5z" />
<glyph unicode="&#xb9;" horiz-adv-x="811" d="M129 616q0 29 16.5 55.5t51.5 26.5q16 0 30.5 -4t30.5 -4q18 0 25.5 22.5t7.5 78.5v339q0 59 -7.5 79t-25.5 20q-16 0 -30.5 -4t-30.5 -4q-35 0 -51.5 26.5t-16.5 55.5q0 41 23.5 67.5t68.5 26.5q31 0 61.5 -6.5t63.5 -6.5q25 0 54.5 6.5t60.5 6.5q43 0 51 -19.5t8 -68.5 v-518q0 -59 9.5 -80t25.5 -21t29.5 4t29.5 4q35 0 52.5 -26.5t17.5 -55.5q0 -41 -24.5 -67.5t-69.5 -26.5q-51 0 -99.5 6.5t-82.5 6.5q-51 0 -101.5 -6.5t-101.5 -6.5q-33 0 -54.5 26.5t-21.5 67.5z" />
<glyph unicode="&#xba;" horiz-adv-x="942" d="M127 649q0 25 13.5 37t31.5 18.5t35.5 6.5h25.5h465q6 0 23.5 -1t35 -6.5t32 -17.5t14.5 -33q0 -25 -13.5 -38t-31 -18t-34.5 -5h-26h-465h-25.5t-35.5 5t-31.5 16.5t-13.5 35.5zM164 1135q0 141 78 220t219 79q143 0 224 -77t81 -222q0 -135 -77 -217t-214 -82 q-145 0 -228 74.5t-83 224.5zM352 1135q0 -29 5 -57.5t18.5 -52.5t35 -38t56.5 -14t56.5 15.5t33.5 38t16.5 51t4.5 57.5q0 27 -4.5 56.5t-16.5 52t-33.5 37.5t-56.5 15t-56.5 -14t-35 -37.5t-18.5 -52.5t-5 -57z" />
<glyph unicode="&#xbb;" horiz-adv-x="1105" d="M98 279q2 35 22.5 63.5t43.5 56.5l94 115q6 8 17.5 23.5t11.5 25.5q2 10 -6.5 19.5t-14.5 17.5l-51 62q-14 16 -34.5 39.5t-39 48t-31 51t-12.5 49.5q2 35 29 53.5t63 16.5q51 -2 88 -36t72 -67l123 -121l31.5 -31.5t37 -41t29 -43t11.5 -39.5q-2 -31 -22.5 -53.5 t-41.5 -41.5l-190 -165q-14 -12 -33 -28.5t-40.5 -32t-44 -25t-40.5 -9.5q-33 2 -53.5 32t-18.5 61zM596 279q2 35 22.5 63.5t43.5 56.5l94 115q6 8 17 23.5t11 25.5q2 10 -6 19.5t-14 17.5l-53 66q-12 14 -33 36.5t-39 47t-30.5 51t-12.5 49.5q2 37 28.5 54.5t61.5 15.5 q53 -2 90 -36t72 -67l123 -121q12 -12 30.5 -31.5t36 -41t29.5 -43t12 -39.5q-2 -31 -22.5 -53.5t-42.5 -41.5l-189 -165q-14 -12 -32.5 -28.5t-40 -32t-44 -25t-40.5 -9.5q-33 2 -53.5 32t-18.5 61z" />
<glyph unicode="&#xbc;" horiz-adv-x="2027" d="M129 616q0 29 16.5 55.5t51.5 26.5q16 0 30.5 -4t30.5 -4q18 0 25.5 22.5t7.5 78.5v339q0 59 -7.5 79t-25.5 20q-16 0 -30.5 -4t-30.5 -4q-35 0 -51.5 26.5t-16.5 55.5q0 41 23.5 67.5t68.5 26.5q31 0 61.5 -6.5t63.5 -6.5q25 0 54.5 6.5t60.5 6.5q43 0 51 -19.5t8 -68.5 v-518q0 -59 9.5 -80t25.5 -21t29.5 4t29.5 4q35 0 52.5 -26.5t17.5 -55.5q0 -41 -24.5 -67.5t-69.5 -26.5q-51 0 -99.5 6.5t-82.5 6.5q-51 0 -101.5 -6.5t-101.5 -6.5q-33 0 -54.5 26.5t-21.5 67.5zM553 0q0 16 6 28.5t14 28.5l637 1289q10 20 17.5 32.5t16.5 19.5t22.5 9 t38.5 2q10 0 25.5 -1t28.5 -4t22.5 -12.5t9.5 -23.5q0 -12 -10.5 -30.5t-14.5 -28.5l-631 -1276q-10 -20 -16 -34.5t-14.5 -23t-22.5 -11.5t-39 -3h-27.5t-29 3t-23.5 11.5t-10 24.5zM1118 299q0 41 18.5 74t41.5 65l239 342q12 18 24.5 33.5t35.5 26.5q27 12 60.5 16 t61.5 4q29 0 62 -6t53 -27q18 -16 19.5 -41.5t1.5 -52.5v-348h43q18 0 43.5 1t42.5 -9q18 -10 26 -29.5t8 -38.5q0 -18 -5 -37.5t-21 -29.5q-18 -14 -46 -14.5t-48 -0.5h-43q0 -18 3 -41.5t31 -23.5q16 0 28.5 2t29.5 -2q35 0 51 -26.5t16 -55.5q0 -39 -23.5 -65.5 t-68.5 -26.5q-43 0 -84 6t-73 6q-45 0 -88.5 -6t-86.5 -6q-59 0 -85.5 26.5t-26.5 65.5q0 29 17.5 55.5t51.5 26.5q23 2 38.5 -1t31.5 -3q23 0 28 17.5t5 31.5v20h-311q-18 0 -38 1t-36 14q-14 10 -20.5 25.5t-6.5 31.5zM1360 381h170v252h-4z" />
<glyph unicode="&#xbd;" horiz-adv-x="2027" d="M129 616q0 29 16.5 55.5t51.5 26.5q16 0 30.5 -4t30.5 -4q18 0 25.5 22.5t7.5 78.5v339q0 59 -7.5 79t-25.5 20q-16 0 -30.5 -4t-30.5 -4q-35 0 -51.5 26.5t-16.5 55.5q0 41 23.5 67.5t68.5 26.5q31 0 61.5 -6.5t63.5 -6.5q25 0 54.5 6.5t60.5 6.5q43 0 51 -19.5t8 -68.5 v-518q0 -59 9.5 -80t25.5 -21t29.5 4t29.5 4q35 0 52.5 -26.5t17.5 -55.5q0 -41 -24.5 -67.5t-69.5 -26.5q-51 0 -99.5 6.5t-82.5 6.5q-51 0 -101.5 -6.5t-101.5 -6.5q-33 0 -54.5 26.5t-21.5 67.5zM553 0q0 16 6 28.5t14 28.5l637 1289q10 20 17.5 32.5t16.5 19.5t22.5 9 t38.5 2q10 0 25.5 -1t28.5 -4t22.5 -12.5t9.5 -23.5q0 -12 -10.5 -30.5t-14.5 -28.5l-631 -1276q-10 -20 -16 -34.5t-14.5 -23t-22.5 -11.5t-39 -3h-27.5t-29 3t-23.5 11.5t-10 24.5zM1190 154q0 63 25.5 112t68.5 87t97.5 65.5t109.5 50.5q25 10 57.5 21.5t60 28t47 38 t19.5 51.5q0 41 -38 61.5t-76 20.5q-29 0 -52.5 -4t-46.5 -20q12 -16 19.5 -30.5t7.5 -33.5q0 -53 -41 -85t-96 -32q-59 0 -97 41t-38 95q0 66 33.5 110.5t86 72t116 40t122.5 12.5q66 0 128 -14.5t111.5 -45t79 -78.5t29.5 -118q0 -66 -30.5 -113t-79 -78.5t-107.5 -53 t-117 -38.5q-29 -8 -61.5 -18t-62 -24.5t-51 -36t-23.5 -52.5l4 -4q20 33 55 51.5t76 18.5q43 0 75.5 -16.5t61.5 -36t53.5 -36t50.5 -16.5q10 0 20.5 6.5t20.5 14.5q-37 4 -60.5 26.5t-23.5 57.5q0 41 33 66.5t74 25.5q68 0 102.5 -49t34.5 -107q0 -41 -16.5 -80.5 t-44 -71.5t-67.5 -51.5t-85 -19.5q-53 0 -94 20.5t-74 44t-58.5 44t-43.5 20.5q-8 0 -12.5 -3l-10.5 -7q4 -8 6 -14.5t2 -14.5q0 -43 -34.5 -66.5t-79.5 -23.5q-41 0 -73 16.5t-52.5 43t-30.5 60.5t-10 69z" />
<glyph unicode="&#xbe;" horiz-adv-x="2027" d="M80 762q0 55 39 98t102 43q53 0 90 -32.5t37 -82.5q0 -41 -35 -71q29 -23 59.5 -30t65.5 -7q31 0 62.5 7t57.5 22.5t41 39t15 56.5q0 39 -38.5 74.5t-133.5 35.5q-37 0 -50 14.5t-13 49.5q0 14 1 25.5t7 22.5t17.5 24.5t31.5 33.5l125 125h-180h-22.5t-24.5 -2t-20.5 -9 t-8.5 -19q0 -14 6 -30.5t6 -39.5q0 -47 -28.5 -75.5t-81.5 -28.5q-45 0 -73 26.5t-23 67.5q2 31 6 62.5t4 64.5q0 25 -5 49t-5 49q0 45 31.5 52t84.5 7h523q53 2 73.5 -12t20.5 -65q0 -47 -14.5 -71t-49.5 -56l-147 -142q102 -6 161.5 -70.5t59.5 -156.5q0 -80 -36 -137.5 t-94 -92t-133 -51t-151 -16.5q-66 0 -130 14.5t-115.5 44t-83 76.5t-31.5 113zM655 0q0 16 6.5 28.5t14.5 28.5l637 1289q10 20 17 32.5t16.5 19.5t22.5 9t38 2q10 0 25.5 -1t29 -4t22.5 -12.5t9 -23.5q0 -12 -10 -30.5t-15 -28.5l-630 -1276q-10 -20 -16.5 -34.5t-14.5 -23 t-22.5 -11.5t-39.5 -3h-27.5t-28.5 3t-23.5 11.5t-10.5 24.5zM1180 299q0 41 18.5 74t40.5 65l240 342q12 18 24.5 33.5t34.5 26.5q27 12 60.5 16t62.5 4t61.5 -6t53.5 -27q18 -16 19 -41.5t1 -52.5v-348h43q18 0 44 1t42 -9q18 -10 26.5 -29.5t8.5 -38.5q0 -18 -5 -37.5 t-22 -29.5q-18 -14 -45.5 -14.5t-48.5 -0.5h-43q0 -18 3 -41.5t32 -23.5q16 0 28.5 2t28.5 -2q35 0 51.5 -26.5t16.5 -55.5q0 -39 -23.5 -65.5t-68.5 -26.5q-43 0 -84 6t-74 6q-45 0 -88 -6t-86 -6q-59 0 -86 26.5t-27 65.5q0 29 17.5 55.5t52.5 26.5q23 2 38 -1t32 -3 q23 0 27.5 17.5t4.5 31.5v20h-311q-18 0 -37.5 1t-36.5 14q-14 10 -20 25.5t-6 31.5zM1421 381h170v252h-4z" />
<glyph unicode="&#xbf;" horiz-adv-x="1433" d="M154 33q0 76 26.5 150.5t79.5 127.5q25 25 58.5 45.5t71.5 36t76 26.5t73 19q41 8 61.5 19.5t22.5 56.5q2 37 11 56.5t26.5 28.5t43 10t58.5 3q45 2 83 1t63.5 -15t40 -44t14.5 -87q0 -61 -15.5 -103t-45.5 -69t-73 -43t-98 -29q-37 -8 -73.5 -20.5t-66.5 -34t-47.5 -53 t-17.5 -76.5q0 -43 20.5 -75t52.5 -52.5t72 -30.5t77 -10q47 0 95 12t83 47q-29 23 -46.5 51.5t-17.5 65.5q0 43 17.5 79t46 62.5t66.5 42t79 15.5q102 0 162.5 -63.5t60.5 -164.5q0 -113 -55 -193.5t-141 -131.5t-189.5 -75t-197.5 -24q-90 0 -188.5 22t-176.5 71 q-86 55 -139 148t-53 198zM600 881q0 84 58.5 141t142.5 57q41 0 77.5 -15t63.5 -43t42 -63.5t15 -76.5q0 -84 -57 -142.5t-141 -58.5t-142.5 58.5t-58.5 142.5z" />
<glyph unicode="&#xc0;" horiz-adv-x="1638" d="M-10 123q0 78 31.5 113.5t68.5 35.5q16 0 33.5 -2t36.5 -2q25 0 41 16.5t27.5 39t19.5 47t14 43.5l281 770q29 78 51 122t54 66.5t82 28.5t134 6q72 0 130.5 -3t90.5 -20q20 -10 32.5 -21t22 -27.5t16.5 -40t18 -58.5l249 -838q20 -66 35 -98.5t45 -32.5q16 0 31.5 2 t30.5 2q37 0 68.5 -32.5t31.5 -116.5q0 -61 -39 -102t-100 -41q-66 0 -120 10t-124 10q-68 0 -134.5 -10t-131.5 -10q-59 0 -98 37.5t-39 95.5q0 66 28.5 102.5t71.5 36.5q8 0 17.5 -1t21.5 -1q47 0 47 43q0 10 -2 18t-4 19q-4 16 -9.5 39.5t-13.5 36.5q-10 16 -25.5 18 t-37.5 2h-45h-189q-66 2 -85 -5t-27 -20q-4 -6 -9.5 -21t-9.5 -31.5t-7 -32t-3 -23.5q0 -39 41 -39q12 0 19.5 -1t15.5 -1q16 0 33.5 -6t33 -22.5t24.5 -43t9 -67.5q0 -57 -39 -95t-98 -38q-66 0 -120 10t-124 10q-68 0 -134 -10t-132 -10q-59 0 -98 40.5t-39 102.5z M530 1753q0 27 9.5 52.5t26 47t40 34.5t51.5 13q35 0 71 -15.5t67 -31.5l151 -82q18 -10 43 -22.5t45.5 -27.5t34.5 -35.5t14 -47.5q0 -39 -25.5 -80t-70.5 -41q-33 0 -77 14.5t-74 26.5l-144 58q-23 8 -51.5 19t-53 27.5t-41 38t-16.5 52.5zM733 719q0 -27 78 -27h55 q55 0 72.5 6.5t17.5 22.5q0 10 -3 27.5t-7 27.5l-84 379h-4l-119 -414q-2 -6 -4 -11t-2 -11z" />
<glyph unicode="&#xc1;" horiz-adv-x="1638" d="M-10 123q0 78 31.5 113.5t68.5 35.5q16 0 33.5 -2t36.5 -2q25 0 41 16.5t27.5 39t19.5 47t14 43.5l281 770q29 78 51 122t54 66.5t82 28.5t134 6q72 0 130.5 -3t90.5 -20q20 -10 32.5 -21t22 -27.5t16.5 -40t18 -58.5l249 -838q20 -66 35 -98.5t45 -32.5q16 0 31.5 2 t30.5 2q37 0 68.5 -32.5t31.5 -116.5q0 -61 -39 -102t-100 -41q-66 0 -120 10t-124 10q-68 0 -134.5 -10t-131.5 -10q-59 0 -98 37.5t-39 95.5q0 66 28.5 102.5t71.5 36.5q8 0 17.5 -1t21.5 -1q47 0 47 43q0 10 -2 18t-4 19q-4 16 -9.5 39.5t-13.5 36.5q-10 16 -25.5 18 t-37.5 2h-45h-189q-66 2 -85 -5t-27 -20q-4 -6 -9.5 -21t-9.5 -31.5t-7 -32t-3 -23.5q0 -39 41 -39q12 0 19.5 -1t15.5 -1q16 0 33.5 -6t33 -22.5t24.5 -43t9 -67.5q0 -57 -39 -95t-98 -38q-66 0 -120 10t-124 10q-68 0 -134 -10t-132 -10q-59 0 -98 40.5t-39 102.5z M633 1638q0 27 14.5 47.5t35 35.5t44 27.5t41.5 22.5l154 82q31 16 66.5 31.5t70.5 15.5q29 0 52.5 -13t40 -34.5t25.5 -47.5t9 -52q0 -31 -16.5 -52.5t-41 -38t-53 -27.5t-51.5 -19l-143 -58q-31 -12 -75 -26.5t-76 -14.5q-45 0 -71 41t-26 80zM733 719q0 -27 78 -27h55 q55 0 72.5 6.5t17.5 22.5q0 10 -3 27.5t-7 27.5l-84 379h-4l-119 -414q-2 -6 -4 -11t-2 -11z" />
<glyph unicode="&#xc2;" horiz-adv-x="1638" d="M-10 123q0 78 31.5 113.5t68.5 35.5q16 0 33.5 -2t36.5 -2q25 0 41 16.5t27.5 39t19.5 47t14 43.5l281 770q29 78 51 122t54 66.5t82 28.5t134 6q72 0 130.5 -3t90.5 -20q20 -10 32.5 -21t22 -27.5t16.5 -40t18 -58.5l249 -838q20 -66 35 -98.5t45 -32.5q16 0 31.5 2 t30.5 2q37 0 68.5 -32.5t31.5 -116.5q0 -61 -39 -102t-100 -41q-66 0 -120 10t-124 10q-68 0 -134.5 -10t-131.5 -10q-59 0 -98 37.5t-39 95.5q0 66 28.5 102.5t71.5 36.5q8 0 17.5 -1t21.5 -1q47 0 47 43q0 10 -2 18t-4 19q-4 16 -9.5 39.5t-13.5 36.5q-10 16 -25.5 18 t-37.5 2h-45h-189q-66 2 -85 -5t-27 -20q-4 -6 -9.5 -21t-9.5 -31.5t-7 -32t-3 -23.5q0 -39 41 -39q12 0 19.5 -1t15.5 -1q16 0 33.5 -6t33 -22.5t24.5 -43t9 -67.5q0 -57 -39 -95t-98 -38q-66 0 -120 10t-124 10q-68 0 -134 -10t-132 -10q-59 0 -98 40.5t-39 102.5z M448 1606q0 31 12.5 51t33 35.5t44 27t45.5 23.5l95 49q20 10 46.5 24.5t55.5 27t57.5 20.5t51.5 8q20 0 46.5 -9t53.5 -21.5t52.5 -27t43.5 -22.5l88 -49q18 -10 41 -22.5t41.5 -28t30.5 -34.5t12 -44q0 -37 -22.5 -77t-63.5 -40q-29 0 -61.5 12.5t-61.5 22.5l-209 78 l-213 -78q-29 -10 -68.5 -22.5t-68.5 -12.5q-41 0 -61.5 37t-20.5 72zM733 719q0 -27 78 -27h55q55 0 72.5 6.5t17.5 22.5q0 10 -3 27.5t-7 27.5l-84 379h-4l-119 -414q-2 -6 -4 -11t-2 -11z" />
<glyph unicode="&#xc3;" horiz-adv-x="1638" d="M-10 123q0 78 31.5 113.5t68.5 35.5q16 0 33.5 -2t36.5 -2q25 0 41 16.5t27.5 39t19.5 47t14 43.5l281 770q29 78 51 122t54 66.5t82 28.5t134 6q72 0 130.5 -3t90.5 -20q20 -10 32.5 -21t22 -27.5t16.5 -40t18 -58.5l249 -838q20 -66 35 -98.5t45 -32.5q16 0 31.5 2 t30.5 2q37 0 68.5 -32.5t31.5 -116.5q0 -61 -39 -102t-100 -41q-66 0 -120 10t-124 10q-68 0 -134.5 -10t-131.5 -10q-59 0 -98 37.5t-39 95.5q0 66 28.5 102.5t71.5 36.5q8 0 17.5 -1t21.5 -1q47 0 47 43q0 10 -2 18t-4 19q-4 16 -9.5 39.5t-13.5 36.5q-10 16 -25.5 18 t-37.5 2h-45h-189q-66 2 -85 -5t-27 -20q-4 -6 -9.5 -21t-9.5 -31.5t-7 -32t-3 -23.5q0 -39 41 -39q12 0 19.5 -1t15.5 -1q16 0 33.5 -6t33 -22.5t24.5 -43t9 -67.5q0 -57 -39 -95t-98 -38q-66 0 -120 10t-124 10q-68 0 -134 -10t-132 -10q-59 0 -98 40.5t-39 102.5z M428 1632q0 41 20.5 80t49.5 65q39 37 96.5 57.5t110.5 20.5q43 0 85 -13.5t82 -28.5t77.5 -28.5t72.5 -13.5q31 0 49 11.5t43 27.5t40.5 25.5t45.5 9.5q45 0 69 -32t24 -73q0 -53 -29 -94t-72 -69.5t-94 -44t-96 -15.5t-87 13.5t-81 29t-71 28.5t-56 13q-25 0 -43.5 -11 t-38.5 -24q-20 -16 -44 -31.5t-52 -15.5q-47 0 -74 34t-27 79zM733 719q0 -27 78 -27h55q55 0 72.5 6.5t17.5 22.5q0 10 -3 27.5t-7 27.5l-84 379h-4l-119 -414q-2 -6 -4 -11t-2 -11z" />
<glyph unicode="&#xc4;" horiz-adv-x="1638" d="M-10 123q0 78 31.5 113.5t68.5 35.5q16 0 33.5 -2t36.5 -2q25 0 41 16.5t27.5 39t19.5 47t14 43.5l281 770q29 78 51 122t54 66.5t82 28.5t134 6q72 0 130.5 -3t90.5 -20q20 -10 32.5 -21t22 -27.5t16.5 -40t18 -58.5l249 -838q20 -66 35 -98.5t45 -32.5q16 0 31.5 2 t30.5 2q37 0 68.5 -32.5t31.5 -116.5q0 -61 -39 -102t-100 -41q-66 0 -120 10t-124 10q-68 0 -134.5 -10t-131.5 -10q-59 0 -98 37.5t-39 95.5q0 66 28.5 102.5t71.5 36.5q8 0 17.5 -1t21.5 -1q47 0 47 43q0 10 -2 18t-4 19q-4 16 -9.5 39.5t-13.5 36.5q-10 16 -25.5 18 t-37.5 2h-45h-189q-66 2 -85 -5t-27 -20q-4 -6 -9.5 -21t-9.5 -31.5t-7 -32t-3 -23.5q0 -39 41 -39q12 0 19.5 -1t15.5 -1q16 0 33.5 -6t33 -22.5t24.5 -43t9 -67.5q0 -57 -39 -95t-98 -38q-66 0 -120 10t-124 10q-68 0 -134 -10t-132 -10q-59 0 -98 40.5t-39 102.5z M469 1700q0 76 52.5 128t128.5 52t129 -52t53 -128t-53.5 -129t-128.5 -53q-76 0 -128.5 53t-52.5 129zM733 719q0 -27 78 -27h55q55 0 72.5 6.5t17.5 22.5q0 10 -3 27.5t-7 27.5l-84 379h-4l-119 -414q-2 -6 -4 -11t-2 -11zM903 1700q0 76 53.5 128t129.5 52t129 -52 t53 -128t-53 -129t-129 -53t-129.5 53t-53.5 129z" />
<glyph unicode="&#xc5;" horiz-adv-x="1638" d="M-10 123q0 78 31.5 113.5t68.5 35.5q16 0 33.5 -2t36.5 -2q25 0 41 16.5t27.5 39t19.5 47t14 43.5l281 770q29 78 51 122t54 66.5t82 28.5t134 6q72 0 130.5 -3t90.5 -20q20 -10 32.5 -21t22 -27.5t16.5 -40t18 -58.5l249 -838q20 -66 35 -98.5t45 -32.5q16 0 31.5 2 t30.5 2q37 0 68.5 -32.5t31.5 -116.5q0 -61 -39 -102t-100 -41q-66 0 -120 10t-124 10q-68 0 -134.5 -10t-131.5 -10q-59 0 -98 37.5t-39 95.5q0 66 28.5 102.5t71.5 36.5q8 0 17.5 -1t21.5 -1q47 0 47 43q0 10 -2 18t-4 19q-4 16 -9.5 39.5t-13.5 36.5q-10 16 -25.5 18 t-37.5 2h-45h-189q-66 2 -85 -5t-27 -20q-4 -6 -9.5 -21t-9.5 -31.5t-7 -32t-3 -23.5q0 -39 41 -39q12 0 19.5 -1t15.5 -1q16 0 33.5 -6t33 -22.5t24.5 -43t9 -67.5q0 -57 -39 -95t-98 -38q-66 0 -120 10t-124 10q-68 0 -134 -10t-132 -10q-59 0 -98 40.5t-39 102.5z M673 1669q0 43 16.5 82t45 67.5t67.5 45t82 16.5t81 -16.5t67.5 -45t46 -67.5t16.5 -82t-16.5 -81t-46 -67.5t-67.5 -46t-81 -16.5t-82 16.5t-67.5 46t-45 67.5t-16.5 81zM733 719q0 -27 78 -27h55q55 0 72.5 6.5t17.5 22.5q0 10 -3 27.5t-7 27.5l-84 379h-4l-119 -414 q-2 -6 -4 -11t-2 -11zM796 1669q0 -37 24.5 -62.5t63.5 -25.5q37 0 62.5 25.5t25.5 62.5q0 39 -25.5 63.5t-62.5 24.5q-39 0 -63.5 -24.5t-24.5 -63.5z" />
<glyph unicode="&#xc6;" horiz-adv-x="2293" d="M-20 123q0 43 9 70.5t23.5 45t31.5 24.5t36 9q20 2 38.5 -4t35.5 -6q10 0 23 11.5t33.5 41t51.5 83t78 137.5l420 761q29 51 60.5 80t90.5 29q41 0 131.5 -10.5t196.5 -10.5q117 0 220.5 3.5t202.5 7.5t201.5 7t215.5 3q55 0 90 -14.5t35 -57.5q0 -61 -9.5 -121.5 t-9.5 -119.5q0 -43 9.5 -84t9.5 -84q0 -70 -44 -111t-112 -41q-76 0 -116 42t-40 118q0 39 9.5 75.5t9.5 73.5q0 39 -26.5 51.5t-92.5 12.5h-195q-41 0 -65.5 -5t-36.5 -16.5t-16 -30t-4 -46.5v-105q0 -59 8 -73.5t43 -14.5q43 0 63.5 12.5t20.5 59.5q0 16 -2 31.5t-2 31.5 q0 41 32.5 60.5t67.5 19.5q47 0 80 -20.5t33 -73.5q0 -61 -8.5 -124t-8.5 -124q0 -47 8.5 -90t8.5 -88q0 -78 -22.5 -118t-82.5 -40q-66 0 -90.5 35t-21.5 94q2 57 -13.5 73.5t-56.5 16.5q-35 0 -46 -17.5t-11 -64.5v-118q0 -55 9 -87t28.5 -47.5t49 -19.5t72.5 -4h154 q84 0 112.5 25.5t28.5 72.5q0 35 -6 72t-6 72q0 70 41 121t119 51t117.5 -48.5t39.5 -121.5q0 -61 -9 -122t-9 -120q0 -43 9 -84t9 -84q0 -31 -14 -51.5t-36.5 -32.5t-50.5 -17t-52 -5q-98 0 -193.5 3t-192 7t-196.5 7t-209 3q-59 0 -102 -3t-77 -7t-64.5 -7t-67.5 -3 q-51 0 -88 40.5t-37 102.5q0 76 28.5 110.5t71.5 38.5q31 2 52.5 -5t44.5 -7q33 0 45 31t12 110v146q0 35 -6 46t-41 11h-195q-41 0 -64.5 -2t-38.5 -10t-27.5 -24.5t-28.5 -43.5l-52 -84q-43 -72 -53 -95t-10 -40q0 -18 12 -27.5t29 -9.5q12 0 19 2t18 2q41 0 70.5 -35.5 t29.5 -113.5q0 -61 -39 -102t-100 -41q-66 0 -122 10t-122 10q-68 0 -134.5 -10t-131.5 -10q-63 0 -102 40.5t-39 102.5zM883 879q0 -23 12 -30t47 -7h107q37 0 48 14t11 68v209q0 43 -41 43q-23 0 -37 -17.5t-45 -75.5l-84 -157q-6 -10 -12 -21.5t-6 -25.5z" />
<glyph unicode="&#xc7;" horiz-adv-x="1392" d="M61 682q0 61 7.5 129t21.5 134.5t38 130t58 114.5q78 121 207 182.5t273 61.5q104 0 191 -34t159 -112l4 4q-8 59 28.5 96t98.5 37q59 0 95 -35.5t36 -95.5q0 -53 -8 -103t-8 -104q0 -41 8 -82.5t8 -82.5q0 -35 -15.5 -61.5t-40 -44t-55 -27t-61.5 -9.5q-162 0 -156 162 q2 45 -3 72.5t-34 62.5q-33 39 -80 51.5t-94 12.5q-72 0 -125 -24.5t-89 -78t-53 -140.5t-17 -212q0 -236 71.5 -339t223.5 -103q41 0 84 9t73 38q37 35 44 69.5t7 81.5q0 35 3.5 65t23.5 60q20 31 54 44.5t71 13.5q100 0 146.5 -63.5t46.5 -155.5q0 -109 -43 -190 t-114 -136t-162 -86t-187 -37l-33 -76q16 2 32.5 5t32.5 3q35 0 69 -10t59.5 -29.5t41 -48t15.5 -67.5q0 -43 -22.5 -80t-55.5 -64q-45 -37 -101.5 -51t-113.5 -14q-27 0 -70 6t-84 19.5t-70.5 38t-29.5 61.5q0 25 16.5 44t42.5 19q33 0 85.5 -19.5t111.5 -19.5q12 0 30.5 2 t36 7.5t28.5 15.5t11 29q0 16 -11 25t-26.5 14.5t-32 6.5t-28.5 1q-27 0 -52.5 -2t-51.5 -2q-59 0 -60 57q0 31 12.5 54.5t28.5 49.5l19 29q-111 12 -211.5 56t-177.5 130q-47 49 -80 115t-54.5 136.5t-32 143t-10.5 140.5z" />
<glyph unicode="&#xc8;" horiz-adv-x="1515" d="M25 135q0 70 34.5 103.5t71.5 33.5q23 0 45.5 -7t46.5 -7q37 0 44 39t7 127v537q0 90 -9 127.5t-38 37.5t-52 -7t-52 -7q-25 0 -43.5 12.5t-30.5 33t-18 45t-6 46.5q0 66 36.5 111t108.5 45q37 0 71.5 -3t71.5 -7t78 -7.5t90 -3.5q174 0 379 10.5t408 10.5 q86 0 118.5 -26.5t32.5 -78.5q0 -55 -9 -106t-9 -98t9 -92.5t9 -92.5q0 -66 -48 -105.5t-111 -39.5q-78 0 -117 45t-39 119q0 39 9 74.5t9 72.5q0 20 -6 32.5t-23.5 19t-50 8.5t-84.5 2h-155q-49 0 -79 -3t-45 -15.5t-20.5 -36t-5.5 -62.5v-109q0 -35 12.5 -48t47.5 -13 q55 0 73.5 19.5t18.5 48.5q0 16 -2 30.5t-2 28.5q0 45 29.5 66.5t70.5 21.5q115 0 115 -109q0 -47 -8.5 -95t-8.5 -95q0 -66 8.5 -131.5t8.5 -130.5q0 -57 -26.5 -89t-86.5 -32q-47 0 -75.5 28.5t-28.5 75.5q0 16 2 32t2 32q0 29 -18.5 39t-71.5 10q-43 0 -51.5 -17.5 t-8.5 -74.5v-107q0 -51 6.5 -81.5t26 -46t57 -19.5t99.5 -4h102q86 0 144.5 19.5t58.5 84.5q0 35 -7 69t-7 69q0 74 40.5 122t126.5 48q78 0 115 -51.5t37 -123.5q0 -59 -8 -120.5t-8 -120.5q0 -41 8 -81t8 -81q0 -53 -36 -79.5t-85 -26.5q-158 0 -352.5 10t-437.5 10 q-84 0 -158 -10t-154 -10q-115 0 -159.5 45t-44.5 110zM448 1753q0 27 9.5 52.5t26 47t40 34.5t51.5 13q35 0 71 -15.5t67 -31.5l151 -82q18 -10 43 -22.5t45.5 -27.5t34.5 -35.5t14 -47.5q0 -39 -25.5 -80t-70.5 -41q-33 0 -77 14.5t-74 26.5l-144 58q-23 8 -51.5 19 t-53 27.5t-41 38t-16.5 52.5z" />
<glyph unicode="&#xc9;" horiz-adv-x="1515" d="M25 135q0 70 34.5 103.5t71.5 33.5q23 0 45.5 -7t46.5 -7q37 0 44 39t7 127v537q0 90 -9 127.5t-38 37.5t-52 -7t-52 -7q-25 0 -43.5 12.5t-30.5 33t-18 45t-6 46.5q0 66 36.5 111t108.5 45q37 0 71.5 -3t71.5 -7t78 -7.5t90 -3.5q174 0 379 10.5t408 10.5 q86 0 118.5 -26.5t32.5 -78.5q0 -55 -9 -106t-9 -98t9 -92.5t9 -92.5q0 -66 -48 -105.5t-111 -39.5q-78 0 -117 45t-39 119q0 39 9 74.5t9 72.5q0 20 -6 32.5t-23.5 19t-50 8.5t-84.5 2h-155q-49 0 -79 -3t-45 -15.5t-20.5 -36t-5.5 -62.5v-109q0 -35 12.5 -48t47.5 -13 q55 0 73.5 19.5t18.5 48.5q0 16 -2 30.5t-2 28.5q0 45 29.5 66.5t70.5 21.5q115 0 115 -109q0 -47 -8.5 -95t-8.5 -95q0 -66 8.5 -131.5t8.5 -130.5q0 -57 -26.5 -89t-86.5 -32q-47 0 -75.5 28.5t-28.5 75.5q0 16 2 32t2 32q0 29 -18.5 39t-71.5 10q-43 0 -51.5 -17.5 t-8.5 -74.5v-107q0 -51 6.5 -81.5t26 -46t57 -19.5t99.5 -4h102q86 0 144.5 19.5t58.5 84.5q0 35 -7 69t-7 69q0 74 40.5 122t126.5 48q78 0 115 -51.5t37 -123.5q0 -59 -8 -120.5t-8 -120.5q0 -41 8 -81t8 -81q0 -53 -36 -79.5t-85 -26.5q-158 0 -352.5 10t-437.5 10 q-84 0 -158 -10t-154 -10q-115 0 -159.5 45t-44.5 110zM530 1638q0 27 14.5 47.5t35 35.5t44 27.5t41.5 22.5l154 82q31 16 66.5 31.5t70.5 15.5q29 0 52.5 -13t40 -34.5t25.5 -47.5t9 -52q0 -31 -16.5 -52.5t-41 -38t-53 -27.5t-51.5 -19l-143 -58q-31 -12 -75 -26.5 t-76 -14.5q-45 0 -71 41t-26 80z" />
<glyph unicode="&#xca;" horiz-adv-x="1515" d="M25 135q0 70 34.5 103.5t71.5 33.5q23 0 45.5 -7t46.5 -7q37 0 44 39t7 127v537q0 90 -9 127.5t-38 37.5t-52 -7t-52 -7q-25 0 -43.5 12.5t-30.5 33t-18 45t-6 46.5q0 66 36.5 111t108.5 45q37 0 71.5 -3t71.5 -7t78 -7.5t90 -3.5q174 0 379 10.5t408 10.5 q86 0 118.5 -26.5t32.5 -78.5q0 -55 -9 -106t-9 -98t9 -92.5t9 -92.5q0 -66 -48 -105.5t-111 -39.5q-78 0 -117 45t-39 119q0 39 9 74.5t9 72.5q0 20 -6 32.5t-23.5 19t-50 8.5t-84.5 2h-155q-49 0 -79 -3t-45 -15.5t-20.5 -36t-5.5 -62.5v-109q0 -35 12.5 -48t47.5 -13 q55 0 73.5 19.5t18.5 48.5q0 16 -2 30.5t-2 28.5q0 45 29.5 66.5t70.5 21.5q115 0 115 -109q0 -47 -8.5 -95t-8.5 -95q0 -66 8.5 -131.5t8.5 -130.5q0 -57 -26.5 -89t-86.5 -32q-47 0 -75.5 28.5t-28.5 75.5q0 16 2 32t2 32q0 29 -18.5 39t-71.5 10q-43 0 -51.5 -17.5 t-8.5 -74.5v-107q0 -51 6.5 -81.5t26 -46t57 -19.5t99.5 -4h102q86 0 144.5 19.5t58.5 84.5q0 35 -7 69t-7 69q0 74 40.5 122t126.5 48q78 0 115 -51.5t37 -123.5q0 -59 -8 -120.5t-8 -120.5q0 -41 8 -81t8 -81q0 -53 -36 -79.5t-85 -26.5q-158 0 -352.5 10t-437.5 10 q-84 0 -158 -10t-154 -10q-115 0 -159.5 45t-44.5 110zM346 1626q0 31 12.5 51t33 35.5t44 27t45.5 23.5l95 49q20 10 46.5 24.5t55.5 27t57.5 20.5t51.5 8q20 0 46.5 -9t53.5 -21.5t52.5 -27t43.5 -22.5l88 -49q18 -10 41 -22.5t41.5 -28t30.5 -34.5t12 -44 q0 -37 -22.5 -77t-63.5 -40q-29 0 -61.5 12.5t-61.5 22.5l-209 78l-213 -78q-29 -10 -68.5 -22.5t-68.5 -12.5q-41 0 -61.5 37t-20.5 72z" />
<glyph unicode="&#xcb;" horiz-adv-x="1515" d="M25 135q0 70 34.5 103.5t71.5 33.5q23 0 45.5 -7t46.5 -7q37 0 44 39t7 127v537q0 90 -9 127.5t-38 37.5t-52 -7t-52 -7q-25 0 -43.5 12.5t-30.5 33t-18 45t-6 46.5q0 66 36.5 111t108.5 45q37 0 71.5 -3t71.5 -7t78 -7.5t90 -3.5q174 0 379 10.5t408 10.5 q86 0 118.5 -26.5t32.5 -78.5q0 -55 -9 -106t-9 -98t9 -92.5t9 -92.5q0 -66 -48 -105.5t-111 -39.5q-78 0 -117 45t-39 119q0 39 9 74.5t9 72.5q0 20 -6 32.5t-23.5 19t-50 8.5t-84.5 2h-155q-49 0 -79 -3t-45 -15.5t-20.5 -36t-5.5 -62.5v-109q0 -35 12.5 -48t47.5 -13 q55 0 73.5 19.5t18.5 48.5q0 16 -2 30.5t-2 28.5q0 45 29.5 66.5t70.5 21.5q115 0 115 -109q0 -47 -8.5 -95t-8.5 -95q0 -66 8.5 -131.5t8.5 -130.5q0 -57 -26.5 -89t-86.5 -32q-47 0 -75.5 28.5t-28.5 75.5q0 16 2 32t2 32q0 29 -18.5 39t-71.5 10q-43 0 -51.5 -17.5 t-8.5 -74.5v-107q0 -51 6.5 -81.5t26 -46t57 -19.5t99.5 -4h102q86 0 144.5 19.5t58.5 84.5q0 35 -7 69t-7 69q0 74 40.5 122t126.5 48q78 0 115 -51.5t37 -123.5q0 -59 -8 -120.5t-8 -120.5q0 -41 8 -81t8 -81q0 -53 -36 -79.5t-85 -26.5q-158 0 -352.5 10t-437.5 10 q-84 0 -158 -10t-154 -10q-115 0 -159.5 45t-44.5 110zM366 1700q0 76 52.5 128t128.5 52t129 -52t53 -128t-53.5 -129t-128.5 -53q-76 0 -128.5 53t-52.5 129zM800 1700q0 76 53.5 128t129.5 52t129 -52t53 -128t-53 -129t-129 -53t-129.5 53t-53.5 129z" />
<glyph unicode="&#xcc;" horiz-adv-x="942" d="M25 135q0 23 7 47.5t19 44t30.5 32.5t41.5 13q16 0 29.5 -2t25.5 -4q12 -4 24.5 -6t28.5 -2q23 0 33 37t10 129v537q0 100 -11 132.5t-32 32.5q-29 0 -54 -7t-54 -7q-23 0 -41.5 12.5t-30.5 33t-19 45t-7 46.5q0 66 33.5 111t80.5 45q76 0 146.5 -10.5t160.5 -10.5 q80 0 158 10.5t156 10.5q70 0 106.5 -45t36.5 -111q0 -68 -33.5 -102.5t-72.5 -34.5q-10 0 -22.5 2t-22.5 6q-10 2 -22.5 4t-24.5 2q-29 0 -40.5 -32.5t-11.5 -132.5v-537q0 -98 10.5 -132t41.5 -34q12 0 24 2t23 6q10 2 22 4t23 2q27 0 46 -13t32.5 -32.5t20.5 -44t7 -47.5 q0 -66 -37 -110.5t-106 -44.5q-78 0 -156 10t-158 10q-78 0 -155.5 -10t-155.5 -10q-45 0 -77.5 45t-32.5 110zM161 1753q0 27 9.5 52.5t26 47t40 34.5t51.5 13q35 0 71 -15.5t67 -31.5l151 -82q18 -10 43 -22.5t45.5 -27.5t34.5 -35.5t14 -47.5q0 -39 -25.5 -80t-70.5 -41 q-33 0 -77 14.5t-74 26.5l-144 58q-23 8 -51.5 19t-53 27.5t-41 38t-16.5 52.5z" />
<glyph unicode="&#xcd;" horiz-adv-x="942" d="M25 135q0 23 7 47.5t19 44t30.5 32.5t41.5 13q16 0 29.5 -2t25.5 -4q12 -4 24.5 -6t28.5 -2q23 0 33 37t10 129v537q0 100 -11 132.5t-32 32.5q-29 0 -54 -7t-54 -7q-23 0 -41.5 12.5t-30.5 33t-19 45t-7 46.5q0 66 33.5 111t80.5 45q76 0 146.5 -10.5t160.5 -10.5 q80 0 158 10.5t156 10.5q70 0 106.5 -45t36.5 -111q0 -68 -33.5 -102.5t-72.5 -34.5q-10 0 -22.5 2t-22.5 6q-10 2 -22.5 4t-24.5 2q-29 0 -40.5 -32.5t-11.5 -132.5v-537q0 -98 10.5 -132t41.5 -34q12 0 24 2t23 6q10 2 22 4t23 2q27 0 46 -13t32.5 -32.5t20.5 -44t7 -47.5 q0 -66 -37 -110.5t-106 -44.5q-78 0 -156 10t-158 10q-78 0 -155.5 -10t-155.5 -10q-45 0 -77.5 45t-32.5 110zM243 1638q0 27 14.5 47.5t35 35.5t44 27.5t41.5 22.5l154 82q31 16 66.5 31.5t70.5 15.5q29 0 52.5 -13t40 -34.5t25.5 -47.5t9 -52q0 -31 -16.5 -52.5t-41 -38 t-53 -27.5t-51.5 -19l-143 -58q-31 -12 -75 -26.5t-76 -14.5q-45 0 -71 41t-26 80z" />
<glyph unicode="&#xce;" horiz-adv-x="942" d="M25 135q0 23 7 47.5t19 44t30.5 32.5t41.5 13q16 0 29.5 -2t25.5 -4q12 -4 24.5 -6t28.5 -2q23 0 33 37t10 129v537q0 100 -11 132.5t-32 32.5q-29 0 -54 -7t-54 -7q-23 0 -41.5 12.5t-30.5 33t-19 45t-7 46.5q0 66 33.5 111t80.5 45q76 0 146.5 -10.5t160.5 -10.5 q80 0 158 10.5t156 10.5q70 0 106.5 -45t36.5 -111q0 -68 -33.5 -102.5t-72.5 -34.5q-10 0 -22.5 2t-22.5 6q-10 2 -22.5 4t-24.5 2q-29 0 -40.5 -32.5t-11.5 -132.5v-537q0 -98 10.5 -132t41.5 -34q12 0 24 2t23 6q10 2 22 4t23 2q27 0 46 -13t32.5 -32.5t20.5 -44t7 -47.5 q0 -66 -37 -110.5t-106 -44.5q-78 0 -156 10t-158 10q-78 0 -155.5 -10t-155.5 -10q-45 0 -77.5 45t-32.5 110zM39 1626q0 31 12.5 51t33 35.5t44 27t45.5 23.5l95 49q20 10 46.5 24.5t55.5 27t57.5 20.5t51.5 8q20 0 46.5 -9t53.5 -21.5t52.5 -27t43.5 -22.5l88 -49 q18 -10 41 -22.5t41.5 -28t30.5 -34.5t12 -44q0 -37 -22.5 -77t-63.5 -40q-29 0 -61.5 12.5t-61.5 22.5l-209 78l-213 -78q-29 -10 -68.5 -22.5t-68.5 -12.5q-41 0 -61.5 37t-20.5 72z" />
<glyph unicode="&#xcf;" horiz-adv-x="942" d="M25 135q0 23 7 47.5t19 44t30.5 32.5t41.5 13q16 0 29.5 -2t25.5 -4q12 -4 24.5 -6t28.5 -2q23 0 33 37t10 129v537q0 100 -11 132.5t-32 32.5q-29 0 -54 -7t-54 -7q-23 0 -41.5 12.5t-30.5 33t-19 45t-7 46.5q0 66 33.5 111t80.5 45q76 0 146.5 -10.5t160.5 -10.5 q80 0 158 10.5t156 10.5q70 0 106.5 -45t36.5 -111q0 -68 -33.5 -102.5t-72.5 -34.5q-10 0 -22.5 2t-22.5 6q-10 2 -22.5 4t-24.5 2q-29 0 -40.5 -32.5t-11.5 -132.5v-537q0 -98 10.5 -132t41.5 -34q12 0 24 2t23 6q10 2 22 4t23 2q27 0 46 -13t32.5 -32.5t20.5 -44t7 -47.5 q0 -66 -37 -110.5t-106 -44.5q-78 0 -156 10t-158 10q-78 0 -155.5 -10t-155.5 -10q-45 0 -77.5 45t-32.5 110zM80 1700q0 76 52.5 128t128.5 52t129 -52t53 -128t-53.5 -129t-128.5 -53q-76 0 -128.5 53t-52.5 129zM514 1700q0 76 53.5 128t129.5 52t129 -52t53 -128 t-53 -129t-129 -53t-129.5 53t-53.5 129z" />
<glyph unicode="&#xd0;" horiz-adv-x="1515" d="M25 135q0 23 7 47.5t20.5 44t32.5 32.5t46 13q23 0 45.5 -7t46.5 -7q33 0 42 39t9 127v192h-106q-80 0 -111.5 25t-31.5 84q0 66 29.5 87.5t113.5 21.5h106v127q0 55 -4 87.5t-10 50t-15 22.5t-22 5q-25 0 -47 -7t-45 -7q-27 0 -46 12.5t-32.5 33t-20.5 45t-7 46.5 q0 66 36.5 111t106.5 45q74 0 137.5 -10.5t140.5 -10.5q63 0 115.5 3.5t98 7.5t86 7t81.5 3q143 0 260 -46t209 -163q84 -104 125 -237.5t41 -266.5q0 -127 -38 -253t-111 -230q-88 -123 -207 -176t-266 -53q-57 0 -105.5 3t-93.5 7t-89 7t-93 3q-84 0 -145.5 -10 t-133.5 -10q-78 0 -116.5 45t-38.5 110zM653 330q0 -18 4.5 -36t22.5 -28q16 -10 40.5 -14t43.5 -4q72 0 131 39t98 98q43 66 60.5 155t17.5 165q0 84 -20.5 165.5t-71.5 149.5q-39 51 -94.5 84t-120.5 33q-37 0 -59.5 -5.5t-34 -20.5t-14.5 -42t-3 -70v-165h164 q84 0 114 -23t30 -86q0 -61 -34 -85t-110 -24h-164v-286z" />
<glyph unicode="&#xd1;" horiz-adv-x="1802" d="M25 135q0 37 10 63.5t26.5 43t35 23.5t34.5 7q23 0 45.5 -7t46.5 -7q35 0 43 39t8 127v537q0 96 -11 130.5t-40 34.5q-25 0 -47 -7t-45 -7q-41 0 -73.5 40t-32.5 97q0 66 42 111t142 45q63 0 128.5 -10.5t133.5 -10.5q57 0 120.5 10.5t127.5 10.5q51 0 74.5 -32t42.5 -73 l385 -911h4v572q0 14 1 41.5t-3 55t-15.5 48t-33.5 20.5q-25 0 -47.5 -7t-45.5 -7q-27 0 -46 12.5t-32.5 33t-20.5 45t-7 46.5q0 66 39 111t125 45q63 0 128.5 -10.5t133.5 -10.5q57 0 120.5 10.5t127.5 10.5q70 0 106.5 -45t36.5 -111q0 -59 -29.5 -98t-76.5 -39 q-23 0 -45.5 7t-47.5 7q-29 0 -40 -32.5t-11 -132.5v-809q0 -25 -2 -54.5t-12 -52.5q-14 -29 -40 -42t-54 -13h-283q-27 0 -50.5 3t-41.5 23t-35.5 55t-30.5 62l-397 879h-4v-588q0 -94 8 -130t43 -36q25 0 47.5 7t44.5 7q27 0 46.5 -13t32.5 -32.5t20.5 -44t7.5 -47.5 q0 -66 -37 -110.5t-107 -44.5q-63 0 -126.5 10t-120.5 10q-68 0 -133.5 -10t-129.5 -10q-82 0 -122.5 46t-40.5 109zM469 1653q0 41 20.5 80t49.5 65q39 37 96.5 57.5t110.5 20.5q43 0 85 -13.5t82 -28.5t77.5 -28.5t72.5 -13.5q31 0 49 11.5t43 27.5t40.5 25.5t45.5 9.5 q45 0 69 -32t24 -73q0 -53 -29 -94t-72 -69.5t-94 -44t-96 -15.5t-87 13.5t-81 29t-71 28.5t-56 13q-25 0 -43.5 -11t-38.5 -24q-20 -16 -44 -31.5t-52 -15.5q-47 0 -74 34t-27 79z" />
<glyph unicode="&#xd2;" horiz-adv-x="1474" d="M61 698q0 63 8.5 131t25 134.5t44 128t66.5 114.5q88 117 227.5 172.5t282.5 55.5t276 -44t230 -159q92 -109 132 -252t40 -283q0 -66 -8.5 -134t-26 -135t-45 -130.5t-66.5 -114.5q-90 -119 -228 -174t-286 -55q-145 0 -278 44t-232 161q-43 51 -73.5 117.5t-50 137 t-29 144.5t-9.5 141zM428 1753q0 27 9.5 52.5t26 47t40 34.5t51.5 13q35 0 71 -15.5t67 -31.5l151 -82q18 -10 43 -22.5t45.5 -27.5t34.5 -35.5t14 -47.5q0 -39 -25.5 -80t-70.5 -41q-33 0 -77 14.5t-74 26.5l-144 58q-23 8 -51.5 19t-53 27.5t-41 38t-16.5 52.5zM455 694 q0 -242 65.5 -344t206.5 -102t206.5 103.5t65.5 330.5q0 248 -66.5 352.5t-201.5 104.5q-55 0 -105.5 -17.5t-88 -66.5t-60 -136.5t-22.5 -224.5z" />
<glyph unicode="&#xd3;" horiz-adv-x="1474" d="M61 698q0 63 8.5 131t25 134.5t44 128t66.5 114.5q88 117 227.5 172.5t282.5 55.5t276 -44t230 -159q92 -109 132 -252t40 -283q0 -66 -8.5 -134t-26 -135t-45 -130.5t-66.5 -114.5q-90 -119 -228 -174t-286 -55q-145 0 -278 44t-232 161q-43 51 -73.5 117.5t-50 137 t-29 144.5t-9.5 141zM455 694q0 -242 65.5 -344t206.5 -102t206.5 103.5t65.5 330.5q0 248 -66.5 352.5t-201.5 104.5q-55 0 -105.5 -17.5t-88 -66.5t-60 -136.5t-22.5 -224.5zM510 1638q0 27 14.5 47.5t35 35.5t44 27.5t41.5 22.5l154 82q31 16 66.5 31.5t70.5 15.5 q29 0 52.5 -13t40 -34.5t25.5 -47.5t9 -52q0 -31 -16.5 -52.5t-41 -38t-53 -27.5t-51.5 -19l-143 -58q-31 -12 -75 -26.5t-76 -14.5q-45 0 -71 41t-26 80z" />
<glyph unicode="&#xd4;" horiz-adv-x="1474" d="M61 698q0 63 8.5 131t25 134.5t44 128t66.5 114.5q88 117 227.5 172.5t282.5 55.5t276 -44t230 -159q92 -109 132 -252t40 -283q0 -66 -8.5 -134t-26 -135t-45 -130.5t-66.5 -114.5q-90 -119 -228 -174t-286 -55q-145 0 -278 44t-232 161q-43 51 -73.5 117.5t-50 137 t-29 144.5t-9.5 141zM325 1626q0 31 12.5 51t33 35.5t44 27t45.5 23.5l95 49q20 10 46.5 24.5t55.5 27t57.5 20.5t51.5 8q20 0 46.5 -9t53.5 -21.5t52.5 -27t43.5 -22.5l88 -49q18 -10 41 -22.5t41.5 -28t30.5 -34.5t12 -44q0 -37 -22.5 -77t-63.5 -40q-29 0 -61.5 12.5 t-61.5 22.5l-209 78l-213 -78q-29 -10 -68.5 -22.5t-68.5 -12.5q-41 0 -61.5 37t-20.5 72zM455 694q0 -242 65.5 -344t206.5 -102t206.5 103.5t65.5 330.5q0 248 -66.5 352.5t-201.5 104.5q-55 0 -105.5 -17.5t-88 -66.5t-60 -136.5t-22.5 -224.5z" />
<glyph unicode="&#xd5;" horiz-adv-x="1474" d="M61 698q0 63 8.5 131t25 134.5t44 128t66.5 114.5q88 117 227.5 172.5t282.5 55.5t276 -44t230 -159q92 -109 132 -252t40 -283q0 -66 -8.5 -134t-26 -135t-45 -130.5t-66.5 -114.5q-90 -119 -228 -174t-286 -55q-145 0 -278 44t-232 161q-43 51 -73.5 117.5t-50 137 t-29 144.5t-9.5 141zM305 1653q0 41 20.5 80t49.5 65q39 37 96.5 57.5t110.5 20.5q43 0 85 -13.5t82 -28.5t77.5 -28.5t72.5 -13.5q31 0 49 11.5t43 27.5t40.5 25.5t45.5 9.5q45 0 69 -32t24 -73q0 -53 -29 -94t-72 -69.5t-94 -44t-96 -15.5t-87 13.5t-81 29t-71 28.5 t-56 13q-25 0 -43.5 -11t-38.5 -24q-20 -16 -44 -31.5t-52 -15.5q-47 0 -74 34t-27 79zM455 694q0 -242 65.5 -344t206.5 -102t206.5 103.5t65.5 330.5q0 248 -66.5 352.5t-201.5 104.5q-55 0 -105.5 -17.5t-88 -66.5t-60 -136.5t-22.5 -224.5z" />
<glyph unicode="&#xd6;" horiz-adv-x="1474" d="M61 698q0 63 8.5 131t25 134.5t44 128t66.5 114.5q88 117 227.5 172.5t282.5 55.5t276 -44t230 -159q92 -109 132 -252t40 -283q0 -66 -8.5 -134t-26 -135t-45 -130.5t-66.5 -114.5q-90 -119 -228 -174t-286 -55q-145 0 -278 44t-232 161q-43 51 -73.5 117.5t-50 137 t-29 144.5t-9.5 141zM346 1700q0 76 52.5 128t128.5 52t129 -52t53 -128t-53.5 -129t-128.5 -53q-76 0 -128.5 53t-52.5 129zM455 694q0 -242 65.5 -344t206.5 -102t206.5 103.5t65.5 330.5q0 248 -66.5 352.5t-201.5 104.5q-55 0 -105.5 -17.5t-88 -66.5t-60 -136.5 t-22.5 -224.5zM780 1700q0 76 53.5 128t129.5 52t129 -52t53 -128t-53 -129t-129 -53t-129.5 53t-53.5 129z" />
<glyph unicode="&#xd7;" horiz-adv-x="1228" d="M104 199l349 348l-349 348l168 168l349 -348l348 348l168 -168l-349 -348l349 -348l-168 -168l-348 348l-349 -348z" />
<glyph unicode="&#xd8;" horiz-adv-x="1474" d="M61 -109q0 16 17.5 44t27.5 40l130 191q-41 45 -70 105.5t-46.5 126t-25.5 132t-8 125.5q0 66 7 138.5t24.5 144.5t44 138.5t65.5 119.5q88 121 224.5 179.5t281.5 58.5q86 0 174 -16.5t166 -53.5l80 113q14 20 26.5 32.5t25 20.5t28.5 11t41 3h41.5t49.5 -5t41 -16.5 t17 -35.5q0 -16 -15 -36.5t-24 -31.5l-139 -192l10 -13q23 -35 40.5 -60.5t30.5 -52t24.5 -56t21.5 -70.5q18 -72 28.5 -148.5t10.5 -150.5q0 -131 -37 -264t-123 -238q-92 -111 -222 -166t-271 -55q-86 0 -177.5 15.5t-168.5 54.5l-74 -107q-16 -25 -27.5 -40t-25 -24.5 t-30.5 -12.5t-48 -3h-39t-48.5 4t-41 16.5t-17.5 34.5zM459 643q0 -37 1 -75t5 -76h4l420 614q-33 16 -68 25.5t-71 9.5q-129 0 -210 -117t-81 -381zM598 295q27 -29 69 -39t91 -10q80 0 134 36.5t86 98t46 141.5t14 166q0 53 -5 108.5t-11 108.5h-4z" />
<glyph unicode="&#xd9;" horiz-adv-x="1679" d="M10 1251q0 66 33 110t78 44q78 0 155.5 -10.5t155.5 -10.5q74 0 138.5 10.5t142.5 10.5q47 0 72.5 -44t25.5 -110q0 -23 -4 -47t-13.5 -44.5t-22.5 -33t-32 -12.5q-10 0 -30 8q-8 2 -15.5 4t-17.5 2q-16 0 -23.5 -20.5t-10.5 -48t-3 -54v-40.5v-420q0 -45 2 -95.5 t21 -91.5q27 -59 78 -80.5t104 -21.5q70 0 111.5 18.5t64 54.5t31 90t8.5 126v420q0 98 -8.5 130.5t-28.5 32.5q-8 0 -16.5 -2t-16.5 -4q-20 -8 -31 -8q-18 0 -31.5 12.5t-22.5 33t-13 45t-4 46.5q0 63 31.5 108.5t115.5 45.5q66 0 132.5 -10.5t133.5 -10.5q63 0 121 10.5 t123 10.5q70 0 107 -44t37 -110q0 -23 -7.5 -47t-20.5 -44.5t-32.5 -33t-46.5 -12.5q-10 0 -22.5 2t-22.5 6q-10 2 -22.5 4t-24.5 2q-10 0 -19.5 -5t-16.5 -21.5t-11 -49t-4 -87.5v-451q0 -66 -3 -124t-17.5 -110.5t-45.5 -99.5t-86 -92q-94 -78 -214 -106.5t-236 -28.5 q-55 0 -113.5 5t-116 19.5t-110 37t-97.5 59.5q-53 43 -81.5 92t-41 104.5t-14.5 115.5t-2 124v455q0 88 -8 125.5t-43 37.5q-12 0 -23.5 -2t-23.5 -4q-10 -4 -21.5 -6t-23.5 -2q-27 0 -46.5 12.5t-32.5 33t-20.5 45t-7.5 46.5zM530 1753q0 27 9.5 52.5t26 47t40 34.5 t51.5 13q35 0 71 -15.5t67 -31.5l151 -82q18 -10 43 -22.5t45.5 -27.5t34.5 -35.5t14 -47.5q0 -39 -25.5 -80t-70.5 -41q-33 0 -77 14.5t-74 26.5l-144 58q-23 8 -51.5 19t-53 27.5t-41 38t-16.5 52.5z" />
<glyph unicode="&#xda;" horiz-adv-x="1679" d="M10 1251q0 66 33 110t78 44q78 0 155.5 -10.5t155.5 -10.5q74 0 138.5 10.5t142.5 10.5q47 0 72.5 -44t25.5 -110q0 -23 -4 -47t-13.5 -44.5t-22.5 -33t-32 -12.5q-10 0 -30 8q-8 2 -15.5 4t-17.5 2q-16 0 -23.5 -20.5t-10.5 -48t-3 -54v-40.5v-420q0 -45 2 -95.5 t21 -91.5q27 -59 78 -80.5t104 -21.5q70 0 111.5 18.5t64 54.5t31 90t8.5 126v420q0 98 -8.5 130.5t-28.5 32.5q-8 0 -16.5 -2t-16.5 -4q-20 -8 -31 -8q-18 0 -31.5 12.5t-22.5 33t-13 45t-4 46.5q0 63 31.5 108.5t115.5 45.5q66 0 132.5 -10.5t133.5 -10.5q63 0 121 10.5 t123 10.5q70 0 107 -44t37 -110q0 -23 -7.5 -47t-20.5 -44.5t-32.5 -33t-46.5 -12.5q-10 0 -22.5 2t-22.5 6q-10 2 -22.5 4t-24.5 2q-10 0 -19.5 -5t-16.5 -21.5t-11 -49t-4 -87.5v-451q0 -66 -3 -124t-17.5 -110.5t-45.5 -99.5t-86 -92q-94 -78 -214 -106.5t-236 -28.5 q-55 0 -113.5 5t-116 19.5t-110 37t-97.5 59.5q-53 43 -81.5 92t-41 104.5t-14.5 115.5t-2 124v455q0 88 -8 125.5t-43 37.5q-12 0 -23.5 -2t-23.5 -4q-10 -4 -21.5 -6t-23.5 -2q-27 0 -46.5 12.5t-32.5 33t-20.5 45t-7.5 46.5zM612 1638q0 27 14.5 47.5t35 35.5t44 27.5 t41.5 22.5l154 82q31 16 66.5 31.5t70.5 15.5q29 0 52.5 -13t40 -34.5t25.5 -47.5t9 -52q0 -31 -16.5 -52.5t-41 -38t-53 -27.5t-51.5 -19l-143 -58q-31 -12 -75 -26.5t-76 -14.5q-45 0 -71 41t-26 80z" />
<glyph unicode="&#xdb;" horiz-adv-x="1679" d="M10 1251q0 66 33 110t78 44q78 0 155.5 -10.5t155.5 -10.5q74 0 138.5 10.5t142.5 10.5q47 0 72.5 -44t25.5 -110q0 -23 -4 -47t-13.5 -44.5t-22.5 -33t-32 -12.5q-10 0 -30 8q-8 2 -15.5 4t-17.5 2q-16 0 -23.5 -20.5t-10.5 -48t-3 -54v-40.5v-420q0 -45 2 -95.5 t21 -91.5q27 -59 78 -80.5t104 -21.5q70 0 111.5 18.5t64 54.5t31 90t8.5 126v420q0 98 -8.5 130.5t-28.5 32.5q-8 0 -16.5 -2t-16.5 -4q-20 -8 -31 -8q-18 0 -31.5 12.5t-22.5 33t-13 45t-4 46.5q0 63 31.5 108.5t115.5 45.5q66 0 132.5 -10.5t133.5 -10.5q63 0 121 10.5 t123 10.5q70 0 107 -44t37 -110q0 -23 -7.5 -47t-20.5 -44.5t-32.5 -33t-46.5 -12.5q-10 0 -22.5 2t-22.5 6q-10 2 -22.5 4t-24.5 2q-10 0 -19.5 -5t-16.5 -21.5t-11 -49t-4 -87.5v-451q0 -66 -3 -124t-17.5 -110.5t-45.5 -99.5t-86 -92q-94 -78 -214 -106.5t-236 -28.5 q-55 0 -113.5 5t-116 19.5t-110 37t-97.5 59.5q-53 43 -81.5 92t-41 104.5t-14.5 115.5t-2 124v455q0 88 -8 125.5t-43 37.5q-12 0 -23.5 -2t-23.5 -4q-10 -4 -21.5 -6t-23.5 -2q-27 0 -46.5 12.5t-32.5 33t-20.5 45t-7.5 46.5zM428 1626q0 31 12.5 51t33 35.5t44 27 t45.5 23.5l95 49q20 10 46.5 24.5t55.5 27t57.5 20.5t51.5 8q20 0 46.5 -9t53.5 -21.5t52.5 -27t43.5 -22.5l88 -49q18 -10 41 -22.5t41.5 -28t30.5 -34.5t12 -44q0 -37 -22.5 -77t-63.5 -40q-29 0 -61.5 12.5t-61.5 22.5l-209 78l-213 -78q-29 -10 -68.5 -22.5t-68.5 -12.5 q-41 0 -61.5 37t-20.5 72z" />
<glyph unicode="&#xdc;" horiz-adv-x="1679" d="M10 1251q0 66 33 110t78 44q78 0 155.5 -10.5t155.5 -10.5q74 0 138.5 10.5t142.5 10.5q47 0 72.5 -44t25.5 -110q0 -23 -4 -47t-13.5 -44.5t-22.5 -33t-32 -12.5q-10 0 -30 8q-8 2 -15.5 4t-17.5 2q-16 0 -23.5 -20.5t-10.5 -48t-3 -54v-40.5v-420q0 -45 2 -95.5 t21 -91.5q27 -59 78 -80.5t104 -21.5q70 0 111.5 18.5t64 54.5t31 90t8.5 126v420q0 98 -8.5 130.5t-28.5 32.5q-8 0 -16.5 -2t-16.5 -4q-20 -8 -31 -8q-18 0 -31.5 12.5t-22.5 33t-13 45t-4 46.5q0 63 31.5 108.5t115.5 45.5q66 0 132.5 -10.5t133.5 -10.5q63 0 121 10.5 t123 10.5q70 0 107 -44t37 -110q0 -23 -7.5 -47t-20.5 -44.5t-32.5 -33t-46.5 -12.5q-10 0 -22.5 2t-22.5 6q-10 2 -22.5 4t-24.5 2q-10 0 -19.5 -5t-16.5 -21.5t-11 -49t-4 -87.5v-451q0 -66 -3 -124t-17.5 -110.5t-45.5 -99.5t-86 -92q-94 -78 -214 -106.5t-236 -28.5 q-55 0 -113.5 5t-116 19.5t-110 37t-97.5 59.5q-53 43 -81.5 92t-41 104.5t-14.5 115.5t-2 124v455q0 88 -8 125.5t-43 37.5q-12 0 -23.5 -2t-23.5 -4q-10 -4 -21.5 -6t-23.5 -2q-27 0 -46.5 12.5t-32.5 33t-20.5 45t-7.5 46.5zM448 1700q0 76 52.5 128t128.5 52t129 -52 t53 -128t-53.5 -129t-128.5 -53q-76 0 -128.5 53t-52.5 129zM882 1700q0 76 53.5 128t129.5 52t129 -52t53 -128t-53 -129t-129 -53t-129.5 53t-53.5 129z" />
<glyph unicode="&#xdd;" horiz-adv-x="1597" d="M-12 1249q0 66 37.5 111t115.5 45q61 0 124 -10.5t126 -10.5q57 0 110.5 10.5t114.5 10.5q72 0 104 -48t32 -114q0 -41 -15.5 -59.5t-33 -28.5t-33 -18.5t-15.5 -28.5q0 -16 10.5 -41t32.5 -66l105 -204l112 204l34 59.5t14 47.5t-14.5 31t-31 18t-31 29.5t-14.5 66.5 q0 70 35 111t82 41q61 0 124 -10.5t126 -10.5t113.5 10.5t111.5 10.5q70 0 107 -45t37 -111q0 -23 -7.5 -47t-20.5 -44.5t-32.5 -33t-46.5 -12.5q-23 0 -42 5t-42 5q-16 0 -29.5 -4t-25.5 -18q-16 -20 -33.5 -48t-34.5 -51l-252 -401q-39 -61 -52 -91t-13 -56v-121 q0 -35 18.5 -54.5t51.5 -19.5q31 0 60.5 7t57.5 7q27 0 46.5 -13t32.5 -32.5t20.5 -44t7.5 -47.5q0 -66 -37 -110.5t-107 -44.5q-39 0 -71.5 3t-66.5 7t-68.5 7t-77.5 3q-78 0 -155 -10t-154 -10q-115 0 -160 45t-45 110q0 23 7 47.5t20.5 44t33 32.5t45.5 13q31 0 60.5 -7 t60.5 -7q27 0 42 17.5t15 58.5v80q0 27 -4 45t-11 36.5t-20.5 40t-31.5 52.5l-238 391q-12 20 -34.5 57t-38.5 56q-25 27 -60 26q-23 0 -41 -3t-41 -3q-27 0 -46 12.5t-32.5 33t-20.5 45t-7 46.5zM571 1638q0 27 14.5 47.5t35 35.5t44 27.5t41.5 22.5l154 82 q31 16 66.5 31.5t70.5 15.5q29 0 52.5 -13t40 -34.5t25.5 -47.5t9 -52q0 -31 -16.5 -52.5t-41 -38t-53 -27.5t-51.5 -19l-143 -58q-31 -12 -75 -26.5t-76 -14.5q-45 0 -71 41t-26 80z" />
<glyph unicode="&#xde;" horiz-adv-x="1433" d="M25 135q0 23 7 47.5t20.5 44t32.5 32.5t46 13q23 0 45.5 -7t46.5 -7q31 0 41 37t10 129v541q0 100 -11 130.5t-40 30.5q-25 0 -47 -7t-45 -7q-27 0 -46 13.5t-32.5 33t-20.5 44t-7 48.5q0 66 43 110t153 44q74 0 137.5 -10.5t139.5 -10.5q41 0 74.5 3.5t66.5 7.5t66.5 7 t72.5 3q80 0 124 -44t44 -110q0 -25 -8 -49t-23.5 -43.5t-39 -33t-54.5 -13.5q-29 0 -55.5 7t-54.5 7q-33 0 -46.5 -12t-13.5 -47q0 -27 14.5 -32t77.5 -5h105q115 0 220.5 -11t174.5 -54q78 -47 115 -112t37 -136q0 -74 -37 -136.5t-115 -109.5q-88 -53 -185 -71.5 t-210 -18.5h-105q-63 0 -77.5 -5t-14.5 -32v-39q0 -18 12.5 -32.5t47.5 -14.5q29 0 55.5 7t54.5 7q31 0 54.5 -13t39 -32.5t23.5 -44t8 -47.5q0 -66 -44 -110.5t-124 -44.5q-78 0 -139 10t-141 10q-78 0 -156 -10t-156 -10q-84 0 -122.5 45t-38.5 110zM653 627q0 -8 1 -15.5 t9.5 -13.5t26 -9t49.5 -3q141 0 203 30.5t62 96.5q0 57 -51.5 84.5t-178.5 27.5q-43 0 -67.5 -4t-37 -11t-14.5 -16.5t-2 -21.5v-145z" />
<glyph unicode="&#xdf;" horiz-adv-x="1515" d="M14 928q0 68 23.5 92t87.5 24h104q6 104 63.5 178t141.5 121.5t182.5 69t186.5 21.5q84 0 168 -16.5t159 -53.5q82 -41 143.5 -115.5t61.5 -171.5q0 -78 -55 -140.5t-127 -88.5q-12 -4 -30.5 -13.5t-18.5 -25.5q0 -25 21.5 -36t41.5 -17q47 -16 104.5 -49t96.5 -66 q59 -51 88 -123t29 -149q0 -78 -20.5 -155t-73.5 -136q-55 -63 -133 -94t-160 -31q-86 0 -156 33.5t-127 93.5v-27q0 -43 -23.5 -61.5t-64.5 -18.5q-102 0 -102 105q0 37 5 76t5 77q0 41 -5 73t-5 71q0 49 35.5 84t113.5 35q61 0 89 -25t30 -84q2 -66 33.5 -115t105.5 -49 q55 0 90 35t35 90q0 41 -21.5 70.5t-53 51t-68.5 38t-70 33.5l-168 82q-41 23 -68.5 52t-27.5 79q0 66 46 100.5t103 58.5q57 25 102.5 53.5t45.5 82.5q0 35 -17.5 60.5t-45 41.5t-59.5 23.5t-62 7.5q-53 0 -110.5 -17.5t-94.5 -58.5t-46.5 -98.5t-9.5 -110.5v-778 q0 -61 -11 -99t-62 -38q-45 0 -87 10t-77 10q-47 0 -91 -10t-89 -10q-47 0 -73 40.5t-26 100.5q0 47 19.5 83t70.5 36q20 0 36 -7.5t32 -7.5q23 0 30 29t7 115v442h-90q-61 0 -84 27.5t-23 89.5z" />
<glyph unicode="&#xe0;" horiz-adv-x="1228" d="M55 260q0 121 47.5 186.5t118 99.5t152.5 47t152.5 28.5t117.5 45t47 97.5q0 59 -44 87t-95 28q-27 0 -47.5 -8.5t-20.5 -39.5v-36q0 -35 -15 -61.5t-40 -43t-56.5 -25t-64.5 -8.5q-37 0 -71.5 13.5t-60 36t-41 55.5t-15.5 72q0 49 25.5 93t80 77.5t138 54t202.5 20.5 q39 0 83 -2t88 -9t85 -19.5t76 -30.5q82 -47 106.5 -123t24.5 -193v-385q0 -59 9.5 -77.5t25.5 -18.5q12 0 24.5 2t24.5 2q49 0 75.5 -34.5t26.5 -79.5q0 -43 -19 -73t-50 -49.5t-68 -27.5t-73 -8q-72 0 -139.5 29.5t-94.5 101.5q-72 -70 -162 -100.5t-188 -30.5 q-70 0 -135.5 18.5t-116.5 56.5t-82 96t-31 136zM305 1397q0 27 9.5 52.5t26 47t40 34.5t51.5 13q35 0 71 -15.5t67 -31.5l151 -82q18 -10 43 -22.5t45.5 -27.5t34.5 -35.5t14 -47.5q0 -39 -25.5 -80t-70.5 -41q-33 0 -77 14.5t-74 26.5l-144 58q-23 8 -51.5 19t-53 27.5 t-41 38t-16.5 52.5zM393 307q0 -53 36 -74.5t81 -21.5q92 0 136 50t44 142v46q-23 -25 -72 -34t-99 -19.5t-88 -29t-38 -59.5z" />
<glyph unicode="&#xe1;" horiz-adv-x="1228" d="M55 260q0 121 47.5 186.5t118 99.5t152.5 47t152.5 28.5t117.5 45t47 97.5q0 59 -44 87t-95 28q-27 0 -47.5 -8.5t-20.5 -39.5v-36q0 -35 -15 -61.5t-40 -43t-56.5 -25t-64.5 -8.5q-37 0 -71.5 13.5t-60 36t-41 55.5t-15.5 72q0 49 25.5 93t80 77.5t138 54t202.5 20.5 q39 0 83 -2t88 -9t85 -19.5t76 -30.5q82 -47 106.5 -123t24.5 -193v-385q0 -59 9.5 -77.5t25.5 -18.5q12 0 24.5 2t24.5 2q49 0 75.5 -34.5t26.5 -79.5q0 -43 -19 -73t-50 -49.5t-68 -27.5t-73 -8q-72 0 -139.5 29.5t-94.5 101.5q-72 -70 -162 -100.5t-188 -30.5 q-70 0 -135.5 18.5t-116.5 56.5t-82 96t-31 136zM387 1282q0 27 14.5 47.5t35 35.5t44 27.5t41.5 22.5l154 82q31 16 66.5 31.5t70.5 15.5q29 0 52.5 -13t40 -34.5t25.5 -47.5t9 -52q0 -31 -16.5 -52.5t-41 -38t-53 -27.5t-51.5 -19l-143 -58q-31 -12 -75 -26.5t-76 -14.5 q-45 0 -71 41t-26 80zM393 307q0 -53 36 -74.5t81 -21.5q92 0 136 50t44 142v46q-23 -25 -72 -34t-99 -19.5t-88 -29t-38 -59.5z" />
<glyph unicode="&#xe2;" horiz-adv-x="1228" d="M55 260q0 121 47.5 186.5t118 99.5t152.5 47t152.5 28.5t117.5 45t47 97.5q0 59 -44 87t-95 28q-27 0 -47.5 -8.5t-20.5 -39.5v-36q0 -35 -15 -61.5t-40 -43t-56.5 -25t-64.5 -8.5q-37 0 -71.5 13.5t-60 36t-41 55.5t-15.5 72q0 49 25.5 93t80 77.5t138 54t202.5 20.5 q39 0 83 -2t88 -9t85 -19.5t76 -30.5q82 -47 106.5 -123t24.5 -193v-385q0 -59 9.5 -77.5t25.5 -18.5q12 0 24.5 2t24.5 2q49 0 75.5 -34.5t26.5 -79.5q0 -43 -19 -73t-50 -49.5t-68 -27.5t-73 -8q-72 0 -139.5 29.5t-94.5 101.5q-72 -70 -162 -100.5t-188 -30.5 q-70 0 -135.5 18.5t-116.5 56.5t-82 96t-31 136zM182 1270q0 31 12.5 51t33 35.5t44 27t45.5 23.5l95 49q20 10 46.5 24.5t55.5 27t57.5 20.5t51.5 8q20 0 46.5 -9t53.5 -21.5t52.5 -27t43.5 -22.5l88 -49q18 -10 41 -22.5t41.5 -28t30.5 -34.5t12 -44q0 -37 -22.5 -77 t-63.5 -40q-29 0 -61.5 12.5t-61.5 22.5l-209 78l-213 -78q-29 -10 -68.5 -22.5t-68.5 -12.5q-41 0 -61.5 37t-20.5 72zM393 307q0 -53 36 -74.5t81 -21.5q92 0 136 50t44 142v46q-23 -25 -72 -34t-99 -19.5t-88 -29t-38 -59.5z" />
<glyph unicode="&#xe3;" horiz-adv-x="1228" d="M55 260q0 121 47.5 186.5t118 99.5t152.5 47t152.5 28.5t117.5 45t47 97.5q0 59 -44 87t-95 28q-27 0 -47.5 -8.5t-20.5 -39.5v-36q0 -35 -15 -61.5t-40 -43t-56.5 -25t-64.5 -8.5q-37 0 -71.5 13.5t-60 36t-41 55.5t-15.5 72q0 49 25.5 93t80 77.5t138 54t202.5 20.5 q39 0 83 -2t88 -9t85 -19.5t76 -30.5q82 -47 106.5 -123t24.5 -193v-385q0 -59 9.5 -77.5t25.5 -18.5q12 0 24.5 2t24.5 2q49 0 75.5 -34.5t26.5 -79.5q0 -43 -19 -73t-50 -49.5t-68 -27.5t-73 -8q-72 0 -139.5 29.5t-94.5 101.5q-72 -70 -162 -100.5t-188 -30.5 q-70 0 -135.5 18.5t-116.5 56.5t-82 96t-31 136zM161 1297q0 41 20.5 80t49.5 65q39 37 96.5 57.5t110.5 20.5q43 0 85 -13.5t82 -28.5t77.5 -28.5t72.5 -13.5q31 0 49 11.5t43 27.5t40.5 25.5t45.5 9.5q45 0 69 -32t24 -73q0 -53 -29 -94t-72 -69.5t-94 -44t-96 -15.5 t-87 13.5t-81 29t-71 28.5t-56 13q-25 0 -43.5 -11t-38.5 -24q-20 -16 -44 -31.5t-52 -15.5q-47 0 -74 34t-27 79zM393 307q0 -53 36 -74.5t81 -21.5q92 0 136 50t44 142v46q-23 -25 -72 -34t-99 -19.5t-88 -29t-38 -59.5z" />
<glyph unicode="&#xe4;" horiz-adv-x="1228" d="M55 260q0 121 47.5 186.5t118 99.5t152.5 47t152.5 28.5t117.5 45t47 97.5q0 59 -44 87t-95 28q-27 0 -47.5 -8.5t-20.5 -39.5v-36q0 -35 -15 -61.5t-40 -43t-56.5 -25t-64.5 -8.5q-37 0 -71.5 13.5t-60 36t-41 55.5t-15.5 72q0 49 25.5 93t80 77.5t138 54t202.5 20.5 q39 0 83 -2t88 -9t85 -19.5t76 -30.5q82 -47 106.5 -123t24.5 -193v-385q0 -59 9.5 -77.5t25.5 -18.5q12 0 24.5 2t24.5 2q49 0 75.5 -34.5t26.5 -79.5q0 -43 -19 -73t-50 -49.5t-68 -27.5t-73 -8q-72 0 -139.5 29.5t-94.5 101.5q-72 -70 -162 -100.5t-188 -30.5 q-70 0 -135.5 18.5t-116.5 56.5t-82 96t-31 136zM223 1364q0 76 52.5 128t128.5 52t129 -52t53 -128t-53.5 -129t-128.5 -53q-76 0 -128.5 53t-52.5 129zM393 307q0 -53 36 -74.5t81 -21.5q92 0 136 50t44 142v46q-23 -25 -72 -34t-99 -19.5t-88 -29t-38 -59.5zM657 1364 q0 76 53.5 128t129.5 52t129 -52t53 -128t-53 -129t-129 -53t-129.5 53t-53.5 129z" />
<glyph unicode="&#xe5;" horiz-adv-x="1228" d="M55 260q0 121 47.5 186.5t118 99.5t152.5 47t152.5 28.5t117.5 45t47 97.5q0 59 -44 87t-95 28q-27 0 -47.5 -8.5t-20.5 -39.5v-36q0 -35 -15 -61.5t-40 -43t-56.5 -25t-64.5 -8.5q-37 0 -71.5 13.5t-60 36t-41 55.5t-15.5 72q0 49 25.5 93t80 77.5t138 54t202.5 20.5 q39 0 83 -2t88 -9t85 -19.5t76 -30.5q82 -47 106.5 -123t24.5 -193v-385q0 -59 9.5 -77.5t25.5 -18.5q12 0 24.5 2t24.5 2q49 0 75.5 -34.5t26.5 -79.5q0 -43 -19 -73t-50 -49.5t-68 -27.5t-73 -8q-72 0 -139.5 29.5t-94.5 101.5q-72 -70 -162 -100.5t-188 -30.5 q-70 0 -135.5 18.5t-116.5 56.5t-82 96t-31 136zM393 307q0 -53 36 -74.5t81 -21.5q92 0 136 50t44 142v46q-23 -25 -72 -34t-99 -19.5t-88 -29t-38 -59.5zM397 1333q0 43 16.5 82t45 67.5t67.5 45t82 16.5t81 -16.5t67.5 -45t46 -67.5t16.5 -82t-16.5 -81t-46 -67.5 t-67.5 -46t-81 -16.5t-82 16.5t-67.5 46t-45 67.5t-16.5 81zM520 1333q0 -37 24.5 -62.5t63.5 -25.5q37 0 62.5 25.5t25.5 62.5q0 39 -25.5 63.5t-62.5 24.5q-39 0 -63.5 -24.5t-24.5 -63.5z" />
<glyph unicode="&#xe6;" horiz-adv-x="1761" d="M55 279q0 72 28 133t85 104q53 41 122.5 55.5t135.5 24.5q55 8 102 18.5t82 26.5t54.5 41t19.5 59q0 47 -39 72t-82 25q-41 0 -59.5 -14.5t-26.5 -51.5q-4 -18 -13 -36.5t-28.5 -34t-50.5 -24.5t-76 -9q-78 0 -133 41t-55 127q0 47 22.5 91t71.5 77.5t126 54t187 20.5 q47 0 96.5 -5t95.5 -20.5t86 -42t64 -71.5q66 72 156 105.5t188 33.5q109 0 198 -32.5t151.5 -94t96.5 -149.5t34 -197q0 -41 -4 -67.5t-16.5 -43t-36 -23.5t-64.5 -7h-516q-29 0 -37 -9.5t-8 -25.5q0 -43 13 -82t39 -68.5t61.5 -48t78.5 -18.5q76 0 110 25.5t58 58.5 q12 14 24.5 29.5t29 27t39 18.5t55.5 7q63 0 107 -34t44 -99q0 -68 -40 -122t-93 -89q-72 -45 -160 -63.5t-172 -18.5q-53 0 -108.5 9t-105.5 31.5t-90 59.5t-62 90q-63 -100 -171 -145t-223 -45q-76 0 -146.5 20.5t-124.5 61.5t-87 101.5t-33 142.5zM393 309 q0 -51 34 -73.5t81 -22.5q76 0 139 57q29 25 36 61t7 72v43q-41 -25 -85 -36t-91 -15q-18 -2 -39.5 -7t-40 -14t-30 -24.5t-11.5 -40.5zM1028 719q0 -16 10.5 -22.5t42.5 -6.5h222q25 0 39 5t14 28q0 61 -50.5 95t-105.5 34q-25 0 -55.5 -9t-56 -26.5t-43 -42t-17.5 -55.5z " />
<glyph unicode="&#xe7;" horiz-adv-x="1105" d="M55 510q0 131 39 236.5t112 179t177 113.5t235 40q72 0 148 -17.5t138.5 -56t102.5 -98t40 -145.5q0 -82 -57.5 -131t-135.5 -49q-63 0 -113.5 30.5t-50.5 102.5q0 20 5 32.5t16 28.5q-27 20 -52.5 27.5t-60.5 7.5q-88 0 -146.5 -72.5t-58.5 -214.5q0 -49 11.5 -106.5 t39.5 -98.5q29 -41 76 -65.5t94 -24.5q70 0 102 35t56 94q27 59 53.5 81t87.5 22q66 0 113 -40t47 -112q0 -74 -39 -138.5t-96 -109.5q-59 -47 -130 -72.5t-144 -31.5l-33 -76q16 2 32.5 5t32.5 3q35 0 69 -10t59.5 -29.5t41 -48t15.5 -67.5q0 -43 -22.5 -80t-55.5 -64 q-45 -37 -101.5 -51t-113.5 -14q-27 0 -70 6t-84 19.5t-70.5 38t-29.5 61.5q0 25 16.5 44t42.5 19q33 0 85 -19.5t112 -19.5q12 0 30.5 2t36 7.5t28.5 15.5t11 29q0 16 -11 25t-26.5 14.5t-32 6.5t-28.5 1q-27 0 -52.5 -2t-51.5 -2q-59 0 -60 57q0 31 12.5 54.5t28.5 49.5 l19 29q-78 12 -151 45t-132 92q-78 78 -117 190.5t-39 221.5z" />
<glyph unicode="&#xe8;" horiz-adv-x="1146" d="M55 510q0 121 37 225.5t105.5 181t168 119.5t226.5 43q238 0 365.5 -131t127.5 -360q0 -35 -4 -59.5t-17 -40t-41 -22.5t-73 -7h-497q-41 0 -50.5 -8.5t-9.5 -34.5q0 -88 60.5 -146.5t150.5 -58.5q53 0 88 16.5t78 63.5q25 27 42 42t34.5 24.5t36 12.5t43.5 3 q59 0 100 -34t41 -95q0 -59 -36 -111.5t-98.5 -92.5t-147.5 -63.5t-185 -23.5q-127 0 -227.5 40t-171 113.5t-108.5 176t-38 227.5zM284 1397q0 27 9.5 52.5t26 47t40 34.5t51.5 13q35 0 71 -15.5t67 -31.5l151 -82q18 -10 43 -22.5t45.5 -27.5t34.5 -35.5t14 -47.5 q0 -39 -25.5 -80t-70.5 -41q-33 0 -77 14.5t-74 26.5l-144 58q-23 8 -51.5 19t-53 27.5t-41 38t-16.5 52.5zM403 715q0 -20 20.5 -24.5t65.5 -4.5h207q35 0 43.5 9.5t8.5 25.5q0 20 -9.5 42.5t-29 41t-48 31t-67.5 12.5t-74 -13.5t-60.5 -34t-41 -43t-15.5 -42.5z" />
<glyph unicode="&#xe9;" horiz-adv-x="1146" d="M55 510q0 121 37 225.5t105.5 181t168 119.5t226.5 43q238 0 365.5 -131t127.5 -360q0 -35 -4 -59.5t-17 -40t-41 -22.5t-73 -7h-497q-41 0 -50.5 -8.5t-9.5 -34.5q0 -88 60.5 -146.5t150.5 -58.5q53 0 88 16.5t78 63.5q25 27 42 42t34.5 24.5t36 12.5t43.5 3 q59 0 100 -34t41 -95q0 -59 -36 -111.5t-98.5 -92.5t-147.5 -63.5t-185 -23.5q-127 0 -227.5 40t-171 113.5t-108.5 176t-38 227.5zM366 1282q0 27 14.5 47.5t35 35.5t44 27.5t41.5 22.5l154 82q31 16 66.5 31.5t70.5 15.5q29 0 52.5 -13t40 -34.5t25.5 -47.5t9 -52 q0 -31 -16.5 -52.5t-41 -38t-53 -27.5t-51.5 -19l-143 -58q-31 -12 -75 -26.5t-76 -14.5q-45 0 -71 41t-26 80zM403 715q0 -20 20.5 -24.5t65.5 -4.5h207q35 0 43.5 9.5t8.5 25.5q0 20 -9.5 42.5t-29 41t-48 31t-67.5 12.5t-74 -13.5t-60.5 -34t-41 -43t-15.5 -42.5z" />
<glyph unicode="&#xea;" horiz-adv-x="1146" d="M55 510q0 121 37 225.5t105.5 181t168 119.5t226.5 43q238 0 365.5 -131t127.5 -360q0 -35 -4 -59.5t-17 -40t-41 -22.5t-73 -7h-497q-41 0 -50.5 -8.5t-9.5 -34.5q0 -88 60.5 -146.5t150.5 -58.5q53 0 88 16.5t78 63.5q25 27 42 42t34.5 24.5t36 12.5t43.5 3 q59 0 100 -34t41 -95q0 -59 -36 -111.5t-98.5 -92.5t-147.5 -63.5t-185 -23.5q-127 0 -227.5 40t-171 113.5t-108.5 176t-38 227.5zM172 1270q0 31 12.5 51t33 35.5t44 27t45.5 23.5l95 49q20 10 46.5 24.5t55.5 27t57.5 20.5t51.5 8q20 0 46.5 -9t53.5 -21.5t52.5 -27 t43.5 -22.5l88 -49q18 -10 41 -22.5t41.5 -28t30.5 -34.5t12 -44q0 -37 -22.5 -77t-63.5 -40q-29 0 -61.5 12.5t-61.5 22.5l-209 78l-213 -78q-29 -10 -68.5 -22.5t-68.5 -12.5q-41 0 -61.5 37t-20.5 72zM403 715q0 -20 20.5 -24.5t65.5 -4.5h207q35 0 43.5 9.5t8.5 25.5 q0 20 -9.5 42.5t-29 41t-48 31t-67.5 12.5t-74 -13.5t-60.5 -34t-41 -43t-15.5 -42.5z" />
<glyph unicode="&#xeb;" horiz-adv-x="1146" d="M55 510q0 121 37 225.5t105.5 181t168 119.5t226.5 43q238 0 365.5 -131t127.5 -360q0 -35 -4 -59.5t-17 -40t-41 -22.5t-73 -7h-497q-41 0 -50.5 -8.5t-9.5 -34.5q0 -88 60.5 -146.5t150.5 -58.5q53 0 88 16.5t78 63.5q25 27 42 42t34.5 24.5t36 12.5t43.5 3 q59 0 100 -34t41 -95q0 -59 -36 -111.5t-98.5 -92.5t-147.5 -63.5t-185 -23.5q-127 0 -227.5 40t-171 113.5t-108.5 176t-38 227.5zM202 1364q0 76 52.5 128t128.5 52t129 -52t53 -128t-53.5 -129t-128.5 -53q-76 0 -128.5 53t-52.5 129zM403 715q0 -20 20.5 -24.5 t65.5 -4.5h207q35 0 43.5 9.5t8.5 25.5q0 20 -9.5 42.5t-29 41t-48 31t-67.5 12.5t-74 -13.5t-60.5 -34t-41 -43t-15.5 -42.5zM636 1364q0 76 53.5 128t129.5 52t129 -52t53 -128t-53 -129t-129 -53t-129.5 53t-53.5 129z" />
<glyph unicode="&#xec;" horiz-adv-x="737" d="M14 121q0 47 19.5 82t70.5 35q10 0 18.5 -2.5t18.5 -4.5q8 -2 15.5 -5t15.5 -3q23 0 30 33t7 111v295q0 80 -7 111.5t-30 31.5q-16 0 -31.5 -7t-36.5 -7q-51 0 -70.5 34.5t-19.5 81.5q0 59 29 100.5t94 41.5q43 0 85 -10.5t83 -10.5q47 0 91 10.5t89 10.5q35 0 48.5 -25 t13.5 -80v-577q0 -47 3 -76t8 -44.5t11 -19.5t13 -4q10 0 30 8q18 6 37 7q51 0 70.5 -35t19.5 -82q0 -59 -27.5 -100t-93.5 -41t-128 10t-125 10q-59 0 -117 -10t-113 -10q-66 0 -93.5 40.5t-27.5 100.5zM39 1397q0 27 9.5 52.5t26 47t40 34.5t51.5 13q35 0 71 -15.5 t67 -31.5l151 -82q18 -10 43 -22.5t45.5 -27.5t34.5 -35.5t14 -47.5q0 -39 -25.5 -80t-70.5 -41q-33 0 -77 14.5t-74 26.5l-144 58q-23 8 -51.5 19t-53 27.5t-41 38t-16.5 52.5z" />
<glyph unicode="&#xed;" horiz-adv-x="737" d="M14 121q0 47 19.5 82t70.5 35q10 0 18.5 -2.5t18.5 -4.5q8 -2 15.5 -5t15.5 -3q23 0 30 33t7 111v295q0 80 -7 111.5t-30 31.5q-16 0 -31.5 -7t-36.5 -7q-51 0 -70.5 34.5t-19.5 81.5q0 59 29 100.5t94 41.5q43 0 85 -10.5t83 -10.5q47 0 91 10.5t89 10.5q35 0 48.5 -25 t13.5 -80v-577q0 -47 3 -76t8 -44.5t11 -19.5t13 -4q10 0 30 8q18 6 37 7q51 0 70.5 -35t19.5 -82q0 -59 -27.5 -100t-93.5 -41t-128 10t-125 10q-59 0 -117 -10t-113 -10q-66 0 -93.5 40.5t-27.5 100.5zM141 1282q0 27 14.5 47.5t35 35.5t44 27.5t41.5 22.5l154 82 q31 16 66.5 31.5t70.5 15.5q29 0 52.5 -13t40 -34.5t25.5 -47.5t9 -52q0 -31 -16.5 -52.5t-41 -38t-53 -27.5t-51.5 -19l-143 -58q-31 -12 -75 -26.5t-76 -14.5q-45 0 -71 41t-26 80z" />
<glyph unicode="&#xee;" horiz-adv-x="737" d="M-105 1270q0 31 12.5 51t33 35.5t44 27t45.5 23.5l95 49q20 10 46.5 24.5t55.5 27t57.5 20.5t51.5 8q20 0 46.5 -9t53.5 -21.5t52.5 -27t43.5 -22.5l88 -49q18 -10 41 -22.5t41.5 -28t30.5 -34.5t12 -44q0 -37 -22.5 -77t-63.5 -40q-29 0 -61.5 12.5t-61.5 22.5l-209 78 l-213 -78q-29 -10 -68.5 -22.5t-68.5 -12.5q-41 0 -61.5 37t-20.5 72zM14 121q0 47 19.5 82t70.5 35q10 0 18.5 -2.5t18.5 -4.5q8 -2 15.5 -5t15.5 -3q23 0 30 33t7 111v295q0 80 -7 111.5t-30 31.5q-16 0 -31.5 -7t-36.5 -7q-51 0 -70.5 34.5t-19.5 81.5q0 59 29 100.5 t94 41.5q43 0 85 -10.5t83 -10.5q47 0 91 10.5t89 10.5q35 0 48.5 -25t13.5 -80v-577q0 -47 3 -76t8 -44.5t11 -19.5t13 -4q10 0 30 8q18 6 37 7q51 0 70.5 -35t19.5 -82q0 -59 -27.5 -100t-93.5 -41t-128 10t-125 10q-59 0 -117 -10t-113 -10q-66 0 -93.5 40.5t-27.5 100.5 z" />
<glyph unicode="&#xef;" horiz-adv-x="737" d="M-64 1364q0 76 52.5 128t128.5 52t129 -52t53 -128t-53.5 -129t-128.5 -53q-76 0 -128.5 53t-52.5 129zM14 121q0 47 19.5 82t70.5 35q10 0 18.5 -2.5t18.5 -4.5q8 -2 15.5 -5t15.5 -3q23 0 30 33t7 111v295q0 80 -7 111.5t-30 31.5q-16 0 -31.5 -7t-36.5 -7 q-51 0 -70.5 34.5t-19.5 81.5q0 59 29 100.5t94 41.5q43 0 85 -10.5t83 -10.5q47 0 91 10.5t89 10.5q35 0 48.5 -25t13.5 -80v-577q0 -47 3 -76t8 -44.5t11 -19.5t13 -4q10 0 30 8q18 6 37 7q51 0 70.5 -35t19.5 -82q0 -59 -27.5 -100t-93.5 -41t-128 10t-125 10 q-59 0 -117 -10t-113 -10q-66 0 -93.5 40.5t-27.5 100.5zM370 1364q0 76 53.5 128t129.5 52t129 -52t53 -128t-53 -129t-129 -53t-129.5 53t-53.5 129z" />
<glyph unicode="&#xf0;" horiz-adv-x="1187" d="M55 516q0 137 41 242.5t109.5 177.5t161 107.5t196.5 35.5q27 0 47.5 -2t40.5 -12l4 4q-29 39 -55.5 61.5t-54.5 45.5l-203 -64q-53 -16 -86 -4t-43 35.5t3 49.5t50 38l144 41q-47 25 -87 31t-75 10q-31 4 -44.5 20.5t-13.5 32.5q0 37 26 56.5t97 19.5q82 0 170 -18.5 t185 -67.5l215 65q49 14 80.5 1t41 -37.5t-6 -52t-58.5 -40.5l-119 -37q74 -61 131.5 -134.5t97.5 -162t61.5 -195t21.5 -235.5q0 -127 -33 -233.5t-98.5 -182t-165 -117.5t-234.5 -42q-268 0 -407.5 149.5t-139.5 413.5zM393 516q0 -90 18.5 -148.5t46 -93t61.5 -49 t65 -14.5q53 0 97 18.5t69 69.5q23 47 34 105.5t11 111.5q0 88 -15.5 147.5t-43 94.5t-64.5 49t-78 14q-37 0 -73 -15t-64.5 -51t-46 -94.5t-17.5 -144.5z" />
<glyph unicode="&#xf1;" horiz-adv-x="1392" d="M14 121q0 47 19.5 82t70.5 35q10 0 18.5 -2.5t18.5 -4.5q8 -2 15.5 -5t15.5 -3q20 0 28.5 26.5t8.5 117.5v295q0 88 -8 115.5t-29 27.5q-16 0 -31.5 -7t-36.5 -7q-51 0 -70.5 34.5t-19.5 81.5q0 59 22.5 100.5t57.5 41.5t75 -10.5t93 -10.5q43 0 75 10.5t71 10.5 q43 0 50 -22.5t7 -84.5v-51h4q66 84 156 136t200 52q68 0 130.5 -23.5t111.5 -70.5t78 -115.5t29 -156.5v-346q0 -92 9 -118t27 -26q10 0 31 8q18 6 37 7q51 0 70.5 -35t19.5 -82q0 -59 -27.5 -100t-93.5 -41t-128 10t-126 10q-29 0 -53.5 -3t-47 -7t-46 -7t-49.5 -3 q-35 0 -58.5 30.5t-23.5 110.5q0 70 20.5 93.5t42.5 23.5q8 0 14.5 -2.5t10.5 -4.5q16 -8 22 -8q18 0 22.5 29t4.5 115v256q0 86 -34 125.5t-93 42.5q-25 0 -58.5 -9.5t-64.5 -35t-51.5 -69.5t-20.5 -114v-196q0 -45 1 -73t4.5 -43t8.5 -21.5t11 -6.5t11 2t12 6q12 6 30 7 q23 0 41.5 -26t18.5 -91q0 -59 -19.5 -100t-62.5 -41q-72 0 -134.5 10t-125.5 10q-59 0 -115.5 -10t-110.5 -10q-39 0 -62.5 40.5t-23.5 100.5zM223 1297q0 41 20.5 80t49.5 65q39 37 96.5 57.5t110.5 20.5q43 0 85 -13.5t82 -28.5t77.5 -28.5t72.5 -13.5q31 0 49 11.5 t43 27.5t40.5 25.5t45.5 9.5q45 0 69 -32t24 -73q0 -53 -29 -94t-72 -69.5t-94 -44t-96 -15.5t-87 13.5t-81 29t-71 28.5t-56 13q-25 0 -43.5 -11t-38.5 -24q-20 -16 -44 -31.5t-52 -15.5q-47 0 -74 34t-27 79z" />
<glyph unicode="&#xf2;" horiz-adv-x="1187" d="M55 516q0 131 35 235.5t104.5 177t171 111.5t234.5 39q125 0 224.5 -40t168 -111.5t104.5 -174t36 -225.5q0 -127 -33 -233.5t-98.5 -182t-165 -117.5t-234.5 -42q-268 0 -407.5 149.5t-139.5 413.5zM284 1397q0 27 9.5 52.5t26 47t40 34.5t51.5 13q35 0 71 -15.5 t67 -31.5l151 -82q18 -10 43 -22.5t45.5 -27.5t34.5 -35.5t14 -47.5q0 -39 -25.5 -80t-70.5 -41q-33 0 -77 14.5t-74 26.5l-144 58q-23 8 -51.5 19t-53 27.5t-41 38t-16.5 52.5zM393 516q0 -90 18.5 -148.5t46 -93t61.5 -49t65 -14.5q53 0 97 18.5t69 69.5q23 47 34 105.5 t11 111.5q0 88 -15.5 147.5t-43 94.5t-64.5 49t-78 14q-37 0 -73 -15t-64.5 -51t-46 -94.5t-17.5 -144.5z" />
<glyph unicode="&#xf3;" horiz-adv-x="1187" d="M55 516q0 131 35 235.5t104.5 177t171 111.5t234.5 39q125 0 224.5 -40t168 -111.5t104.5 -174t36 -225.5q0 -127 -33 -233.5t-98.5 -182t-165 -117.5t-234.5 -42q-268 0 -407.5 149.5t-139.5 413.5zM377 1282q0 27 14.5 47.5t35 35.5t44 27.5t41.5 22.5l154 82 q31 16 66.5 31.5t70.5 15.5q29 0 52.5 -13t40 -34.5t25.5 -47.5t9 -52q0 -31 -16.5 -52.5t-41 -38t-53 -27.5t-51.5 -19l-143 -58q-31 -12 -75 -26.5t-76 -14.5q-45 0 -71 41t-26 80zM393 516q0 -90 18.5 -148.5t46 -93t61.5 -49t65 -14.5q53 0 97 18.5t69 69.5 q23 47 34 105.5t11 111.5q0 88 -15.5 147.5t-43 94.5t-64.5 49t-78 14q-37 0 -73 -15t-64.5 -51t-46 -94.5t-17.5 -144.5z" />
<glyph unicode="&#xf4;" horiz-adv-x="1187" d="M55 516q0 131 35 235.5t104.5 177t171 111.5t234.5 39q125 0 224.5 -40t168 -111.5t104.5 -174t36 -225.5q0 -127 -33 -233.5t-98.5 -182t-165 -117.5t-234.5 -42q-268 0 -407.5 149.5t-139.5 413.5zM182 1270q0 31 12.5 51t33 35.5t44 27t45.5 23.5l95 49 q20 10 46.5 24.5t55.5 27t57.5 20.5t51.5 8q20 0 46.5 -9t53.5 -21.5t52.5 -27t43.5 -22.5l88 -49q18 -10 41 -22.5t41.5 -28t30.5 -34.5t12 -44q0 -37 -22.5 -77t-63.5 -40q-29 0 -61.5 12.5t-61.5 22.5l-209 78l-213 -78q-29 -10 -68.5 -22.5t-68.5 -12.5q-41 0 -61.5 37 t-20.5 72zM393 516q0 -90 18.5 -148.5t46 -93t61.5 -49t65 -14.5q53 0 97 18.5t69 69.5q23 47 34 105.5t11 111.5q0 88 -15.5 147.5t-43 94.5t-64.5 49t-78 14q-37 0 -73 -15t-64.5 -51t-46 -94.5t-17.5 -144.5z" />
<glyph unicode="&#xf5;" horiz-adv-x="1187" d="M55 516q0 131 35 235.5t104.5 177t171 111.5t234.5 39q125 0 224.5 -40t168 -111.5t104.5 -174t36 -225.5q0 -127 -33 -233.5t-98.5 -182t-165 -117.5t-234.5 -42q-268 0 -407.5 149.5t-139.5 413.5zM161 1297q0 41 20.5 80t49.5 65q39 37 96.5 57.5t110.5 20.5 q43 0 85 -13.5t82 -28.5t77.5 -28.5t72.5 -13.5q31 0 49 11.5t43 27.5t40.5 25.5t45.5 9.5q45 0 69 -32t24 -73q0 -53 -29 -94t-72 -69.5t-94 -44t-96 -15.5t-87 13.5t-81 29t-71 28.5t-56 13q-25 0 -43.5 -11t-38.5 -24q-20 -16 -44 -31.5t-52 -15.5q-47 0 -74 34t-27 79z M393 516q0 -90 18.5 -148.5t46 -93t61.5 -49t65 -14.5q53 0 97 18.5t69 69.5q23 47 34 105.5t11 111.5q0 88 -15.5 147.5t-43 94.5t-64.5 49t-78 14q-37 0 -73 -15t-64.5 -51t-46 -94.5t-17.5 -144.5z" />
<glyph unicode="&#xf6;" horiz-adv-x="1187" d="M55 516q0 131 35 235.5t104.5 177t171 111.5t234.5 39q125 0 224.5 -40t168 -111.5t104.5 -174t36 -225.5q0 -127 -33 -233.5t-98.5 -182t-165 -117.5t-234.5 -42q-268 0 -407.5 149.5t-139.5 413.5zM223 1364q0 76 52.5 128t128.5 52t129 -52t53 -128t-53.5 -129 t-128.5 -53q-76 0 -128.5 53t-52.5 129zM393 516q0 -90 18.5 -148.5t46 -93t61.5 -49t65 -14.5q53 0 97 18.5t69 69.5q23 47 34 105.5t11 111.5q0 88 -15.5 147.5t-43 94.5t-64.5 49t-78 14q-37 0 -73 -15t-64.5 -51t-46 -94.5t-17.5 -144.5zM657 1364q0 76 53.5 128 t129.5 52t129 -52t53 -128t-53 -129t-129 -53t-129.5 53t-53.5 129z" />
<glyph unicode="&#xf7;" horiz-adv-x="1228" d="M104 434v238h1033v-238h-1033zM457 207q0 70 47 117t117 47t116.5 -47.5t46.5 -116.5q0 -70 -47 -117t-116 -47q-70 0 -117 47t-47 117zM457 899q0 70 47 117t117 47t116.5 -47t46.5 -117t-47 -117t-116 -47q-70 0 -117 47t-47 117z" />
<glyph unicode="&#xf8;" horiz-adv-x="1187" d="M55 514q0 274 131 419.5t414 145.5q57 0 112.5 -5t108.5 -27l33 53q25 37 40 58.5t30.5 32.5t36 13t55.5 2q59 0 79.5 -6t20.5 -35q0 -18 -10 -33.5t-21 -29.5l-98 -148q74 -80 107.5 -184t33.5 -211q0 -51 -6 -109.5t-19 -114.5t-36 -109.5t-55 -94.5 q-74 -94 -190.5 -136t-233.5 -42q-59 0 -117.5 10t-114.5 33l-22 -35q-23 -37 -39 -58.5t-32.5 -32.5t-39 -15.5t-59.5 -4.5q-57 0 -77.5 6.5t-20.5 28.5q0 16 10 32.5t18 29.5l101 155q-72 92 -106 192.5t-34 219.5zM383 510q0 -29 2 -57.5t2 -57.5h4l275 414 q-37 12 -76 12q-61 0 -100 -19.5t-68 -76.5q-25 -49 -32 -105.5t-7 -109.5zM510 231q23 -8 44 -14t44 -6q57 0 96 22.5t62 75.5q23 51 34 112.5t11 119.5q0 27 -5 52t-14 52z" />
<glyph unicode="&#xf9;" d="M-39 907q0 59 29.5 100.5t101.5 41.5q49 0 92 -10.5t95 -10.5q47 0 76.5 10.5t68.5 10.5q41 0 47 -26t6 -67v-510q0 -33 3 -78.5t22 -76.5q18 -29 49 -46.5t65 -17.5q45 0 84 21.5t64 60.5q33 49 40 101.5t7 109.5v142q0 84 -7 113.5t-30 29.5q-8 0 -15 -2t-16 -4 q-10 -4 -18 -6t-18 -2q-51 0 -71 34.5t-20 81.5q0 59 29 100.5t96 41.5q51 0 90 -10.5t91 -10.5q41 0 73.5 10.5t71.5 10.5q41 0 53.5 -16.5t12.5 -51.5v-614q0 -92 10 -118t26 -26t32 7.5t36 7.5q51 0 70.5 -35t19.5 -82q0 -59 -27.5 -100t-93.5 -41q-39 0 -74.5 10 t-70.5 10t-67.5 -10t-61.5 -10q-39 0 -56.5 21.5t-17.5 45.5v82h-4q-57 -86 -156.5 -131t-203.5 -45q-160 0 -249 87t-89 243v379q0 47 -3 74.5t-7.5 43t-11.5 20.5t-15 5t-15.5 -2t-15.5 -4q-10 -4 -18.5 -6t-18.5 -2q-51 0 -70.5 34.5t-19.5 81.5zM325 1397q0 27 9.5 52.5 t26 47t40 34.5t51.5 13q35 0 71 -15.5t67 -31.5l151 -82q18 -10 43 -22.5t45.5 -27.5t34.5 -35.5t14 -47.5q0 -39 -25.5 -80t-70.5 -41q-33 0 -77 14.5t-74 26.5l-144 58q-23 8 -51.5 19t-53 27.5t-41 38t-16.5 52.5z" />
<glyph unicode="&#xfa;" d="M-39 907q0 59 29.5 100.5t101.5 41.5q49 0 92 -10.5t95 -10.5q47 0 76.5 10.5t68.5 10.5q41 0 47 -26t6 -67v-510q0 -33 3 -78.5t22 -76.5q18 -29 49 -46.5t65 -17.5q45 0 84 21.5t64 60.5q33 49 40 101.5t7 109.5v142q0 84 -7 113.5t-30 29.5q-8 0 -15 -2t-16 -4 q-10 -4 -18 -6t-18 -2q-51 0 -71 34.5t-20 81.5q0 59 29 100.5t96 41.5q51 0 90 -10.5t91 -10.5q41 0 73.5 10.5t71.5 10.5q41 0 53.5 -16.5t12.5 -51.5v-614q0 -92 10 -118t26 -26t32 7.5t36 7.5q51 0 70.5 -35t19.5 -82q0 -59 -27.5 -100t-93.5 -41q-39 0 -74.5 10 t-70.5 10t-67.5 -10t-61.5 -10q-39 0 -56.5 21.5t-17.5 45.5v82h-4q-57 -86 -156.5 -131t-203.5 -45q-160 0 -249 87t-89 243v379q0 47 -3 74.5t-7.5 43t-11.5 20.5t-15 5t-15.5 -2t-15.5 -4q-10 -4 -18.5 -6t-18.5 -2q-51 0 -70.5 34.5t-19.5 81.5zM448 1282 q0 27 14.5 47.5t35 35.5t44 27.5t41.5 22.5l154 82q31 16 66.5 31.5t70.5 15.5q29 0 52.5 -13t40 -34.5t25.5 -47.5t9 -52q0 -31 -16.5 -52.5t-41 -38t-53 -27.5t-51.5 -19l-143 -58q-31 -12 -75 -26.5t-76 -14.5q-45 0 -71 41t-26 80z" />
<glyph unicode="&#xfb;" d="M-39 907q0 59 29.5 100.5t101.5 41.5q49 0 92 -10.5t95 -10.5q47 0 76.5 10.5t68.5 10.5q41 0 47 -26t6 -67v-510q0 -33 3 -78.5t22 -76.5q18 -29 49 -46.5t65 -17.5q45 0 84 21.5t64 60.5q33 49 40 101.5t7 109.5v142q0 84 -7 113.5t-30 29.5q-8 0 -15 -2t-16 -4 q-10 -4 -18 -6t-18 -2q-51 0 -71 34.5t-20 81.5q0 59 29 100.5t96 41.5q51 0 90 -10.5t91 -10.5q41 0 73.5 10.5t71.5 10.5q41 0 53.5 -16.5t12.5 -51.5v-614q0 -92 10 -118t26 -26t32 7.5t36 7.5q51 0 70.5 -35t19.5 -82q0 -59 -27.5 -100t-93.5 -41q-39 0 -74.5 10 t-70.5 10t-67.5 -10t-61.5 -10q-39 0 -56.5 21.5t-17.5 45.5v82h-4q-57 -86 -156.5 -131t-203.5 -45q-160 0 -249 87t-89 243v379q0 47 -3 74.5t-7.5 43t-11.5 20.5t-15 5t-15.5 -2t-15.5 -4q-10 -4 -18.5 -6t-18.5 -2q-51 0 -70.5 34.5t-19.5 81.5zM213 1270q0 31 12.5 51 t33 35.5t44 27t45.5 23.5l95 49q20 10 46.5 24.5t55.5 27t57.5 20.5t51.5 8q20 0 46.5 -9t53.5 -21.5t52.5 -27t43.5 -22.5l88 -49q18 -10 41 -22.5t41.5 -28t30.5 -34.5t12 -44q0 -37 -22.5 -77t-63.5 -40q-29 0 -61.5 12.5t-61.5 22.5l-209 78l-213 -78 q-29 -10 -68.5 -22.5t-68.5 -12.5q-41 0 -61.5 37t-20.5 72z" />
<glyph unicode="&#xfc;" d="M-39 907q0 59 29.5 100.5t101.5 41.5q49 0 92 -10.5t95 -10.5q47 0 76.5 10.5t68.5 10.5q41 0 47 -26t6 -67v-510q0 -33 3 -78.5t22 -76.5q18 -29 49 -46.5t65 -17.5q45 0 84 21.5t64 60.5q33 49 40 101.5t7 109.5v142q0 84 -7 113.5t-30 29.5q-8 0 -15 -2t-16 -4 q-10 -4 -18 -6t-18 -2q-51 0 -71 34.5t-20 81.5q0 59 29 100.5t96 41.5q51 0 90 -10.5t91 -10.5q41 0 73.5 10.5t71.5 10.5q41 0 53.5 -16.5t12.5 -51.5v-614q0 -92 10 -118t26 -26t32 7.5t36 7.5q51 0 70.5 -35t19.5 -82q0 -59 -27.5 -100t-93.5 -41q-39 0 -74.5 10 t-70.5 10t-67.5 -10t-61.5 -10q-39 0 -56.5 21.5t-17.5 45.5v82h-4q-57 -86 -156.5 -131t-203.5 -45q-160 0 -249 87t-89 243v379q0 47 -3 74.5t-7.5 43t-11.5 20.5t-15 5t-15.5 -2t-15.5 -4q-10 -4 -18.5 -6t-18.5 -2q-51 0 -70.5 34.5t-19.5 81.5zM243 1364q0 76 52.5 128 t128.5 52t129 -52t53 -128t-53.5 -129t-128.5 -53q-76 0 -128.5 53t-52.5 129zM677 1364q0 76 53.5 128t129.5 52t129 -52t53 -128t-53 -129t-129 -53t-129.5 53t-53.5 129z" />
<glyph unicode="&#xfd;" d="M-41 -195q0 76 52 126.5t128 50.5q59 0 100.5 -41t41.5 -101q0 -10 -2.5 -21.5t-4.5 -21.5q12 -8 22.5 -12t27.5 -4q27 0 55.5 18.5t53 46t39.5 59.5t15 56q0 18 -9 51t-22.5 68t-26.5 68.5t-21 52.5l-207 489q-27 66 -39 85.5t-35 19.5q-12 0 -23.5 -2t-23.5 -2 q-51 0 -70.5 34.5t-19.5 81.5q0 59 27.5 100.5t93.5 41.5q47 0 97 -10.5t103 -10.5q55 0 109.5 10.5t114.5 10.5q59 0 88.5 -33t29.5 -90q0 -51 -20.5 -67.5t-44.5 -24.5q-25 -6 -46.5 -11.5t-21.5 -34.5q0 -16 8.5 -41.5l12.5 -37.5l133 -414h4l133 395q8 20 17.5 50 t9.5 51q0 16 -17.5 23t-40.5 17t-41 30t-18 67t28.5 84t77.5 37q43 0 90.5 -10.5t94.5 -10.5q53 0 104 10.5t105 10.5q66 0 93 -41t27 -101q0 -47 -19 -81.5t-71 -34.5q-14 0 -27.5 4t-27.5 4q-16 0 -32.5 -17.5t-39.5 -81.5l-178 -487q-41 -111 -94 -228.5t-129 -215 t-178.5 -160t-239.5 -62.5q-59 0 -120.5 14.5t-111.5 46.5t-82 81t-32 116zM448 1282q0 27 14.5 47.5t35 35.5t44 27.5t41.5 22.5l154 82q31 16 66.5 31.5t70.5 15.5q29 0 52.5 -13t40 -34.5t25.5 -47.5t9 -52q0 -31 -16.5 -52.5t-41 -38t-53 -27.5t-51.5 -19l-143 -58 q-31 -12 -75 -26.5t-76 -14.5q-45 0 -71 41t-26 80z" />
<glyph unicode="&#xfe;" horiz-adv-x="1310" d="M14 -233q0 51 22.5 83.5t67.5 32.5q10 0 18.5 -2t18.5 -4q20 -8 31 -8q18 0 27.5 28.5t9.5 114.5v1006q0 74 -6 107.5t-31 33.5q-16 0 -31.5 -7t-36.5 -7q-51 0 -70.5 34.5t-19.5 82.5q0 59 28 101t93 42q41 0 82 -10.5t82 -10.5q43 0 87 10.5t89 10.5q33 0 44 -22.5 t11 -75.5v-365h5q47 68 117.5 102.5t144.5 34.5q104 0 187 -37.5t144 -123.5q57 -80 83 -183.5t26 -202.5q0 -106 -24.5 -210.5t-78 -186.5t-138.5 -132t-205 -50q-41 0 -76 11t-66 28.5t-59.5 40t-59.5 45.5v-66q0 -88 8.5 -115.5t28.5 -27.5q10 0 31 8q10 2 18.5 4t18.5 2 q51 0 70.5 -34.5t19.5 -81.5q0 -59 -27.5 -100.5t-93.5 -41.5t-128 10.5t-126 10.5q-59 0 -115.5 -10.5t-109.5 -10.5q-57 0 -84 41t-27 101zM530 522q0 -145 52.5 -213.5t122.5 -68.5q37 0 71.5 15t62 49t44 87t16.5 131q0 76 -16.5 129.5t-44 87t-62.5 50t-74 16.5 q-76 0 -124 -74t-48 -209z" />
<glyph unicode="&#xff;" d="M-41 -195q0 76 52 126.5t128 50.5q59 0 100.5 -41t41.5 -101q0 -10 -2.5 -21.5t-4.5 -21.5q12 -8 22.5 -12t27.5 -4q27 0 55.5 18.5t53 46t39.5 59.5t15 56q0 18 -9 51t-22.5 68t-26.5 68.5t-21 52.5l-207 489q-27 66 -39 85.5t-35 19.5q-12 0 -23.5 -2t-23.5 -2 q-51 0 -70.5 34.5t-19.5 81.5q0 59 27.5 100.5t93.5 41.5q47 0 97 -10.5t103 -10.5q55 0 109.5 10.5t114.5 10.5q59 0 88.5 -33t29.5 -90q0 -51 -20.5 -67.5t-44.5 -24.5q-25 -6 -46.5 -11.5t-21.5 -34.5q0 -16 8.5 -41.5l12.5 -37.5l133 -414h4l133 395q8 20 17.5 50 t9.5 51q0 16 -17.5 23t-40.5 17t-41 30t-18 67t28.5 84t77.5 37q43 0 90.5 -10.5t94.5 -10.5q53 0 104 10.5t105 10.5q66 0 93 -41t27 -101q0 -47 -19 -81.5t-71 -34.5q-14 0 -27.5 4t-27.5 4q-16 0 -32.5 -17.5t-39.5 -81.5l-178 -487q-41 -111 -94 -228.5t-129 -215 t-178.5 -160t-239.5 -62.5q-59 0 -120.5 14.5t-111.5 46.5t-82 81t-32 116zM284 1364q0 76 52.5 128t128.5 52t129 -52t53 -128t-53.5 -129t-128.5 -53q-76 0 -128.5 53t-52.5 129zM718 1364q0 76 53.5 128t129.5 52t129 -52t53 -128t-53 -129t-129 -53t-129.5 53t-53.5 129 z" />
<glyph unicode="&#x152;" horiz-adv-x="2211" d="M61 664q0 61 7.5 131.5t24 141.5t41 135.5t61.5 117.5q86 123 222 183.5t283 60.5q111 0 211.5 -42t159.5 -139h4q-4 88 12.5 120t75.5 32q29 0 92.5 -10.5t145.5 -10.5t150.5 3.5t136 7.5t142.5 7t173 3q51 0 86 -24.5t35 -77.5t-9.5 -103.5t-9.5 -101.5q0 -47 9.5 -92 t9.5 -91q0 -66 -43 -107.5t-107 -41.5q-76 0 -121 37t-45 117q0 41 10.5 78.5t10.5 78.5q0 35 -23.5 49.5t-105.5 14.5h-230q-66 0 -92 -19.5t-26 -60.5v-143q0 -39 5 -50.5t36 -13.5h63q23 0 38 12.5t15 44.5q0 16 -2 30.5t-2 31.5q0 49 31 70.5t78 21.5t74.5 -30.5 t27.5 -119.5q0 -61 -8 -123.5t-8 -123.5q0 -47 8 -80t8 -78q0 -47 -26.5 -88t-81.5 -41t-81 35t-26 86v53q0 29 -14 38t-37 9h-45q-35 0 -44 -12t-9 -64v-135q0 -43 5 -70.5t20.5 -44t45 -22.5t76.5 -6h146q115 0 156.5 26.5t41.5 75.5q0 35 -7 70t-7 69q0 72 41 120t117 48 q72 0 114.5 -41t42.5 -112q0 -61 -8 -124t-8 -124q0 -47 8 -88t8 -70q0 -55 -40 -86.5t-105 -31.5q-141 0 -288.5 10t-313.5 10q-84 0 -134.5 -10t-103.5 -10q-31 0 -49 13t-26.5 35.5t-9.5 52.5t1 64h-4q-63 -96 -173 -139t-222 -43q-156 0 -270.5 55.5t-191.5 150.5 t-115 223t-38 272zM455 686q0 -233 72.5 -333.5t203.5 -100.5q152 0 210 108.5t58 321.5q0 70 -7 155t-34 150q-29 70 -89 112t-136 42q-66 0 -117 -23.5t-86.5 -77t-55 -140.5t-19.5 -214z" />
<glyph unicode="&#x153;" horiz-adv-x="1843" d="M57 512q0 281 132.5 424t416.5 143q104 0 196.5 -23.5t172.5 -94.5q76 63 169 90.5t191 27.5q109 0 196 -34.5t148.5 -98t94 -152.5t32.5 -196q0 -47 -6 -73.5t-21.5 -40t-42 -17.5t-69.5 -4h-461q-74 0 -73 -39q0 -31 13 -71t30 -64q27 -39 67.5 -58.5t87.5 -19.5 q31 0 52.5 7t38 19.5t29.5 27t26 28.5q27 29 59.5 54.5t101.5 25.5q59 0 101.5 -35t42.5 -96q0 -70 -45 -125.5t-103 -87.5q-68 -39 -152.5 -57.5t-162.5 -18.5q-106 0 -189 31.5t-169 93.5q-74 -68 -170.5 -96.5t-194.5 -28.5q-115 0 -218.5 30.5t-182.5 118.5 q-72 80 -105 192t-33 218zM395 528q0 -86 15.5 -146t43 -98t65.5 -55.5t81 -17.5q195 0 195 307q0 86 -14.5 143.5t-40 93.5t-61.5 51t-77 15q-59 0 -99 -21.5t-69 -76.5q-20 -41 -29.5 -94.5t-9.5 -100.5zM1151 715q0 -16 12.5 -21.5t48.5 -5.5h191q41 0 53 6t12 23 q0 29 -13 52.5t-34.5 40.5t-47 26.5t-52.5 9.5q-39 0 -78 -14.5t-63 -45.5q-10 -12 -19.5 -33.5t-9.5 -37.5z" />
<glyph unicode="&#x178;" horiz-adv-x="1597" d="M-12 1249q0 66 37.5 111t115.5 45q61 0 124 -10.5t126 -10.5q57 0 110.5 10.5t114.5 10.5q72 0 104 -48t32 -114q0 -41 -15.5 -59.5t-33 -28.5t-33 -18.5t-15.5 -28.5q0 -16 10.5 -41t32.5 -66l105 -204l112 204l34 59.5t14 47.5t-14.5 31t-31 18t-31 29.5t-14.5 66.5 q0 70 35 111t82 41q61 0 124 -10.5t126 -10.5t113.5 10.5t111.5 10.5q70 0 107 -45t37 -111q0 -23 -7.5 -47t-20.5 -44.5t-32.5 -33t-46.5 -12.5q-23 0 -42 5t-42 5q-16 0 -29.5 -4t-25.5 -18q-16 -20 -33.5 -48t-34.5 -51l-252 -401q-39 -61 -52 -91t-13 -56v-121 q0 -35 18.5 -54.5t51.5 -19.5q31 0 60.5 7t57.5 7q27 0 46.5 -13t32.5 -32.5t20.5 -44t7.5 -47.5q0 -66 -37 -110.5t-107 -44.5q-39 0 -71.5 3t-66.5 7t-68.5 7t-77.5 3q-78 0 -155 -10t-154 -10q-115 0 -160 45t-45 110q0 23 7 47.5t20.5 44t33 32.5t45.5 13q31 0 60.5 -7 t60.5 -7q27 0 42 17.5t15 58.5v80q0 27 -4 45t-11 36.5t-20.5 40t-31.5 52.5l-238 391q-12 20 -34.5 57t-38.5 56q-25 27 -60 26q-23 0 -41 -3t-41 -3q-27 0 -46 12.5t-32.5 33t-20.5 45t-7 46.5zM407 1700q0 76 52.5 128t128.5 52t129 -52t53 -128t-53.5 -129t-128.5 -53 q-76 0 -128.5 53t-52.5 129zM841 1700q0 76 53.5 128t129.5 52t129 -52t53 -128t-53 -129t-129 -53t-129.5 53t-53.5 129z" />
<glyph unicode="&#x2c6;" horiz-adv-x="1146" d="M141 1270q0 31 12.5 51t33 35.5t44 27t45.5 23.5l95 49q20 10 46.5 24.5t55.5 27t57.5 20.5t51.5 8q20 0 46.5 -9t53.5 -21.5t52.5 -27t43.5 -22.5l88 -49q18 -10 41 -22.5t41.5 -28t30.5 -34.5t12 -44q0 -37 -22.5 -77t-63.5 -40q-29 0 -61.5 12.5t-61.5 22.5l-209 78 l-213 -78q-29 -10 -68.5 -22.5t-68.5 -12.5q-41 0 -61.5 37t-20.5 72z" />
<glyph unicode="&#x2dc;" horiz-adv-x="1146" d="M141 1317q0 41 20.5 80t49.5 65q39 37 96.5 57.5t110.5 20.5q43 0 85 -13.5t82 -28.5t77.5 -28.5t72.5 -13.5q31 0 49 11.5t43 27.5t40.5 25.5t45.5 9.5q45 0 69 -32t24 -73q0 -53 -29 -94t-72 -69.5t-94 -44t-96 -15.5t-87 13.5t-81 29t-71 28.5t-56 13q-25 0 -43.5 -11 t-38.5 -24q-20 -16 -44 -31.5t-52 -15.5q-47 0 -74 34t-27 79z" />
<glyph unicode="&#x2000;" horiz-adv-x="950" />
<glyph unicode="&#x2001;" horiz-adv-x="1900" />
<glyph unicode="&#x2002;" horiz-adv-x="950" />
<glyph unicode="&#x2003;" horiz-adv-x="1900" />
<glyph unicode="&#x2004;" horiz-adv-x="633" />
<glyph unicode="&#x2005;" horiz-adv-x="475" />
<glyph unicode="&#x2006;" horiz-adv-x="316" />
<glyph unicode="&#x2007;" horiz-adv-x="316" />
<glyph unicode="&#x2008;" horiz-adv-x="237" />
<glyph unicode="&#x2009;" horiz-adv-x="380" />
<glyph unicode="&#x200a;" horiz-adv-x="105" />
<glyph unicode="&#x2010;" horiz-adv-x="819" d="M61 553q0 82 41 111.5t119 29.5h377q78 0 119 -29.5t41 -111.5t-41 -111.5t-119 -29.5h-377q-78 0 -119 29.5t-41 111.5z" />
<glyph unicode="&#x2011;" horiz-adv-x="819" d="M61 553q0 82 41 111.5t119 29.5h377q78 0 119 -29.5t41 -111.5t-41 -111.5t-119 -29.5h-377q-78 0 -119 29.5t-41 111.5z" />
<glyph unicode="&#x2012;" horiz-adv-x="819" d="M61 553q0 82 41 111.5t119 29.5h377q78 0 119 -29.5t41 -111.5t-41 -111.5t-119 -29.5h-377q-78 0 -119 29.5t-41 111.5z" />
<glyph unicode="&#x2013;" horiz-adv-x="1024" d="M-82 553q0 82 41 111.5t119 29.5h868q78 0 119 -29.5t41 -111.5t-41 -111.5t-119 -29.5h-868q-78 0 -119 29.5t-41 111.5z" />
<glyph unicode="&#x2014;" horiz-adv-x="2048" d="M-82 553q0 82 41 111.5t119 29.5h1892q78 0 119 -29.5t41 -111.5t-41 -111.5t-119 -29.5h-1892q-78 0 -119 29.5t-41 111.5z" />
<glyph unicode="&#x2018;" horiz-adv-x="614" d="M80 827q0 104 33.5 201.5t87.5 185.5q12 20 35.5 57.5t51 73t58.5 62.5t60 27q41 0 60 -26t19 -62q0 -39 -15 -69t-38 -60q-12 -18 -31.5 -47t-38 -61t-31 -62.5t-12.5 -53.5t14.5 -30t33.5 -13q70 -18 112.5 -73.5t42.5 -126.5q0 -41 -15 -79t-41 -68t-61.5 -48 t-76.5 -18q-59 0 -105.5 25.5t-78 66.5t-48 93t-16.5 105z" />
<glyph unicode="&#x2019;" horiz-adv-x="614" d="M82 1221q0 39 14.5 77.5t41 68.5t61 48.5t77.5 18.5q59 0 105.5 -25t78.5 -65.5t48 -93t16 -107.5q0 -104 -34.5 -201.5t-86.5 -185.5q-12 -20 -35.5 -57t-52 -73t-60.5 -62.5t-58 -26.5q-41 0 -59.5 26.5t-18.5 63.5q0 35 12 61.5t33 52.5q14 20 34.5 51t39 64t32 64.5 t13.5 56.5q0 23 -14.5 31t-32.5 12q-68 18 -111 73.5t-43 127.5z" />
<glyph unicode="&#x201a;" horiz-adv-x="819" d="M184 174q0 39 14.5 78t41 68.5t62.5 48t77 18.5q59 0 105 -25.5t78 -66.5t48.5 -93.5t16.5 -105.5q0 -104 -34 -201.5t-87 -185.5q-12 -20 -36 -57t-52.5 -73t-60 -62.5t-58.5 -26.5q-41 0 -59.5 25.5t-18.5 62.5q0 39 15.5 68.5t35.5 58.5q14 20 34 49t37 60.5 t29.5 62.5t12.5 53q0 23 -13.5 30t-33.5 13q-68 18 -111 73.5t-43 127.5z" />
<glyph unicode="&#x201c;" horiz-adv-x="1146" d="M82 827q0 104 34 201.5t87 183.5l34.5 57.5t51 74t59.5 63.5t60 27q41 0 60 -27t19 -64q0 -39 -15 -67.5t-38 -58.5q-12 -20 -31.5 -49t-38 -61t-30.5 -62.5t-12 -53.5t14 -30t33 -11q70 -20 112.5 -74.5t42.5 -125.5q0 -41 -15 -79t-41 -68t-61.5 -48t-76.5 -18 q-59 0 -105.5 24.5t-78 65.5t-48 93t-16.5 107zM602 827q0 104 34 201.5t87 185.5q12 20 35.5 57.5t52.5 73t59.5 62.5t59.5 27q41 0 59.5 -26t18.5 -62q0 -35 -13.5 -62t-31.5 -55q-14 -20 -35 -51t-40.5 -64t-32.5 -64.5t-13 -56.5q0 -23 14 -30t35 -13 q68 -18 110.5 -73.5t42.5 -126.5q0 -41 -15 -79t-40.5 -67t-61.5 -47t-77 -18q-59 0 -105.5 24.5t-78 65.5t-48 93t-16.5 105z" />
<glyph unicode="&#x201d;" horiz-adv-x="1146" d="M82 1221q0 39 14.5 77.5t41 68.5t61 48.5t77.5 18.5q59 0 105.5 -25t78.5 -65.5t48 -93t16 -107.5q0 -104 -34.5 -201.5t-86.5 -185.5q-12 -20 -35.5 -57t-52 -73t-60.5 -62.5t-58 -26.5q-41 0 -59.5 26.5t-18.5 63.5q0 35 12 61.5t33 52.5q14 20 34.5 51t39 64t32 64.5 t13.5 56.5q0 23 -14.5 31t-32.5 12q-68 18 -111 73.5t-43 127.5zM602 1221q0 39 14.5 76.5t41 68.5t62.5 49.5t77 18.5q59 0 105 -26t78 -67t48 -93t16 -107q0 -102 -33.5 -199.5t-86.5 -185.5q-12 -20 -36 -57t-52.5 -73t-60.5 -62.5t-58 -26.5q-41 0 -59.5 25.5 t-18.5 62.5q0 35 13.5 61.5t31.5 54.5q14 20 34.5 50t40 64t33 65.5t13.5 56.5q0 23 -14.5 30t-34.5 13q-68 18 -111 73.5t-43 127.5z" />
<glyph unicode="&#x201e;" horiz-adv-x="1146" d="M82 174q0 39 14.5 78t41 68.5t61 48t77.5 18.5q59 0 105.5 -25.5t78.5 -66.5t48 -93.5t16 -105.5q0 -104 -34.5 -201.5t-86.5 -185.5q-12 -20 -35.5 -57t-52 -73t-60.5 -62.5t-58 -26.5q-41 0 -59.5 25.5t-18.5 62.5q0 39 15.5 68.5t35.5 58.5q14 20 33.5 49t37 60.5 t30 62.5t12.5 53q0 23 -14.5 30t-32.5 13q-70 18 -112 73.5t-42 127.5zM602 174q0 39 14.5 78t41 68.5t62.5 48t77 18.5q59 0 105 -24.5t78 -65.5t48 -93.5t16 -107.5q0 -104 -33.5 -200.5t-86.5 -184.5q-12 -20 -36 -57t-52.5 -74t-60.5 -63.5t-58 -26.5q-41 0 -59.5 26.5 t-18.5 63.5q0 39 15.5 67.5t35.5 59.5q14 18 33.5 48t38 61.5t31 62.5t12.5 53q0 23 -14.5 30t-34.5 11q-68 20 -111 74.5t-43 126.5z" />
<glyph unicode="&#x2022;" horiz-adv-x="1228" d="M266 553q0 74 28 139.5t77 112.5t113.5 74.5t138.5 27.5t137 -27.5t111.5 -74.5t76 -112.5t27.5 -139.5q0 -72 -27.5 -136.5t-76 -112.5t-112 -75.5t-136.5 -27.5q-74 0 -138.5 27.5t-113.5 75.5t-77 112.5t-28 136.5z" />
<glyph unicode="&#x2026;" horiz-adv-x="2048" d="M127 166q0 45 16.5 84t46 67.5t68.5 45t84 16.5q43 0 82 -16.5t68.5 -45t46 -67.5t16.5 -84t-16.5 -84t-46 -67.5t-68.5 -45t-82 -16.5q-45 0 -84 16.5t-68.5 45t-46 67.5t-16.5 84zM809 166q0 45 16.5 84t46 67.5t68.5 45t84 16.5q43 0 82 -16.5t68.5 -45t46 -67.5 t16.5 -84t-16.5 -84t-46 -67.5t-68.5 -45t-82 -16.5q-45 0 -84 16.5t-68.5 45t-46 67.5t-16.5 84zM1491 166q0 45 16.5 84t46 67.5t68.5 45t82 16.5q45 0 84 -16.5t67.5 -45t46 -67.5t17.5 -84t-17.5 -84t-46 -67.5t-67.5 -45t-84 -16.5q-43 0 -82 16.5t-68.5 45t-46 67.5 t-16.5 84z" />
<glyph unicode="&#x202f;" horiz-adv-x="380" />
<glyph unicode="&#x2039;" horiz-adv-x="614" d="M29 565q2 31 22.5 53.5t40.5 40.5l191 166q14 12 32.5 28.5t40 32t43 25t39.5 9.5q33 -2 54.5 -32t19.5 -61q-2 -37 -22.5 -64.5t-43.5 -55.5l-94 -115q-6 -8 -17 -23.5t-11 -25.5q-2 -10 5 -19.5t15 -17.5l51 -64q14 -16 35 -38.5t39 -47t31.5 -51t11.5 -49.5 q-4 -37 -29.5 -54.5t-62.5 -15.5q-51 2 -88 35t-72 68l-125 121l-30.5 30.5t-36 40t-28.5 44t-11 40.5z" />
<glyph unicode="&#x203a;" horiz-adv-x="614" d="M98 279q2 35 22.5 63.5t43.5 56.5l94 115q6 8 17.5 23.5t11.5 25.5q2 10 -5.5 19.5t-15.5 17.5l-51 64q-14 16 -34.5 38.5t-39 47t-32 51t-11.5 49.5q4 37 30 54.5t62 15.5q51 -2 88 -36t72 -67l123 -121l31.5 -31.5t37 -41t29 -43t11.5 -39.5q-2 -31 -22.5 -53.5 t-41.5 -41.5l-190 -165q-14 -12 -33 -28.5t-40.5 -32t-44 -25t-40.5 -9.5q-31 2 -52.5 32t-19.5 61z" />
<glyph unicode="&#x205f;" horiz-adv-x="475" />
<glyph unicode="&#x2122;" horiz-adv-x="2048" d="M86 1188v217h788v-217h-71q0 84 -35 112.5t-117 28.5h-88q0 -233 -1 -365.5t1 -200t5 -87t14 -25.5q16 -8 44.5 -9t45.5 -1h18v-63h-432v63h18q16 0 45 1t46 9q10 6 15 25.5t6 87t1 200v365.5h-80q-82 0 -116.5 -28.5t-34.5 -112.5h-72zM940 578v63h31q20 2 36.5 3 t26.5 22q10 18 10 41.5v42.5v524q0 39 -5 56.5t-50 17.5h-31v57h302l227 -526l219 526h305v-57h-39q-47 0 -55 -16.5t-8 -57.5v-531q0 -35 2 -53t12 -28.5t30.5 -14.5t57.5 -6v-63h-381v63q35 0 55.5 3t32 13.5t14.5 30t3 53.5v537h-4l-283 -700h-25l-299 700h-4v-573 q0 -23 8.5 -36.5t22.5 -19.5t32.5 -7t37.5 -1v-63h-281z" />
<glyph unicode="&#x25fc;" horiz-adv-x="1044" d="M0 0v1044h1044v-1044h-1044z" />
</font>
</defs>
</svg>
